<?xml version="1.0" encoding="utf-8"?>
<!-- Generator: Adobe Illustrator 13.0.0, SVG Export Plug-In . SVG Version: 6.00 Build 14948)  -->
<!DOCTYPE svg PUBLIC "-//W3C//DTD SVG 1.1//EN" "http://www.w3.org/Graphics/SVG/1.1/DTD/svg11.dtd">
<svg version="1.1" id="Layer_1" xmlns="http://www.w3.org/2000/svg" xmlns:xlink="http://www.w3.org/1999/xlink" x="0px" y="0px"
	 width="127.834px" height="129.246px" viewBox="6.834 0 127.834 129.246" enable-background="new 6.834 0 127.834 129.246"
	 xml:space="preserve">
<g>
	<path fill="#1C803F" d="M70.612,37.646h-8.389c-1.858,0-3.373,1.515-3.373,3.374v5.64v16.509v2.401
		c0,1.861,1.515,3.377,3.373,3.377h22.706c1.86,0,3.375-1.516,3.375-3.377V41.021c0-1.861-1.515-3.374-3.375-3.374h-8.388"/>
	<ellipse fill="#FFFFFF" cx="57.041" cy="54.144" rx="6.368" ry="6.146"/>
	<g>
		<circle fill="#00B17D" cx="122.089" cy="22.232" r="10.349"/>
		<path fill="#00B17D" d="M91.101,52.882c0.719-2.343,3.191-3.662,5.545-2.948c0.023,0.007,5.498,1.552,10.054-0.926
			c3.957-2.146,6.528-6.281,7.44-7.7c1.832-2.871,4.408-5.164,7.957-5.164c4.81,0,8.717,3.905,8.717,8.716v27.391
			c0,3.067-1.588,5.763-3.979,7.306v38.954c0,2.624-2.109,4.745-4.736,4.745c-2.63,0-4.754-2.121-4.754-4.745V79.568
			c-2.39-1.555-3.964-4.242-3.964-7.312V55.272c-0.771,0.559-1.588,1.074-2.469,1.545c-3.536,1.919-7.245,2.468-10.277,2.468
			c-3.69,0-6.392-0.798-6.59-0.869C91.706,57.703,90.388,55.225,91.101,52.882z"/>
	</g>
	<path fill="#1C803F" d="M65.829,46.629"/>
	<g enable-background="new    ">
		<path fill="#FFFFFF" d="M61.888,49.893h5.978V43.78h6.691v6.113h6.293v6.335h-6.293v6.111h-6.691v-6.111h-5.978V49.893z"/>
	</g>
	<g>
		<circle fill="#00B17D" cx="30.845" cy="22.232" r="10.349"/>
		<path fill="#00B17D" d="M61.832,52.882c-0.714-2.343-3.075-3.56-5.54-2.948c-0.51,0.127-5.488,1.552-10.05-0.926
			c-3.964-2.146-6.53-6.281-7.441-7.7c-1.835-2.871-4.409-5.164-7.958-5.164c-4.811,0-8.717,3.905-8.717,8.716v27.391
			c0,3.067,1.59,5.763,3.979,7.306v38.954c0,2.624,2.116,4.745,4.737,4.745c2.623,0,4.744-2.121,4.744-4.745V79.568
			c2.391-1.555,3.972-4.242,3.972-7.312V55.272c0.77,0.559,1.588,1.074,2.464,1.545c3.541,1.919,7.249,2.468,10.278,2.468
			c3.687,0,6.385-0.798,6.589-0.869C61.228,57.703,62.547,55.225,61.832,52.882z"/>
	</g>
</g>
<circle fill="#63BF75" cx="21.499" cy="15.019" r="14.047"/>
<g>
	<path opacity="0.39" fill="#149F84" enable-background="new    " d="M75.315,110.145l-0.108-17.429l5.521-20.899
		c0,0,11.234,2.902,13.467,9.545c0,0,4.35,4.271,3.826,12.117c-0.539,7.85-3.646,12.021-3.646,12.021l-4.115,4.941l-3.884,2.463
		l-4.229,1.736l-5.064,1.147h-1.872v-4.937L75.315,110.145z"/>
	<path fill="#556180" d="M60.089,78.631c-0.18,0-0.412-0.082-0.578-0.262l-3-3.028c-0.358-0.323-0.358-0.854,0-1.205
		c0.346-0.323,0.881-0.323,1.169,0l3.058,3.028c0.301,0.324,0.301,0.883,0,1.205C60.559,78.549,60.322,78.631,60.089,78.631z"/>
	<path fill="#556180" d="M91.549,78.631c-0.233,0-0.469-0.082-0.649-0.262c-0.301-0.322-0.301-0.881,0-1.205l3.059-3.028
		c0.292-0.323,0.882-0.323,1.171,0c0.356,0.351,0.356,0.882,0,1.205l-2.987,3.028C91.96,78.549,91.729,78.631,91.549,78.631z"/>
	<path fill="#424A60" d="M77.547,70.495v-1.797h2.12c0.716,0,1.294-0.56,1.294-1.269l0,0c0-0.701-0.578-1.287-1.294-1.287h-7.695
		c-0.703,0-1.293,0.586-1.293,1.287l0,0c0,0.709,0.59,1.269,1.293,1.269h2.118v1.797c-11.88,0.877-21.352,10.841-21.352,22.983
		c0,12.701,10.353,23.047,23.048,23.047c12.763,0,23.115-10.346,23.115-23.047C98.899,81.336,89.429,71.373,77.547,70.495z
		 M75.785,114.82c-11.759,0-21.34-9.584-21.34-21.34c0-11.793,9.582-21.375,21.34-21.375c11.825,0,21.407,9.582,21.407,21.375
		C97.192,105.236,87.61,114.82,75.785,114.82z"/>
	<polygon fill="#DB6A26" points="52.269,73.55 55.919,69.9 59.511,73.55 55.919,77.164 	"/>
	<polygon fill="#149F84" points="92.142,73.55 95.722,69.9 99.369,73.55 95.722,77.164 	"/>
	<path fill="#4CA0D8" d="M77.728,95.387"/>
	<polyline fill="none" stroke="#149F84" points="78.787,79.072 75.207,92.716 75.315,110.145 	"/>
	<g>
		<path fill="#DB6A26" d="M59.811,89.662c-0.574,0-1.356-0.112-1.78-0.615c-0.252-0.295-0.334-0.682-0.252-1.148l0.029-0.162h0.167
			h0.403h0.239l-0.044,0.236c-0.05,0.24-0.018,0.43,0.096,0.569c0.187,0.224,0.604,0.339,1.209,0.339
			c0.84,0,1.822-0.344,1.822-1.328c0-0.627-0.437-0.878-1.502-0.878h-0.439l0.264-0.485c0.221-0.25,0.596-0.664,0.973-1.066
			c0.236-0.264,0.471-0.518,0.667-0.737H59.39l-0.15,0.71l-0.036,0.158h-0.161H58.68h-0.237l0.04-0.23l0.216-1.223l0.027-0.166
			h0.167h3.858h0.24l-0.045,0.24l-0.04,0.205l-1.764,1.931c0.866,0.169,1.357,0.702,1.357,1.5
			C62.499,89.092,61.108,89.662,59.811,89.662L59.811,89.662z"/>
		<path fill="#DB6A26" d="M59.042,85.052h-0.363l0.214-1.223h3.858l-0.041,0.209l-1.973,2.112c0.888,0.063,1.561,0.451,1.561,1.354
			c0,1.401-1.228,1.957-2.487,1.957c-1.062,0-2.043-0.372-1.836-1.527h0.403c-0.173,0.89,0.586,1.147,1.499,1.147
			c0.99,0,2.019-0.444,2.019-1.528c0-0.936-0.856-1.078-1.695-1.078l-0.03-0.158c0.444-0.5,1.498-1.631,1.94-2.129h-2.884
			L59.042,85.052z"/>
		<path fill="#DB6A26" d="M65.079,89.654c-0.694,0-1.245-0.225-1.593-0.641c-0.358-0.428-0.477-1.039-0.347-1.777l0.245-1.354
			c0.292-1.608,1.568-2.33,2.708-2.33c0.663,0,1.22,0.231,1.569,0.649c0.357,0.433,0.479,1.035,0.354,1.754l-0.248,1.354
			C67.479,88.918,66.209,89.646,65.079,89.654L65.079,89.654z M66.019,84.331c-0.771,0-1.639,0.503-1.836,1.623l-0.237,1.353
			c-0.096,0.536-0.035,0.938,0.179,1.193c0.199,0.238,0.552,0.361,1.035,0.361c0.927,0,1.637-0.635,1.816-1.623l0.244-1.354
			c0.092-0.51,0.026-0.916-0.193-1.182C66.819,84.461,66.474,84.331,66.019,84.331L66.019,84.331z"/>
		<path fill="#DB6A26" d="M63.581,85.923c0.261-1.459,1.395-2.171,2.512-2.171c1.135,0,1.989,0.729,1.725,2.171l-0.242,1.354
			c-0.262,1.439-1.369,2.171-2.497,2.178c-1.202,0-2.003-0.721-1.741-2.178L63.581,85.923z M63.748,87.275
			c-0.214,1.201,0.323,1.779,1.408,1.779c0.929,0,1.798-0.602,2.012-1.779l0.247-1.354c0.214-1.182-0.366-1.792-1.396-1.792
			c-0.91,0-1.822,0.598-2.038,1.792L63.748,87.275z"/>
		<path fill="#DB6A26" d="M65.326,99.074H65.16h-1.751h-0.241l0.044-0.237l0.065-0.344l0.033-0.163h0.162h0.497l0.321-1.831
			c0.063-0.345,0.014-0.618-0.136-0.798c-0.143-0.17-0.378-0.253-0.697-0.253c-0.656,0-1.197,0.468-1.322,1.146l-0.304,1.733h0.439
			h0.241l-0.046,0.237l-0.063,0.345l-0.032,0.163h-0.165h-1.712h-0.239l0.043-0.238l0.066-0.344l0.033-0.163h0.162h0.505l0.32-1.802
			c0.063-0.346,0.014-0.621-0.147-0.811c-0.145-0.177-0.389-0.264-0.711-0.264c-0.634,0.019-1.161,0.486-1.28,1.141l-0.306,1.733
			h0.443h0.239l-0.041,0.231L59.518,98.9l-0.029,0.168h-0.166h-1.776h-0.236l0.041-0.231l0.06-0.345l0.028-0.167h0.168h0.553
			l0.491-2.817h-0.476h-0.24l0.045-0.236l0.063-0.34l0.033-0.162h0.163h1.077h0.232l-0.036,0.229l-0.009,0.045
			c0.313-0.227,0.693-0.35,1.11-0.35c0.646,0,1.118,0.259,1.333,0.716c0.392-0.459,0.951-0.726,1.566-0.726
			c0.533,0,0.964,0.183,1.245,0.515c0.289,0.342,0.392,0.813,0.291,1.362l-0.309,1.765h0.476h0.236l-0.04,0.231L65.349,98.9
			L65.326,99.074L65.326,99.074z"/>
		<path fill="#DB6A26" d="M57.546,98.876l0.064-0.346h0.72l0.561-3.216h-0.714l0.063-0.342h1.079l-0.11,0.688
			c0.332-0.551,0.902-0.762,1.408-0.762c0.625,0,1.18,0.271,1.26,0.976c0.371-0.683,1.037-0.979,1.638-0.979
			c0.991,0,1.513,0.662,1.339,1.638l-0.35,1.997h0.714l-0.063,0.346h-1.75l0.063-0.346h0.665l0.35-1.997
			c0.133-0.759-0.213-1.283-1.032-1.283c-0.752,0-1.377,0.554-1.513,1.313l-0.348,1.967h0.673L62.2,98.875h-1.712l0.063-0.346h0.675
			l0.346-1.967c0.135-0.771-0.223-1.308-1.052-1.308c-0.743,0.024-1.339,0.563-1.474,1.308L58.7,98.529h0.68l-0.063,0.346
			L57.546,98.876L57.546,98.876z"/>
		<path fill="#DB6A26" d="M67.469,99.077h-0.167h-1.85h-0.236l0.04-0.232l0.06-0.358l0.031-0.163h0.166h0.577l0.5-2.818h-0.483
			h-0.232l0.036-0.229l0.053-0.346l0.024-0.17h0.173h1.084h0.237l-0.041,0.231l-0.58,3.331h0.507h0.235l-0.041,0.234l-0.063,0.357
			L67.469,99.077L67.469,99.077z M67.233,94.172c-0.26,0-0.448-0.181-0.448-0.436c0-0.354,0.286-0.541,0.563-0.541
			c0.262,0,0.443,0.179,0.443,0.437C67.793,94.003,67.5,94.172,67.233,94.172L67.233,94.172z"/>
		<path fill="#DB6A26" d="M67.245,94.955l-0.622,3.566h0.744l-0.063,0.354H65.45l0.063-0.354h0.744l0.57-3.217h-0.719l0.054-0.351
			L67.245,94.955L67.245,94.955z M66.985,93.736c0-0.245,0.199-0.342,0.363-0.342c0.119,0,0.245,0.063,0.245,0.236
			c0,0.254-0.196,0.344-0.364,0.344C67.112,93.975,66.985,93.911,66.985,93.736z"/>
		<path fill="#DB6A26" d="M72.8,99.077h-0.167H70.88h-0.236l0.041-0.237l0.063-0.35l0.033-0.162h0.161h0.484l0.305-1.727
			c0.076-0.436,0.039-0.736-0.108-0.91c-0.14-0.166-0.396-0.241-0.78-0.241c-0.729,0.004-1.396,0.565-1.516,1.284l-0.282,1.596
			h0.452h0.234l-0.039,0.234l-0.064,0.352l-0.029,0.161h-0.164h-1.768h-0.234l0.041-0.237l0.063-0.35l0.033-0.162h0.162h0.545
			l0.494-2.814h-0.478h-0.237l0.041-0.231l0.062-0.349l0.028-0.168h0.166h1.069h0.233l-0.036,0.229l-0.029,0.18
			c0.379-0.3,0.839-0.468,1.328-0.479c0.59,0,1.026,0.175,1.31,0.506c0.291,0.346,0.388,0.84,0.274,1.46l-0.293,1.671h0.485h0.236
			l-0.039,0.23l-0.063,0.352L72.8,99.077L72.8,99.077z"/>
		<path fill="#DB6A26" d="M68.808,98.529h0.688l-0.063,0.346h-1.768l0.066-0.346h0.711l0.561-3.217h-0.714l0.063-0.352h1.067
			l-0.127,0.813c0.442-0.635,1.078-0.873,1.625-0.879c1.095,0,1.576,0.641,1.388,1.733l-0.334,1.899h0.721l-0.064,0.347h-1.751
			l0.065-0.347h0.647l0.334-1.895c0.159-0.919-0.133-1.387-1.086-1.387c-0.815,0.008-1.567,0.626-1.713,1.449L68.808,98.529z"/>
	</g>
</g>
<g>
	<path fill="#FFFFFF" d="M21.704,8.434h1.383v7.996h1.011v1.738h-1.011v2.801h-1.774v-2.801h-6.186v-1.26L21.704,8.434z
		 M21.349,16.464v-4.927l-3.882,4.927H21.349z"/>
</g>
</svg>
