<?xml version="1.0" encoding="utf-8"?>
<!-- Generator: Adobe Illustrator 13.0.0, SVG Export Plug-In . SVG Version: 6.00 Build 14948)  -->
<!DOCTYPE svg PUBLIC "-//W3C//DTD SVG 1.1//EN" "http://www.w3.org/Graphics/SVG/1.1/DTD/svg11.dtd">
<svg version="1.1" id="Layer_1" xmlns="http://www.w3.org/2000/svg" xmlns:xlink="http://www.w3.org/1999/xlink" x="0px" y="0px"
	 width="113.335px" height="99.768px" viewBox="0 0 113.335 99.768" enable-background="new 0 0 113.335 99.768"
	 xml:space="preserve">
<g>
	<path fill="#61BE74" d="M267.548,95.747c2.303,0,4.561-0.603,6.535-1.792l18.766-11.088V77.68l-21.115,12.303
		c-1.602,0.93-3.42,1.417-5.256,1.395l-27.943-0.328c-1.402-0.512-2.519-0.835-2.933-1c-8.747-1.957-15.579-1.187-20.229,0.07
		c-3.49,0.929-7.211,0.578-10.514-0.934l-25.345-11.627v46.458l2.628,1.442c3.881,2.112,6.977,5.396,8.91,9.37l-1.492,1.211
		c-3.998,2.905-4.861,8.531-2.232,12.51c1.463,1.929,3.533,3.163,5.906,3.584c0.277,0.023,0.699,0.048,1,0.048
		c0.859,0.047,1.695-0.048,2.413-0.165c0.048,2,0.513,3.722,1.699,5.351c1.585,2.21,4.091,3.21,6.79,3.351
		c0.695,0.047,1.417,0.074,1.977,0.117c-0.259,2.112,0.348,4.273,1.674,6.044c1.465,1.929,3.533,3.162,5.903,3.584
		c0.281,0.023,0.699,0.046,1,0.046c2.116,0.114,4.14-0.487,5.767-1.675l0.883-0.675c0.21,1.28,0.586,2.437,1.375,3.485
		c1.183,1.632,2.971,2.728,5.087,3.112c0.28,0.027,0.563,0.027,0.858,0.051c1.695,0.09,3.42-0.397,4.908-1.437h0.141l1.047,1.46
		c1.834,2.654,5.65,3.278,8.305,1.443c2.201-1.585,3.088-4.681,2.09-7.137l0.178,0.272c1.754,2.586,5.059,3.702,7.936,2.512
		c3.188-1.301,4.459-4.744,3.623-7.696c2.141,2.397,5.818,2.861,8.465,1.023l0.139-0.138c2.645-1.839,3.42-5.35,1.998-8.142
		c2.305,2.113,5.973,2.44,8.629,0.605c3.092-2.253,3.906-6.604,1.646-9.724l-3.303-4.72l7.191-8.376
		c1.887-2.205,4.139-4.067,6.645-5.532l3.543-2.046v-5.532l-4.893,2.765c-2.787,1.586-5.295,3.628-7.389,6.076l-7.727,8.943
		c-2.299-2.112-5.971-2.437-8.625-0.597c-3.092,2.249-3.908,6.599-1.648,9.718l0.113,0.301h-0.137
		c-2.188-1.534-5.16-1.694-7.512-0.117l-0.141,0.142c-2.074,1.445-3.051,3.951-2.602,6.398l-0.748,0.534
		c-2.074-1.093-4.625-1.093-6.697,0.35c-1.906,1.326-2.881,3.674-2.725,5.813l-2.047,1.302c-1.527-0.371-3.254-0.027-4.58,0.886
		c-1.625,1.184-2.582,3.14-2.535,4.979l-1.022,0.647c-0.604,0.535-1.604,0.762-2.444,0.582c-0.835-0.185-1.671-0.652-2.205-1.396
		c-0.535-0.604-0.77-1.604-0.582-2.443c0.184-0.836,0.647-1.672,1.394-2.21l11.087-8.348c0.586-0.395,0.906-0.953,0.93-1.647
		c0.07-1.28-1.02-2.374-2.275-2.374c-0.488,0-0.883,0.112-1.299,0.352l-17.699,12.833c-1.022,0.651-2.182,1.022-3.438,0.815
		c-1.257-0.216-2.374-0.841-3.022-1.866c-1.463-1.926-1.026-4.885,1.047-6.325l21.115-15.068c0.461-0.418,0.789-1,0.789-1.766
		c0.022-1.209-0.977-2.232-2.188-2.275c-0.695-0.023-1.253,0.233-1.719,0.762l-20.67,14.954c-0.582,0.254-0.887,0.673-1.328,1.069
		c-2.486,1.581-6.16,1.234-7.488-0.539c-1.327-1.904-1.046-4.462,0.602-6.066l2.072-1.441l22.975-15.672
		c0.582-0.395,0.906-0.953,0.924-1.651c0.052-0.766-0.327-1.486-0.948-1.925c-0.815-0.586-1.628-0.604-2.491-0.094l-24.597,16.715
		c-0.164,0.281-0.445,0.401-0.604,0.539l-2.375,1.722c-1.925,1.464-4.881,1.022-6.326-1.047c-1.463-1.929-1.022-4.888,1.051-6.325
		l46.389-34.155c3.717,2.183,6.471,6.579,6.471,6.579c4.553,14.278,10.229,14.396,13.666,12.669
		c1.795-0.883,2.604-2.998,1.982-4.904c-1.818-5.509-2.867-16.185-2.867-16.185c-1.271-2.768-5.375-5.673-9.924-8.047l14.906,0.234
		L267.548,95.747z"/>
</g>
<g>
	<path fill="#61BE74" d="M77.706,71.766c0.205-7.843,15.682-17.831,15.597-39.621C93.261,21.182,82.606,2.962,64.507,0.695
		C46.407-1.578,32.866,2.393,26.95,13.523c-5.925,11.125-6.376,20.891-5.92,22.714c0.462,1.814,2.387,5.225,2.387,5.225
		s-9.103,13.961-8.537,16.232c0.573,2.27,6.821,3.495,6.821,3.495s0.566,1.582-0.576,4.64c-1.144,3.071,2.125,6.623,3.1,7.869
		c0.968,1.235-1.371,5.112-0.576,7.264c0.799,2.157,4.565,4.771,8.884,4.2c4.328-0.569,9.874-1.588,11.811-1.93
		c4.354,10.224-6.144,15.454-6.144,15.454h55.192C93.382,98.687,77.371,85.844,77.706,71.766z"/>
</g>
</svg>
