<?xml version="1.0" encoding="utf-8"?>
<!-- Generator: Adobe Illustrator 13.0.0, SVG Export Plug-In . SVG Version: 6.00 Build 14948)  -->
<!DOCTYPE svg PUBLIC "-//W3C//DTD SVG 1.1//EN" "http://www.w3.org/Graphics/SVG/1.1/DTD/svg11.dtd">
<svg version="1.1" id="Layer_1" xmlns="http://www.w3.org/2000/svg" xmlns:xlink="http://www.w3.org/1999/xlink" x="0px" y="0px"
	 width="186.79px" height="160.275px" viewBox="0 0 186.79 160.275" enable-background="new 0 0 186.79 160.275"
	 xml:space="preserve">
<g>
	<path fill="#61BE74" d="M141.856,34.436c3.539,0,7.01-0.926,10.04-2.753l28.835-17.036V6.679l-32.444,18.902
		c-2.461,1.429-5.255,2.178-8.075,2.143L97.276,27.22c-2.152-0.787-3.869-1.284-4.505-1.536C79.332,22.677,68.834,23.86,61.69,25.79
		c-5.364,1.429-11.081,0.888-16.157-1.435L6.594,6.493v71.381l4.038,2.216c5.963,3.245,10.72,8.291,13.69,14.396l-2.293,1.86
		c-6.142,4.464-7.468,13.108-3.431,19.222c2.25,2.964,5.429,4.858,9.077,5.508c0.425,0.034,1.073,0.073,1.536,0.073
		c1.32,0.071,2.604-0.073,3.707-0.254c0.073,3.074,0.787,5.719,2.611,8.221c2.436,3.396,6.286,4.933,10.433,5.151
		c1.068,0.071,2.177,0.111,3.036,0.177c-0.396,3.246,0.535,6.566,2.574,9.287c2.249,2.964,5.428,4.858,9.069,5.506
		c0.432,0.037,1.074,0.073,1.537,0.073c3.251,0.173,6.359-0.749,8.859-2.576l1.357-1.036c0.323,1.968,0.9,3.746,2.112,5.355
		c1.817,2.508,4.564,4.191,7.815,4.781c0.432,0.041,0.866,0.041,1.32,0.079c2.605,0.137,5.255-0.611,7.542-2.209h0.216l1.608,2.243
		c2.818,4.078,8.68,5.036,12.76,2.218c3.382-2.435,4.744-7.192,3.208-10.966l0.276,0.417c2.695,3.974,7.772,5.688,12.192,3.859
		c4.897-1.998,6.851-7.288,5.567-11.824c3.289,3.683,8.938,4.396,13.005,1.571l0.214-0.211c4.066-2.825,5.254-8.22,3.069-12.51
		c3.542,3.245,9.18,3.748,13.258,0.929c4.752-3.461,6.003-10.146,2.53-14.939l-5.075-7.253l11.05-12.87
		c2.897-3.388,6.36-6.248,10.21-8.498l5.442-3.145v-8.5l-7.519,4.248c-4.281,2.438-8.134,5.574-11.351,9.336l-11.873,13.741
		c-3.534-3.245-9.174-3.744-13.254-0.918c-4.75,3.455-6.002,10.14-2.529,14.931l0.174,0.464h-0.212
		c-3.362-2.357-7.929-2.603-11.543-0.18l-0.216,0.217c-3.187,2.221-4.687,6.07-3.997,9.832l-1.15,0.82
		c-3.186-1.681-7.105-1.681-10.291,0.536c-2.928,2.039-4.427,5.646-4.187,8.934l-3.143,2c-2.347-0.57-5-0.043-7.04,1.36
		c-2.494,1.82-3.964,4.824-3.893,7.651l-1.572,0.993c-0.929,0.822-2.465,1.17-3.754,0.895c-1.284-0.284-2.568-1.002-3.391-2.145
		c-0.822-0.929-1.181-2.465-0.894-3.755c0.282-1.283,0.996-2.567,2.141-3.396l17.037-12.825c0.899-0.607,1.391-1.464,1.428-2.531
		c0.108-1.968-1.567-3.647-3.497-3.647c-0.748,0-1.354,0.172-1.995,0.542l-27.19,19.719c-1.572,0.999-3.354,1.569-5.284,1.251
		c-1.931-0.331-3.647-1.293-4.643-2.866c-2.249-2.96-1.578-7.507,1.607-9.719l32.443-23.151c0.708-0.642,1.212-1.537,1.212-2.713
		c0.035-1.859-1.499-3.43-3.36-3.496c-1.067-0.036-1.926,0.356-2.64,1.171l-31.759,22.977c-0.895,0.39-1.363,1.033-2.041,1.643
		c-3.821,2.429-9.466,1.896-11.506-0.828c-2.04-2.927-1.607-6.856,0.923-9.32l3.185-2.215L80.44,89.703
		c0.895-0.607,1.392-1.465,1.421-2.538c0.079-1.177-0.503-2.284-1.458-2.957c-1.253-0.899-2.501-0.929-3.828-0.146l-37.792,25.682
		c-0.252,0.431-0.684,0.615-0.93,0.828l-3.647,2.646c-2.958,2.248-7.5,1.569-9.72-1.608c-2.25-2.966-1.572-7.512,1.613-9.72
		l71.276-52.478c5.712,3.355,9.944,10.108,9.944,10.108c6.993,21.938,15.716,22.121,20.995,19.466c2.76-1.356,4-4.607,3.046-7.536
		c-2.794-8.465-4.405-24.868-4.405-24.868c-1.952-4.252-8.259-8.716-15.248-12.364l22.903,0.359L141.856,34.436z"/>
</g>
</svg>
