<?xml version="1.0" encoding="utf-8"?>
<!-- Generator: Adobe Illustrator 13.0.0, SVG Export Plug-In . SVG Version: 6.00 Build 14948)  -->
<!DOCTYPE svg PUBLIC "-//W3C//DTD SVG 1.1//EN" "http://www.w3.org/Graphics/SVG/1.1/DTD/svg11.dtd">
<svg version="1.1" id="Layer_1" xmlns="http://www.w3.org/2000/svg" xmlns:xlink="http://www.w3.org/1999/xlink" x="0px" y="0px"
	 width="127.834px" height="129.246px" viewBox="6.834 0 127.834 129.246" enable-background="new 6.834 0 127.834 129.246"
	 xml:space="preserve">
<circle fill="#63BF75" cx="24.526" cy="14.046" r="14.047"/>
<g>
	<path fill="#9AC73C" d="M99.785,66.354c0,0,2.728-4.762,4.981-4.575c2.26,0.185,2.814,3.357,2.814,3.357s0.958-0.934,2.253-1.074
		c0,0-1.575,4.338,0,7.979c0,0-1.037,0.27-2.062-1.125c0,0-2.127,2.805,1.131,7.843c3.255,5.039,4.748,14.931,4.748,14.931
		s14.556-6.324,20.809,7.434c0,0-10.73-7.688-20.064,0c-9.33,7.688-5.25,7.591-11.162,9.457c0,0,0.715-2.081,1.646-3.23
		c0,0-3.663,4.728-9.529,4.728c-5.865,0-27.98-0.372-27.98-0.372s-2.428-0.28-2.52-1.96l-37.232-0.466c0,0-9.144,3.545,2.986-11.662
		c0,0,3.266-1.868,0.559-5.602c0,0,1.12-2.334,6.905-0.563c0,0,2.052-5.876-2.986-6.999v-1.028h23.89l0.091,1.215
		c0,0,14.42-2.33,20.976-1.215c0,0-11.83,10.27-2.032,22.354c0,0,3.176,3.383,22.678-0.061c0,0,2.938-1.761,1.047-14.355
		c-1.887-12.603,3.615-11.947,3.615-11.947L99.785,66.354z"/>
	<path fill="#010101" d="M133.835,111.365c0,6.979-5.66,12.639-12.638,12.639c-6.979,0-12.642-5.658-12.642-12.639
		c0-6.981,5.661-12.637,12.642-12.637C128.175,98.729,133.835,104.384,133.835,111.365"/>
	<path fill="#4E4E4E" d="M130.681,111.365c0,5.234-4.248,9.482-9.481,9.482s-9.483-4.248-9.483-9.482
		c0-5.233,4.25-9.479,9.483-9.479S130.681,106.131,130.681,111.365"/>
	<path fill="#F2F2F2" d="M128.892,111.365c0,4.25-3.447,7.693-7.692,7.693c-4.248,0-7.695-3.444-7.695-7.693
		c0-4.247,3.448-7.69,7.695-7.69C125.44,103.673,128.892,107.118,128.892,111.365"/>
	<path fill="#CBCBCA" d="M126.642,111.365c0,3.008-2.438,5.447-5.442,5.447c-3.005,0-5.448-2.439-5.448-5.447
		s2.441-5.443,5.448-5.443C124.203,105.92,126.642,108.357,126.642,111.365"/>
	<path fill="#979797" d="M123.244,111.365c0,1.134-0.918,2.053-2.047,2.053c-1.132,0-2.054-0.919-2.054-2.053
		c0-1.131,0.922-2.045,2.054-2.045C122.326,109.32,123.244,110.234,123.244,111.365"/>
	<path fill="#010101" d="M60.912,111.365c0,6.979-5.662,12.639-12.641,12.639c-6.978,0-12.639-5.658-12.639-12.639
		c0-6.981,5.661-12.637,12.639-12.637C55.252,98.729,60.912,104.384,60.912,111.365"/>
	<path fill="#4E4E4E" d="M57.987,111.365c0,5.363-4.352,9.716-9.717,9.716c-5.364,0-9.716-4.351-9.716-9.716
		c0-5.362,4.351-9.717,9.716-9.717C53.638,101.648,57.987,106.002,57.987,111.365"/>
	<path fill="#F2F2F2" d="M55.965,111.365c0,4.25-3.445,7.693-7.694,7.693c-4.247,0-7.693-3.444-7.693-7.693
		c0-4.247,3.445-7.69,7.693-7.69C52.521,103.673,55.965,107.118,55.965,111.365"/>
	<path fill="#CBCBCA" d="M53.716,111.365c0,3.008-2.439,5.447-5.446,5.447c-3.006,0-5.444-2.439-5.444-5.447
		s2.438-5.443,5.444-5.443C51.28,105.92,53.716,108.357,53.716,111.365"/>
	<path fill="#979797" d="M50.321,111.365c0,1.134-0.917,2.053-2.05,2.053c-1.129,0-2.047-0.919-2.047-2.053
		c0-1.131,0.917-2.045,2.047-2.045C49.402,109.32,50.321,110.234,50.321,111.365"/>
	<path fill="#E5E5E5" d="M122.052,110.257c0.566,0.565,0.566,1.483,0,2.05c-0.564,0.565-1.48,0.565-2.048,0l-15.048-15.05
		c-0.564-0.563-0.564-1.481,0-2.049c0.563-0.563,1.48-0.563,2.05,0L122.052,110.257z"/>
	<path fill="#FED2AA" d="M100.513,63.867l2.163-0.163c0,0,1.353-2.694,4.534-0.936c3.184,1.761,1.242,3.675-0.646,3.919
		c-1.889,0.242-2.198-0.213-2.198-0.213s2.019-2.294-0.068-2.518c-2.084-0.219-2.196,1.414-2.196,1.414l-3.108,0.104L100.513,63.867
		z"/>
	<path fill="#72154A" d="M88.335,49.169c0.65,0.064,1.502-1.447,2.391,12.971l10.844,1.151c0,0-2.797,3.611-2.256,5.979
		c0,0-11.246-2.492-12.91-4.47C84.731,62.822,82.104,48.563,88.335,49.169"/>
	<path fill="#010101" d="M81.688,78.336c2.139,0.225,3.36,6.109-2.303,5.721c-5.666-0.392-16.354,0.021-16.354,0.021
		s-6.794-7.006-0.944-12.116C67.938,66.852,59.796,76.038,81.688,78.336"/>
	<path fill="#010101" d="M100.229,66.587c0,0,2.017-1.239,2.797,0.06c0.779,1.299-0.871,2.065-0.871,2.065
		S100.138,67.445,100.229,66.587"/>
	
		<rect x="86.729" y="101.393" transform="matrix(0.8987 0.4386 -0.4386 0.8987 54.0502 -28.0413)" fill="#FED2AA" width="1.966" height="3.125"/>
	<path fill="#E5E5E5" d="M86.146,103.919c0,0-0.463,0.832-0.541,1.416c0,0,0.477,0.995,1.84,0.796l0.57-1.568
		C88.019,104.561,87.44,104.705,86.146,103.919"/>
	<path fill="#B3B3B3" d="M85.756,104.884c0,0,1.17,0.646,2.013,0.197c0,0,2.45-0.714,3.719,0.095c1.268,0.805,1.09,2.094,1.09,2.094
		s-4.907,1.252-7.445-0.614C85.129,106.652,85.209,104.986,85.756,104.884"/>
	
		<rect x="79.881" y="100.13" transform="matrix(0.8987 0.4387 -0.4387 0.8987 52.8747 -25.1497)" fill="#FED2AA" width="1.968" height="3.449"/>
	<path fill="#042A46" d="M69.224,71.08c0,0-4.393,1.449-0.882,3.714c3.515,2.267,18.671,3.511,24.339,2.163
		c0,0-3.918,6.451-3.891,10.982c0.025,4.535-2.202,13.74-2.202,13.74s2.172,0.991,2.915,2.079c0,0,9.102-23.938,6.816-28.388
		c-2.283-4.45-16.26-5.951-16.26-5.951C78.821,70.411,73.44,70.793,69.224,71.08"/>
	<path fill="#3F5879" d="M67.367,68.869c0,0-3.103,3.338,0,6.138c3.102,2.798,16.399,3.849,22.208,3.427
		c0,0-4.899,5.742-5.598,10.219c-0.703,4.479-3.946,11.551-3.946,11.551s1.983,1.33,2.546,2.52c0,0,12.387-20.508,10.849-25.266
		c-1.542-4.758-15.098-8.48-15.098-8.48C76.953,69.75,71.58,69.264,67.367,68.869"/>
	<path fill="#FED2AA" d="M70.26,64.763c0,0-2.425,2.797-2.893,4.105c0,0,9.428,1.139,10.967,0.104
		C78.33,68.973,73.714,63.831,70.26,64.763"/>
	<polygon fill="#FED2AA" points="89.985,48.411 92.917,44.9 96.396,46.656 92.81,50.692 	"/>
	<path fill="#E5E5E5" d="M114.042,35.559c0,0-0.105,10.288-4.146,11.851c0,0-19.056-6.342-13.324-19.754
		C102.297,14.24,111.356,31.352,114.042,35.559"/>
	<polygon fill="#FFFFFF" points="106.79,31.062 95.493,37.807 96.496,40.996 109.836,32.15 	"/>
	<polygon fill="#FFFFFF" points="110.926,33.165 97.801,43.534 103.526,48.899 114.042,35.01 	"/>
	<path fill="#9AC73C" d="M89.533,44.476l14.573,8.701c0,0,6.67-4.133,6.525-6.091c0,0-10.708-3.502-12.617-11.963
		c-2.029-8.992,16.457,1.377,16.457,1.377s2.541-15.807-17.765-14.864C82.144,21.636,89.533,44.476,89.533,44.476"/>
	<polygon fill="#343434" points="89.11,43.009 88.539,44.357 104.338,53.811 104.769,53.178 	"/>
	<path fill="#9AC73C" d="M87.658,46.381c0,0-3.541-0.563-8.019,2.519c-4.479,3.079-1.684,6.301-8.123,6.719
		c-6.437,0.42-7.975,4.899-9.094,7.699c0,0,4.898,1.119,7.835,2.799c2.941,1.681,9.521,3.22,9.521,3.22s4.813-5.712,7.435-7.103
		c2.774-1.471,6.552-5.964,6.755-8.423C94.173,51.354,96.233,50.021,87.658,46.381"/>
	<path fill="#FED2AA" d="M94.326,66.645l2.136,0.383c0,0,1.979-2.27,4.623,0.229c2.646,2.501,0.287,3.868-1.604,3.634
		c-1.885-0.235-2.078-0.754-2.078-0.754s2.535-1.719,0.57-2.455c-1.966-0.731-2.48,0.82-2.48,0.82l-3.039-0.677L94.326,66.645z"/>
	<path fill="#9E2066" d="M86.219,49.366c0.615,0.224,1.814-1.025-0.934,13.159l10.208,3.827c0,0-3.609,2.797-3.676,5.226
		c0,0-10.268-5.226-11.385-7.558C79.313,61.685,80.339,47.222,86.219,49.366"/>
	<path fill="#E5E5E5" d="M79.371,102.673c0,0-0.461,0.832-0.54,1.415c0,0,0.477,0.995,1.841,0.799l0.573-1.57
		C81.245,103.316,80.668,103.459,79.371,102.673"/>
	<path fill="#B3B3B3" d="M78.831,104.088c0,0,1.091,0.779,1.975,0.428c0,0,2.521-0.424,3.688,0.521
		c1.166,0.947,0.84,2.205,0.84,2.205s-5.016,0.679-7.324-1.467C78.006,105.777,78.274,104.129,78.831,104.088"/>
	<path fill="#010101" d="M99.108,69.218c0,1.036-0.842,1.878-1.879,1.878c-1.041,0-1.879-0.844-1.879-1.878
		c0-1.038,0.838-1.879,1.879-1.879C98.269,67.335,99.108,68.18,99.108,69.218"/>
	<path fill="#FCF6B7" d="M112.158,67.908c0,2.438-0.882,4.415-1.972,4.415c-1.088,0-1.969-1.979-1.969-4.415
		c0-2.438,0.881-4.413,1.969-4.413C111.276,63.495,112.158,65.471,112.158,67.908"/>
	<rect x="6.884" y="81.924" fill="#818180" width="52.088" height="1.5"/>
	<rect x="8.975" y="51.76" fill="#979797" width="3.261" height="30.164"/>
	<polygon fill="#09A950" points="55.921,48.499 12.45,48.499 12.45,51.76 9.188,51.76 9.188,81.924 59.183,81.924 59.183,51.76 	"/>
	<g>
		<path fill="#FFFFFF" d="M20.41,62.167h8.792v-8.989h9.841v8.989h9.251v9.315h-9.252v8.99H29.2v-8.99h-8.79V62.167z"/>
	</g>
	<path id="path3220" fill="#129A48" d="M38.472,65.092c0.073,0.256,0.113,0.541,0.113,0.865c0,0.572-0.126,1.125-0.351,1.628
		c0.33-0.233,0.626-0.476,0.911-0.694c1.012-0.785,1.968-1.059,2.707-1.104c0.396-0.021,1.045-0.33,1.045-0.693L38.472,65.092
		L38.472,65.092z M38.327,65.957c0-2.013-1.842-2.558-3.479-2.819c-1.65-0.264-3.559-0.855-3.559-2.616
		c0-0.863,0.54-1.723,1.466-1.723c1.364,0,1.604,1.035,1.609,1.182c0.005,0.147-0.397,0.253-0.449,0.545
		c-0.063,0.355,0.089,0.706,0.312,0.99c0.198,0.253,0.483,0.767,0.767,0.722c0.304-0.048,0.415-0.568,0.5-0.91
		c0.084-0.342,0.233-0.63,0.091-0.949c-0.176-0.395-0.353-0.199-0.489-0.483c-0.078-0.163-0.381-1.814-2.206-1.814
		c-1.272,0-2.433,1.053-2.547,2.245c-0.163,1.709,0.512,2.355,1.934,3.024c2.214,1.044,4.513,1,4.513,2.467
		c0,1.434-0.489,2.195-1.331,2.75c-0.145,0.1-0.421,0.225-0.69,0.315v1.009c0.056-0.01,0.113-0.019,0.168-0.026
		C36.826,69.548,38.327,67.867,38.327,65.957z M36.149,65.092H25.343c0,0.365,0.65,0.669,1.045,0.693
		c0.739,0.047,1.694,0.32,2.706,1.105c1.034,0.799,2.198,1.853,4.633,1.957v3.098c0.142,0.027,0.299,0.041,0.472,0.041
		c0.072,0,0.185-0.004,0.313-0.02v-1.781v-1.338v-0.148c1.307-0.288,2.023-1.401,2.023-2.879
		C36.535,65.518,36.409,65.288,36.149,65.092z M33.728,74.311c0.219,0.135,0.489,0.193,0.785,0.233v-1.21
		c-0.262,0.018-0.527,0.016-0.785-0.014V74.311z M36.326,75.291c-0.42-0.318-0.966-0.395-1.939-0.514
		c-1.151-0.142-1.455-0.863-1.489-1.627c-0.299-0.101-0.575-0.237-0.813-0.416c-0.055,0.259-0.08,0.529-0.08,0.806
		c0,1.147,1.237,1.638,2.115,1.763c0.91,0.131,1.762,0.165,1.882,0.215c0.121,0.053,0.194,0.108,0.244,0.166
		c0.051,0.058,0.188,0.135,0.273,0.08C36.604,75.706,36.536,75.451,36.326,75.291z M33.222,71.766
		c0.073-0.076,0.158-0.144,0.248-0.199v-0.702c-0.218,0.122-0.408,0.262-0.57,0.411C32.9,71.466,33.013,71.639,33.222,71.766z
		 M35.723,71.438c0,0.545-0.716,0.808-1.524,0.808c-0.808,0-1.557-0.318-1.557-0.968c0-0.801,0.329-1.084,0.828-1.213v-1.123
		c-1.094,0.086-1.999,1.092-1.999,1.951c0,0.623,0.11,1.604,1.842,2.102c1.819,0.525,3.913-0.624,3.913-1.771
		c0-0.558-0.286-0.826-0.66-0.943c-0.311-0.098-0.68-0.235-1.794,0.086v0.71c0.175-0.048,0.332-0.079,0.486-0.079
		C35.575,70.993,35.723,71.096,35.723,71.438z M29.777,77.826h8.686c0-0.141-0.461-0.346-0.858-0.381
		c-0.399-0.033-0.932-0.057-1.052-0.158c-0.165-0.145-0.428-0.242-0.773-0.325c-0.352-0.085-1.268-0.157-1.268-0.657v-0.695
		c-0.144-0.014-0.287-0.029-0.43-0.051c-0.11-0.017-0.229-0.039-0.354-0.067v0.813c0,0.5-0.916,0.574-1.268,0.658
		c-0.345,0.082-0.609,0.184-0.773,0.324c-0.12,0.104-0.654,0.125-1.052,0.158C30.237,77.479,29.777,77.686,29.777,77.826z"/>
</g>
<g>
	<path fill="#FFFFFF" d="M20.024,11.438c0.315-2.185,1.713-3.969,4.265-3.969c4.633,0,5.892,5.087,2.587,7.395l-3.95,3.392h5.612
		v1.695h-8.583v-1.363l5.751-5.07h-0.017c1.923-1.381,1.451-4.282-1.398-4.282c-1.503,0-2.29,0.979-2.5,2.342L20.024,11.438z"/>
</g>
</svg>
