<?xml version="1.0" encoding="utf-8"?>
<!-- Generator: Adobe Illustrator 13.0.0, SVG Export Plug-In . SVG Version: 6.00 Build 14948)  -->
<!DOCTYPE svg PUBLIC "-//W3C//DTD SVG 1.1//EN" "http://www.w3.org/Graphics/SVG/1.1/DTD/svg11.dtd">
<svg version="1.1" id="Layer_1" xmlns="http://www.w3.org/2000/svg" xmlns:xlink="http://www.w3.org/1999/xlink" x="0px" y="0px"
	 width="125.334px" height="129.246px" viewBox="0 0 125.334 129.246" enable-background="new 0 0 125.334 129.246"
	 xml:space="preserve">
<g>
	<path fill="#23B169" d="M93.313,108.163h-13.94c-0.504,0-0.911-0.416-0.911-0.914v-3.394c0-0.504-0.413-0.914-0.912-0.914H58.043
		c-0.502,0-0.913,0.412-0.913,0.914v3.394c0,0.502-0.414,0.914-0.913,0.914h-10.48c-0.503,0-0.916,0.411-0.916,0.914v3.925
		c0,0.503,0.415,0.912,0.916,0.912h47.583c0.502,0,0.914-0.412,0.914-0.912v-3.925C94.231,108.574,93.815,108.163,93.313,108.163
		L93.313,108.163z"/>
	<path fill="#23B169" d="M116.737,16.384H17.261c-3.459,0-6.273,2.815-6.273,6.278v34.112c0,2.166-0.161,2.469,1.292,2.469h2.492
		c1.218,0,0.969-0.302,0.969-2.509V22.663c0-0.828,0.698-1.528,1.524-1.528h99.479c0.821,0,1.522,0.699,1.522,1.528v61.282H40.896
		c0,0-2.501-0.008-2.501,3.229v7.667c0,3.228,2.581,3.228,2.581,3.228h75.764c3.459,0,6.274-2.813,6.274-6.271V22.663
		C123.017,19.2,120.2,16.384,116.737,16.384L116.737,16.384z M67.002,92.648c-1.565,0-2.831-1.268-2.831-2.832
		c0-1.563,1.266-2.83,2.831-2.83c1.56,0,2.829,1.268,2.829,2.83C69.83,91.382,68.56,92.648,67.002,92.648L67.002,92.648z"/>
	<path fill="#23B169" d="M30.5,63.886H3.837c-1.656,0-3.003,1.349-3.003,3.003v43.827c0,1.652,1.346,3,3.003,3h26.662
		c1.655,0,3-1.349,3-3V66.889C33.5,65.232,32.155,63.886,30.5,63.886L30.5,63.886z M13.877,66.95h6.579
		c0.315,0,0.569,0.251,0.569,0.567c0,0.314-0.253,0.567-0.569,0.567h-6.579c-0.311,0-0.567-0.251-0.567-0.567
		C13.313,67.202,13.566,66.95,13.877,66.95L13.877,66.95z M17.127,111.607c-0.857,0-1.553-0.694-1.553-1.563
		c0-0.854,0.693-1.553,1.553-1.553c0.859,0,1.554,0.693,1.554,1.553C18.679,110.913,17.986,111.607,17.127,111.607L17.127,111.607z
		 M30.923,107.041c0,0.4-0.319,0.729-0.713,0.729H4.126c-0.392,0-0.709-0.328-0.709-0.729V70.623c0-0.396,0.315-0.727,0.709-0.727
		H30.21c0.392,0,0.711,0.328,0.711,0.727L30.923,107.041L30.923,107.041z"/>
	<polygon fill="#23B169" points="67.376,72.379 60.926,74.35 69.122,66.028 72.226,77.283 	"/>
	<polygon fill="#23B169" points="16.212,94.438 11.922,95.745 17.375,90.208 19.435,97.697 	"/>
	
		<radialGradient id="SVGID_1_" cx="703.4678" cy="2809.0781" r="35.5879" gradientTransform="matrix(1 0 0 0.7879 -634.2871 -2092.0605)" gradientUnits="userSpaceOnUse">
		<stop  offset="0" style="stop-color:#F0EEEE"/>
		<stop  offset="1" style="stop-color:#DFDFDE"/>
	</radialGradient>
	<path fill="url(#SVGID_1_)" d="M119.313,121.212c0,1.935-22.453,3.497-50.133,3.497c-27.688,0-50.132-1.564-50.132-3.497
		c0-1.928,22.444-3.497,50.132-3.497C96.858,117.715,119.313,119.285,119.313,121.212z"/>
	<g>
		<path fill="#23B169" d="M30.835,32.71l-3.81,5.298h-0.384L22.88,32.71v8.595h-1.792V30.101h2.081l3.698,5.25l3.681-5.25h2.081
			v11.204h-1.792V32.71z"/>
		<path fill="#23B169" d="M41.481,34.415c0.763,0.784,1.145,1.764,1.145,2.938c0,1.185-0.376,2.163-1.128,2.938
			c-0.752,0.773-1.742,1.16-2.969,1.16c-1.216,0-2.198-0.387-2.945-1.16c-0.747-0.774-1.121-1.753-1.121-2.938
			s0.376-2.166,1.129-2.945c0.752-0.779,1.731-1.168,2.937-1.168C39.734,33.239,40.718,33.63,41.481,34.415z M36.775,35.511
			c-0.443,0.502-0.664,1.115-0.664,1.841s0.219,1.334,0.656,1.824c0.438,0.491,1.024,0.736,1.761,0.736s1.326-0.245,1.769-0.736
			c0.443-0.49,0.665-1.099,0.665-1.824c0-0.715-0.229-1.326-0.688-1.833s-1.041-0.76-1.745-0.76
			C37.803,34.759,37.218,35.009,36.775,35.511z"/>
		<path fill="#23B169" d="M50.354,41.29v-4.226c0-0.693-0.187-1.246-0.56-1.657c-0.374-0.41-0.896-0.616-1.569-0.616
			c-0.64,0-1.168,0.229-1.584,0.688c-0.417,0.459-0.625,1.02-0.625,1.681v4.13h-1.648v-7.907h1.504l0.096,1.152
			c0.747-0.843,1.632-1.265,2.657-1.265c0.993,0,1.806,0.336,2.441,1.009c0.635,0.672,0.952,1.595,0.952,2.769v4.242H50.354z"/>
		<path fill="#23B169" d="M60.801,40.265c-0.832,0.821-1.83,1.232-2.993,1.232c-1.195,0-2.188-0.362-2.977-1.088
			c-0.79-0.727-1.185-1.745-1.185-3.058s0.395-2.332,1.185-3.058s1.782-1.088,2.977-1.088c1.11,0,2.06,0.39,2.849,1.168
			l-1.056,1.104c-0.48-0.47-1.072-0.704-1.777-0.704c-0.726,0-1.329,0.237-1.809,0.712c-0.48,0.476-0.72,1.097-0.72,1.865
			c0,0.8,0.24,1.425,0.72,1.873c0.48,0.448,1.078,0.672,1.792,0.672c0.769,0,1.393-0.245,1.873-0.736L60.801,40.265z"/>
		<path fill="#23B169" d="M68.602,34.415c0.763,0.784,1.145,1.764,1.145,2.938c0,1.185-0.376,2.163-1.128,2.938
			c-0.753,0.773-1.742,1.16-2.97,1.16c-1.216,0-2.198-0.387-2.945-1.16c-0.747-0.774-1.121-1.753-1.121-2.938
			s0.376-2.166,1.129-2.945s1.731-1.168,2.937-1.168S67.839,33.63,68.602,34.415z M63.896,35.511
			c-0.443,0.502-0.664,1.115-0.664,1.841s0.219,1.334,0.656,1.824c0.438,0.491,1.024,0.736,1.761,0.736s1.325-0.245,1.769-0.736
			c0.443-0.49,0.664-1.099,0.664-1.824c0-0.715-0.229-1.326-0.688-1.833s-1.041-0.76-1.745-0.76
			C64.923,34.759,64.339,35.009,63.896,35.511z"/>
		<path fill="#23B169" d="M73.007,33.398v4.227c0,0.683,0.189,1.232,0.568,1.648s0.904,0.624,1.577,0.624
			c0.64,0,1.165-0.229,1.577-0.688c0.41-0.459,0.615-1.024,0.615-1.696v-4.114h1.648v7.907h-1.488l-0.096-1.168
			c-0.747,0.854-1.654,1.28-2.721,1.28c-0.992,0-1.796-0.336-2.41-1.008c-0.613-0.673-0.92-1.596-0.92-2.77v-4.242H73.007z"/>
		<path fill="#23B169" d="M82.767,33.398l0.112,1.041c0.459-0.812,1.232-1.217,2.321-1.217c0.801,0,1.451,0.225,1.953,0.673
			l-0.753,1.44c-0.396-0.32-0.858-0.48-1.393-0.48c-0.608,0-1.115,0.187-1.521,0.561c-0.406,0.373-0.608,0.906-0.608,1.601v4.273
			H81.23v-7.892H82.767z"/>
		<path fill="#23B169" d="M93.313,35.335c-0.534-0.491-1.228-0.736-2.081-0.736c-0.512-0.011-0.92,0.066-1.225,0.231
			c-0.304,0.166-0.456,0.403-0.456,0.713c0.011,0.565,0.581,0.901,1.713,1.008c0.448,0.043,0.835,0.099,1.16,0.168
			c0.325,0.07,0.673,0.188,1.04,0.353c0.369,0.165,0.651,0.413,0.85,0.744c0.197,0.331,0.295,0.736,0.295,1.217
			c-0.01,0.747-0.32,1.35-0.928,1.809c-0.608,0.459-1.42,0.688-2.434,0.688c-1.536,0-2.736-0.485-3.602-1.457l0.865-1.168
			c0.683,0.758,1.605,1.146,2.77,1.168c0.447,0,0.837-0.085,1.168-0.256c0.33-0.171,0.502-0.427,0.512-0.769
			c0.011-0.341-0.136-0.592-0.439-0.752c-0.305-0.16-0.766-0.272-1.385-0.336c-2.135-0.203-3.207-0.992-3.217-2.369
			c0-0.801,0.332-1.4,1-1.801c0.666-0.4,1.427-0.601,2.281-0.601c1.237,0,2.251,0.353,3.041,1.057L93.313,35.335z"/>
		<path fill="#23B169" d="M96.574,30.181c0.342-0.171,0.683-0.171,1.024,0s0.512,0.47,0.512,0.896s-0.17,0.729-0.512,0.904
			s-0.683,0.176-1.024,0c-0.341-0.176-0.513-0.478-0.513-0.904S96.233,30.352,96.574,30.181z M96.255,33.367v7.923h1.648v-7.923
			H96.255z"/>
		<path fill="#23B169" d="M101.375,37.96c0.075,0.598,0.345,1.077,0.808,1.44c0.465,0.362,1.055,0.544,1.77,0.544
			c0.427,0,0.855-0.077,1.289-0.231c0.432-0.155,0.766-0.36,1-0.617l1.072,1.041c-0.395,0.427-0.899,0.758-1.513,0.992
			c-0.614,0.234-1.241,0.353-1.881,0.353c-1.291,0-2.323-0.379-3.097-1.137c-0.774-0.758-1.161-1.771-1.161-3.041
			c0-1.206,0.384-2.193,1.153-2.962c0.768-0.768,1.766-1.152,2.992-1.152c1.324,0,2.354,0.406,3.09,1.217s1.029,1.995,0.88,3.554
			H101.375z M106.192,36.568c-0.042-0.608-0.274-1.078-0.695-1.409c-0.422-0.33-0.969-0.496-1.641-0.496
			c-0.619,0-1.15,0.166-1.594,0.496c-0.442,0.331-0.728,0.801-0.855,1.409H106.192z"/>
		<path fill="#23B169" d="M110.991,33.398l0.111,1.041c0.459-0.812,1.232-1.217,2.32-1.217c0.801,0,1.452,0.225,1.953,0.673
			l-0.752,1.44c-0.395-0.32-0.859-0.48-1.393-0.48c-0.608,0-1.115,0.187-1.521,0.561c-0.405,0.373-0.608,0.906-0.608,1.601v4.273
			h-1.648v-7.892H110.991z"/>
		<path fill="#23B169" d="M29.186,49.301V60.49h-1.553l-0.096-1.248c-0.576,0.938-1.489,1.408-2.737,1.408
			c-1.174,0-2.14-0.368-2.897-1.104c-0.758-0.736-1.137-1.739-1.137-3.009c0-1.303,0.371-2.313,1.113-3.034
			c0.741-0.72,1.705-1.08,2.889-1.08c0.522,0,1.054,0.126,1.592,0.376c0.539,0.251,0.931,0.595,1.177,1.032v-4.529H29.186z
			 M23.127,54.664c-0.475,0.459-0.712,1.083-0.712,1.873c0,0.778,0.237,1.402,0.712,1.872c0.475,0.47,1.07,0.704,1.785,0.704
			c0.704,0,1.299-0.239,1.785-0.72c0.485-0.48,0.728-1.1,0.728-1.856c0-0.747-0.243-1.361-0.728-1.841
			c-0.486-0.48-1.081-0.721-1.785-0.721C24.197,53.975,23.603,54.205,23.127,54.664z"/>
		<path fill="#23B169" d="M32.655,57.161c0.075,0.598,0.344,1.077,0.808,1.44c0.464,0.362,1.054,0.544,1.769,0.544
			c0.427,0,0.856-0.077,1.289-0.231c0.432-0.155,0.766-0.36,1-0.617l1.073,1.041c-0.395,0.427-0.899,0.758-1.513,0.992
			c-0.614,0.234-1.241,0.353-1.881,0.353c-1.291,0-2.324-0.379-3.097-1.137c-0.774-0.758-1.161-1.771-1.161-3.041
			c0-1.206,0.384-2.193,1.153-2.962c0.768-0.768,1.766-1.152,2.993-1.152c1.323,0,2.353,0.406,3.089,1.217s1.03,1.995,0.88,3.554
			H32.655z M37.473,55.768c-0.042-0.608-0.275-1.078-0.696-1.409c-0.421-0.33-0.968-0.496-1.641-0.496
			c-0.619,0-1.15,0.166-1.593,0.496c-0.443,0.331-0.728,0.801-0.856,1.409H37.473z"/>
		<path fill="#23B169" d="M47.521,51.846l1.201,0.929l-0.945,1.104c0.641,0.747,0.96,1.563,0.96,2.448
			c0,0.716-0.176,1.34-0.528,1.873c-0.353,0.534-0.875,0.934-1.569,1.2c1.387,0.47,2.081,1.329,2.081,2.577
			c0,1.014-0.419,1.804-1.257,2.369c-0.837,0.565-1.827,0.848-2.969,0.848c-1.302,0-2.329-0.312-3.081-0.936
			s-1.112-1.48-1.081-2.569h1.649c-0.021,0.587,0.216,1.049,0.712,1.385c0.497,0.336,1.097,0.51,1.801,0.521
			c0.672,0,1.259-0.139,1.761-0.416s0.752-0.678,0.752-1.201c0-0.544-0.227-0.966-0.68-1.265c-0.454-0.298-1.054-0.447-1.801-0.447
			c-1.291,0-2.326-0.353-3.105-1.057c-0.779-0.704-1.168-1.665-1.168-2.882c0-1.248,0.421-2.222,1.265-2.921
			c0.843-0.699,1.846-1.048,3.009-1.048c0.886,0,1.595,0.181,2.129,0.544L47.521,51.846z M42.679,54.527
			c-0.507,0.422-0.761,1.022-0.761,1.801c0,0.758,0.249,1.351,0.745,1.777s1.118,0.64,1.865,0.64c0.736,0,1.347-0.227,1.833-0.68
			c0.486-0.454,0.729-1.032,0.729-1.737c0-0.746-0.248-1.339-0.744-1.776c-0.497-0.438-1.102-0.656-1.817-0.656
			C43.802,53.895,43.186,54.106,42.679,54.527z"/>
		<path fill="#23B169" d="M56.897,52.598h1.601v7.892h-1.568l-0.08-1.28c-0.246,0.479-0.627,0.848-1.145,1.104
			c-0.518,0.256-1.043,0.384-1.577,0.384c-1.185,0.011-2.156-0.353-2.913-1.088c-0.758-0.736-1.137-1.761-1.137-3.073
			c0-1.281,0.387-2.287,1.161-3.018c0.773-0.731,1.747-1.097,2.921-1.097c0.566,0,1.094,0.128,1.585,0.385
			c0.491,0.256,0.859,0.603,1.104,1.04L56.897,52.598z M52.463,54.639c-0.491,0.475-0.736,1.107-0.736,1.897
			c0,0.789,0.245,1.424,0.736,1.904c0.491,0.48,1.099,0.721,1.825,0.721c0.469,0,0.888-0.097,1.256-0.288
			c0.368-0.192,0.646-0.443,0.833-0.753c0.187-0.31,0.325-0.648,0.416-1.017s0.091-0.738,0-1.112
			c-0.091-0.373-0.229-0.715-0.416-1.024c-0.187-0.31-0.464-0.56-0.833-0.752s-0.787-0.288-1.256-0.288
			C53.563,53.927,52.954,54.165,52.463,54.639z"/>
		<path fill="#23B169" d="M62.271,52.598l0.112,1.041c0.459-0.812,1.232-1.217,2.321-1.217c0.801,0,1.451,0.225,1.953,0.673
			l-0.753,1.44c-0.396-0.32-0.858-0.48-1.393-0.48c-0.608,0-1.115,0.187-1.521,0.561c-0.406,0.373-0.608,0.906-0.608,1.601v4.273
			h-1.648v-7.892H62.271z"/>
		<path fill="#23B169" d="M75.538,49.301V60.49h-1.553l-0.096-1.248c-0.576,0.938-1.489,1.408-2.738,1.408
			c-1.174,0-2.139-0.368-2.896-1.104s-1.137-1.739-1.137-3.009c0-1.303,0.371-2.313,1.113-3.034c0.74-0.72,1.704-1.08,2.889-1.08
			c0.522,0,1.054,0.126,1.592,0.376c0.539,0.251,0.932,0.595,1.178,1.032v-4.529H75.538z M69.479,54.664
			c-0.475,0.459-0.713,1.083-0.713,1.873c0,0.778,0.238,1.402,0.713,1.872s1.069,0.704,1.785,0.704c0.703,0,1.299-0.239,1.784-0.72
			s0.728-1.1,0.728-1.856c0-0.747-0.242-1.361-0.728-1.841c-0.485-0.48-1.081-0.721-1.784-0.721
			C70.549,53.975,69.954,54.205,69.479,54.664z"/>
		<path fill="#23B169" d="M79.007,57.161c0.074,0.598,0.344,1.077,0.809,1.44c0.464,0.362,1.053,0.544,1.769,0.544
			c0.427,0,0.856-0.077,1.288-0.231c0.433-0.155,0.766-0.36,1-0.617l1.073,1.041c-0.396,0.427-0.899,0.758-1.513,0.992
			s-1.24,0.353-1.881,0.353c-1.291,0-2.324-0.379-3.098-1.137s-1.16-1.771-1.16-3.041c0-1.206,0.385-2.193,1.152-2.962
			c0.769-0.768,1.766-1.152,2.994-1.152c1.322,0,2.352,0.406,3.088,1.217s1.03,1.995,0.881,3.554H79.007z M83.825,55.768
			c-0.043-0.608-0.275-1.078-0.697-1.409c-0.421-0.33-0.968-0.496-1.641-0.496c-0.619,0-1.149,0.166-1.592,0.496
			c-0.443,0.331-0.729,0.801-0.857,1.409H83.825z"/>
		<path fill="#23B169" d="M87.405,58.713c0.342-0.171,0.682-0.171,1.018,0c0.336,0.17,0.504,0.469,0.504,0.896
			c0,0.427-0.168,0.728-0.504,0.904c-0.336,0.176-0.676,0.176-1.018,0c-0.341-0.177-0.512-0.478-0.512-0.904
			C86.894,59.182,87.064,58.883,87.405,58.713z"/>
		<path fill="#23B169" d="M96.368,60.49v-4.338c0-0.608-0.166-1.117-0.496-1.528c-0.332-0.411-0.779-0.616-1.346-0.616
			c-0.564,0-1.023,0.208-1.376,0.624s-0.528,0.923-0.528,1.521v4.338h-1.648v-7.907h1.537l0.111,1.057
			c0.213-0.405,0.521-0.704,0.92-0.896c0.4-0.192,0.83-0.288,1.289-0.288c1.248,0,2.076,0.528,2.48,1.585
			c0.576-1.046,1.479-1.569,2.705-1.569c1.078,0,1.905,0.32,2.481,0.961c0.576,0.64,0.864,1.536,0.864,2.688v4.37h-1.664v-4.37
			c0-0.618-0.15-1.123-0.449-1.513c-0.299-0.389-0.73-0.584-1.296-0.584c-0.576,0-1.04,0.206-1.393,0.616
			c-0.353,0.411-0.528,0.915-0.528,1.513v4.338H96.368z"/>
		<path fill="#23B169" d="M111.824,52.598h1.601v7.892h-1.568l-0.08-1.28c-0.246,0.479-0.627,0.848-1.145,1.104
			c-0.518,0.256-1.043,0.384-1.576,0.384c-1.186,0.011-2.156-0.353-2.914-1.088c-0.758-0.736-1.137-1.761-1.137-3.073
			c0-1.281,0.387-2.287,1.161-3.018c0.773-0.731,1.747-1.097,2.921-1.097c0.566,0,1.094,0.128,1.585,0.385
			c0.491,0.256,0.858,0.603,1.104,1.04L111.824,52.598z M107.391,54.639c-0.491,0.475-0.736,1.107-0.736,1.897
			c0,0.789,0.245,1.424,0.736,1.904s1.099,0.721,1.825,0.721c0.469,0,0.888-0.097,1.256-0.288c0.368-0.192,0.646-0.443,0.832-0.753
			c0.188-0.31,0.326-0.648,0.416-1.017c0.092-0.368,0.092-0.738,0-1.112c-0.09-0.373-0.229-0.715-0.416-1.024
			c-0.187-0.31-0.464-0.56-0.832-0.752s-0.787-0.288-1.256-0.288C108.489,53.927,107.882,54.165,107.391,54.639z"/>
	</g>
</g>
<circle fill="#63BF75" cx="16.258" cy="14.046" r="14.047"/>
<g>
	<path fill="#FFFFFF" d="M15.344,19.826V10.83l-2.458,2.387l-1.522-0.899l4.425-4.602h1.896v12.109L15.344,19.826L15.344,19.826z"/>
</g>
</svg>
