<?xml version="1.0" encoding="utf-8"?>
<!-- Generator: Adobe Illustrator 13.0.0, SVG Export Plug-In . SVG Version: 6.00 Build 14948)  -->
<!DOCTYPE svg PUBLIC "-//W3C//DTD SVG 1.1//EN" "http://www.w3.org/Graphics/SVG/1.1/DTD/svg11.dtd">
<svg version="1.1" id="Layer_1" xmlns="http://www.w3.org/2000/svg" xmlns:xlink="http://www.w3.org/1999/xlink" x="0px" y="0px"
	 width="186.643px" height="48.307px" viewBox="0 0 186.643 48.307" enable-background="new 0 0 186.643 48.307"
	 xml:space="preserve">
<g>
	<path fill="#9AC73E" d="M163.531,35.59c-0.803,0.533-1.687,1.564-2.779,1.835c-0.841,0.206-1.786,0.047-1.889-0.682
		c-0.096-0.646,0.446-1.648,0.834-2.31c0.954-1.628,2.964-4.257,5.059-4.51c0.613-0.074,1.093,0.071,1.443,0.264
		c0.219-0.598,0.384-1.497,0.612-2.518c0.221-0.976,0.591-2.966,1.612-1.835c-0.81,2.498-1.897,5.628-1.724,8.912
		c0.04,0.695,0.109,1.38,0.609,1.732c0.4,0.057,0.635-0.312,0.894-0.209c0.331,0.868-1.067,0.907-1.557,0.576
		c-0.81-0.543-0.818-2.191-0.834-3.411c-0.353,0.13-0.724,0.682-1.056,0.998"/>
	<g>
		<path fill="#9AC73E" d="M176.32,33.438c-0.083-0.026-0.134-0.077-0.169-0.156c-0.578-0.06-0.699,0.608-0.998,0.943
			c-0.731,0.819-2.255,2.06-3.614,2.205c-0.584,0.06-1.167,0.019-1.39-0.314c-0.513-0.767,0.236-2.064,0.558-2.571
			c0.828,0.455,2.093,0.189,2.775-0.315c0.767-0.563,1.873-2.002,1.724-3.04c-0.234-1.649-2.554-0.39-3.332,0.315
			c-1.176,1.062-2.601,2.857-2.724,4.406c-0.105,1.295,0.598,2.13,1.889,2.201c1.673,0.092,2.463-0.646,3.668-1.417"/>
		<path fill="#010101" d="M172.704,31.028c-0.596,0.662-1.33,1.193-1.723,2.045c0.77,0.294,1.518-0.113,1.941-0.47l0.613-0.58
			c0.403-0.512,1.044-1.077,0.834-1.988c-0.255-0.137-0.594,0.05-0.774,0.157L172.704,31.028z"/>
		<path fill="#231F20" d="M118.002,34.175c0.328-0.355,0.681-0.688,1.056-0.999"/>
		<path fill="#231F20" d="M119.057,33.177c-0.328,0.354-0.678,0.688-1.056,0.999"/>
		<path fill="none" stroke="#231F20" stroke-width="0.5" stroke-linecap="round" stroke-linejoin="round" d="M126.95,30.766
			c0.163-0.198,0.348-0.373,0.556-0.525"/>
		<path fill="none" stroke="#231F20" stroke-width="0.5" stroke-linecap="round" stroke-linejoin="round" d="M127.506,30.242
			c-0.161,0.196-0.348,0.371-0.556,0.525"/>
		<path fill="#9AC73E" d="M147.632,31.079c0.788-0.396,2.128-2.061,3.613-1.729c0.872,0.193,0.902,2.405-0.501,1.834
			c-0.111-0.391,0.296-0.68,0.168-1.259c-0.861,0.186-1.369,0.701-1.947,1.154l-1.11,1.052c-0.587,0.643-1.265,1.284-1.832,1.992
			c-0.542,0.669-1.235,1.468-1.171,2.518c1.604,0.192,2.449-1.215,3.395-1.995l0.552-0.522c0.827-0.743,1.574-1.558,1.945-2.727
			c0.289-0.085,0.666-0.066,0.834,0.103c0.075,0.57-0.226,1.386-0.389,2.309c-0.125,0.687-0.379,1.99,0.5,1.993
			c0.646,0.003,0.389-0.813,1.225-0.527c0.181,1.158-1.836,1.483-2.502,0.527c-0.368-0.531-0.321-1.239-0.278-1.887
			c-0.183,0.07-0.264,0.24-0.39,0.367l-1.058,0.994c-0.819,0.578-1.977,1.775-3.224,2.045c-2.376,0.519-1.131-2.258-0.556-3.144
			c0.564-0.869,1.136-1.464,1.724-2.153L147.632,31.079z"/>
		<path fill="#9AC73E" d="M124.672,33.546c-0.311,0.519-1.096,1.93-0.5,2.621c0.302,0.349,1.056,0.34,1.666,0.209
			c1.2-0.256,2.575-1.343,3.337-2.203c0.313-0.354,0.385-0.987,1-0.893c0.122,0.491-0.255,1.072-0.556,1.465
			c-0.812,1.06-2.42,2.431-4.504,2.362c-1.091-0.038-1.91-0.646-2.004-1.733c-0.113-1.367,0.738-2.481,1.504-3.462
			c0.785-1.006,1.599-1.95,2.611-2.357c1.332-0.537,2.374,0.211,1.783,1.678C128.477,32.544,126.695,34.442,124.672,33.546z"/>
		<path fill="#231F20" d="M154.636,34.593c0,0.229,0,0.455,0,0.682"/>
		<path fill="#9AC73E" d="M154.636,35.275c-0.035,0.536,0.056,1.13,0,1.523c-0.181,0.187-0.574,0.357-0.945,0.208
			c-0.357-0.726-0.042-1.678,0-2.571c0.069-1.46-0.061-2.972-0.167-4.298c0.236-0.337,0.707-0.469,1.001-0.264
			c0.511,0.357-0.06,1.441,0.057,2.099c0.863-0.941,1.278-2.764,3-2.782c0.29-0.003,0.728,0.035,1,0.316
			c0.234,0.238,0.382,0.944-0.109,0.944c-0.441,0-0.184-0.493-0.558-0.63c-1.08,0.185-1.707,1.104-2.224,1.836
			c-0.54,0.761-1.084,1.724-1.057,2.936"/>
		<path fill="#231F20" d="M154.636,34.593c-0.091,0.108-0.091,0.575,0,0.682"/>
		<path fill="#231F20" d="M120.727,33.915c0,0.276,0,0.557,0,0.834"/>
		<path fill="#231F20" d="M118.891,34.281c-0.163,0.195-0.349,0.371-0.558,0.524"/>
		<path fill="none" stroke="#231F20" stroke-width="0.5" stroke-linecap="round" stroke-linejoin="round" d="M115.554,31.918
			c0.219-0.251,0.462-0.475,0.724-0.683"/>
		<path fill="none" stroke="#231F20" stroke-width="0.5" stroke-linecap="round" stroke-linejoin="round" d="M115.554,31.918
			c0.268-0.204,0.508-0.432,0.724-0.683"/>
		<path fill="#9AC73E" d="M116.278,31.236c0.846-0.706,2.378-1.801,3.892-1.046c0.262-0.592,0.385-1.525,0.611-2.571
			c0.206-0.944,0.654-2.904,1.611-1.783c-0.781,2.477-1.664,4.86-1.665,8.078v0.834c0.027,0.704,0.047,1.628,0.609,1.732
			c0.353,0.065,0.526-0.302,0.893-0.209c0.183,0.973-1.207,0.876-1.667,0.524c-0.751-0.573-0.789-2.274-0.724-3.357
			c-0.363,0.022-0.645,0.581-0.946,0.842l-0.558,0.524c-1.109,0.793-2.204,2.453-3.886,2.674c-1.093,0.142-1.77-0.274-1.56-1.258
			c0.351-1.632,1.801-3.199,2.668-4.302"/>
		<path fill="#9AC73E" d="M139.515,30.608c0.592-0.435,1.063-0.989,2.06-1.048c0.399,0.445-0.214,1.472,0.61,1.52
			c0.537,0.031,0.688-0.56,0.502-1.204c-0.22-0.741-0.865-1.152-1.838-0.892c-1.211,0.326-2.335,1.342-3.39,2.464
			c-1.12,1.192-2.091,2.267-2.227,3.565c-0.229,2.238,2.65,1.529,3.561,0.473l0.558-0.525c0.824-0.833,1.376-1.919,2.333-2.623
			c0.773,1.111,0.723,2.799,0.611,4.248c-0.161,2.106-1.092,4.363-2.724,5.036c-1.727,0.714-3.361-0.359-3.836-1.521
			c-0.16-0.401-0.099-1.204-0.443-1.259c-0.67-0.113-0.425,0.976-0.277,1.364c0.514,1.353,1.635,1.974,3.001,2.41h1.055
			c2.889-0.82,4.677-4.104,4.171-8.286c-0.13-1.079-0.591-3.764-1.894-2.621l-3.168,3.146c-0.589,0.419-1.046,0.973-2.057,0.997
			c-0.142-1.985,1.54-3.113,2.502-4.405L139.515,30.608z"/>
		<g>
			<path fill="#14A74E" d="M37.676-0.345c-6.468,0.32-9.954,5.658-8.118,11.539c1.324,4.233,5.416,7.538,8.838,9.755
				c3.216-3.442,9.146-6.445,8.896-13.321c-0.175-4.855-3.43-7.453-8.449-7.972"/>
			<path fill="#14A74E" d="M100.325-0.345c-3.954,0.289-7.279,2.315-8.339,5.874c-1.018,3.423,0.413,7.073,2.224,9.493
				c1.955,2.605,4.622,4.425,6.838,5.979c3.232-3.592,8.912-6.414,8.896-13.006c-0.014-5.158-3.337-7.762-8.507-8.34"/>
			<path fill="#FFFFFF" d="M100.212,1.648c2.967-0.308,5.889,1.681,5.897,4.93c0.006,3.164-2.661,5.344-6.063,5.035
				c-2.514-0.231-4.513-2.386-4.615-4.72c-0.085-2.071,1.104-3.929,2.895-4.772C98.853,1.871,99.486,1.724,100.212,1.648z"/>
			<path fill="#FFFFFF" d="M33.727,3.694c1.148-1.205,2.428-2.142,4.669-2.096c3.09,0.057,5.297,2.495,5.06,5.453
				c-0.213,2.657-2.577,4.911-6.06,4.563c-2.76-0.276-4.9-2.665-4.558-5.613C32.946,5.088,33.303,4.539,33.727,3.694z"/>
			<path fill="#FFFFFF" d="M49.516,3.326c0.388,0.038,0.773,0.072,1.112,0.157c3.736,4.725,7.145,9.76,10.895,14.474
				c0-4.876,0-9.755,0-14.631c0.426,0,0.853,0,1.279,0c0,5.628,0,11.256,0,16.885c-0.29-0.083-0.762,0.109-1.112,0
				c-0.413-0.127-1.092-1.354-1.445-1.834c-3.159-4.304-6.514-8.883-9.617-13.057c0,4.965,0,9.929,0,14.894
				c-0.391,0-0.779,0-1.167,0c0-5.575,0-11.153,0-16.729C49.455,3.411,49.45,3.335,49.516,3.326z"/>
			<path fill="#FFFFFF" d="M166.59,2.226c1.648,0.132,3.229-0.181,4.613,0c0.921,0.118,1.976,0.633,2.669,1.101
				c3.596,2.423,2.282,8.764-2,9.334c1.06,1.849,2.649,3.933,3.726,5.769c-0.353,0-0.704,0-1.058,0
				c-1.274-1.821-2.487-3.702-3.781-5.507c-1.073,0-2.148,0-3.223,0c-0.132,1.732-0.019,3.69-0.055,5.507c-0.315,0-0.633,0-0.946,0
				C166.572,13.046,166.463,7.521,166.59,2.226z"/>
			<path fill="#FFFFFF" d="M155.084,2.226c2.855,0,5.708,0,8.562,0c0,0.314,0,0.629,0,0.943c-2.538,0-5.079,0-7.615,0
				c-0.132,2.133-0.021,4.494-0.058,6.714c2.446,0.125,5.134,0.019,7.673,0.054c0,0.297,0,0.595,0,0.891c-2.538,0-5.079,0-7.615,0
				c0,2.221,0,4.441,0,6.661c2.427,0.122,5.095,0.018,7.615,0.053c0,0.296,0,0.593,0,0.891c-2.871,0-5.742,0-8.616,0
				c0-5.348,0-10.698,0-16.047C155.022,2.307,155.019,2.233,155.084,2.226z"/>
			<path fill="#FFFFFF" d="M150.693,2.226c0.311,0,0.632,0,0.945,0c0,5.4,0,10.802,0,16.205c-0.338,0-0.669,0-1.003,0
				c0-5.35,0-10.699,0-16.048C150.633,2.307,150.626,2.233,150.693,2.226z"/>
			<path fill="#FFFFFF" d="M127.676,2.226c1.648,0.132,3.228-0.181,4.614,0c0.92,0.118,1.975,0.635,2.67,1.101
				c3.594,2.423,2.279,8.764-2,9.334c1.058,1.849,2.649,3.933,3.725,5.769c-0.353,0-0.703,0-1.056,0
				c-1.277-1.821-2.488-3.702-3.782-5.507c-1.071,0-2.154,0-3.224,0c-0.131,1.732-0.02,3.69-0.056,5.507c-0.318,0-0.629,0-0.945,0
				C127.659,13.046,127.55,7.521,127.676,2.226z"/>
			<path fill="#FFFFFF" d="M113.281,2.226c0.295,0,0.592,0,0.888,0c0,1.846,0,3.817,0,5.767c0,1.991-0.216,4.025,0,5.768
				c0.179,1.453,1.28,2.785,2.447,3.357c3.035,1.489,6.386-0.502,6.78-3.146c0.137-0.907,0-1.966,0-2.937c0-2.864,0-5.952,0-8.811
				c0.353,0,0.706,0,1.057,0c0,2.043,0,3.913,0,5.767c0,1.899,0.201,3.814,0,5.768c-0.149,1.458-0.999,2.735-1.777,3.462
				c-1.852,1.724-5.619,1.761-7.505,0.263c-0.935-0.744-1.784-2.141-1.945-3.463c-0.241-1.893,0-3.899,0-5.821
				c0-1.93,0-3.858,0-5.822C113.218,2.307,113.213,2.233,113.281,2.226z"/>
			<path fill="#FFFFFF" d="M89.82,4.164c-0.185,0.261-0.51,0.394-0.724,0.629c-2.274-1.909-6.569-2.205-9.227-0.733
				c-2.507,1.388-4.58,4.92-3.39,8.547c0.558,1.7,2.192,3.593,3.834,4.354c2.419,1.121,5.967,0.868,8.005-0.47
				c0.122-0.081,0.57-0.57,0.723-0.578c0.267-0.014,0.431,0.479,0.777,0.525c-1.363,1.402-3.185,2.261-5.834,2.254
				c-2.391-0.006-4.091-0.74-5.56-1.887c-1.312-1.022-2.654-2.639-3.058-4.248c-1.341-5.34,2.534-10.117,7.895-10.488
				C86.297,1.859,88.356,2.773,89.82,4.164z"/>
			<path fill="#FFFFFF" d="M146.635,4.322c-0.312,0.04-0.509,0.184-0.778,0.262c-0.687-0.906-1.673-1.921-3.223-1.573
				c-0.983,0.22-2.053,1.152-2.115,2.203c-0.069,1.326,1.109,2.531,2.059,2.991c0.393,0.19,0.842,0.221,1.223,0.367
				c1.093,0.425,2.697,1.354,3.448,2.203c2.48,2.798,0.516,7.432-3.113,7.813c-3.33,0.353-5.425-1.24-5.891-3.932
				c0.151-0.26,0.595-0.24,0.886-0.368c0.354,2.705,3.388,4.331,6.171,2.938c1.511-0.756,2.777-2.982,1.724-5.089
				c-1.456-2.898-6.997-2.557-7.45-6.346c-0.241-2.017,1.176-3.587,3.114-3.775C144.884,1.8,145.946,2.985,146.635,4.322z"/>
			<path fill="#FFFFFF" d="M10.323,20.424c0.352,0,0.705,0,1.056,0c0.038-4.948-0.075-10.035,0.056-14.895
				c2.451,3.579,4.819,7.236,7.282,10.803C21.126,12.715,23.492,9.055,26,5.529c0,4.965,0,9.93,0,14.895c0.351,0,0.704,0,1.056,0
				c0-5.646,0-11.292,0-16.939c-0.37,0-0.743,0-1.112,0c-2.441,3.657-4.793,7.399-7.282,11.013c-2.402-3.677-4.81-7.35-7.227-11.013
				c-0.371,0-0.742,0-1.112,0"/>
			<path fill="#14A74E" d="M99.55,3.851c0.759,0,1.515,0,2.278,0c0,0.542,0,1.084,0,1.626c0.483,0.123,1.201,0.017,1.779,0.053
				c0,0.717,0,1.434,0,2.15c-0.578,0-1.15,0-1.724,0c-0.132,0.473-0.021,1.17-0.056,1.731c-0.746-0.033-1.63,0.067-2.28-0.053
				c0-0.542,0-1.085,0-1.627c-0.483-0.122-1.202-0.017-1.779-0.053c0-0.717,0-1.432,0-2.149c0.596,0,1.186,0,1.779,0
				C99.55,4.97,99.55,4.41,99.55,3.851z"/>
			<path fill="#14A74E" d="M36.951,3.851c0.762,0,1.52,0,2.28,0c0,0.559,0,1.119,0,1.679c0.593,0,1.186,0,1.78,0
				c0,0.717,0,1.434,0,2.15c-0.593,0-1.188,0-1.78,0c0,0.577,0,1.153,0,1.731c-0.76,0-1.519,0-2.28,0c0-0.578,0-1.154,0-1.731
				c-0.592,0-1.185,0-1.779,0c0-0.717,0-1.433,0-2.15c0.594,0,1.186,0,1.779,0C36.951,4.97,36.951,4.41,36.951,3.851z"/>
			<path fill="#010101" d="M167.591,3.168c1.312,0.141,2.529-0.19,3.67,0c1.331,0.221,2.719,1.396,3.279,2.413
				c1.398,2.543-0.536,5.835-3.057,6.242c-1.233,0.198-2.505-0.145-4.001,0c0-2.834,0-5.665,0-8.498
				C167.48,3.236,167.523,3.192,167.591,3.168z"/>
			<path fill="#010101" d="M128.674,3.168c1.313,0.141,2.533-0.19,3.674,0c1.329,0.221,2.723,1.396,3.28,2.413
				c1.395,2.546-0.537,5.835-3.058,6.242c-1.231,0.198-2.503-0.145-4.002,0c0-2.834,0-5.665,0-8.498
				C128.566,3.236,128.61,3.192,128.674,3.168z"/>
		</g>
		<path fill="#010101" d="M164.254,33.963c-0.636,0.575-1.326,1.146-2.058,1.68c-0.671,0.49-1.438,1.167-2.502,1.103
			c-0.158-0.797,0.365-1.493,0.778-2.101c0.776-1.14,1.626-2.186,2.777-3.197c0.589-0.518,2.163-1.547,2.613-0.472
			c0.396,0.943-0.49,1.933-0.945,2.358L164.254,33.963z"/>
		<path fill="#010101" d="M127.506,30.242c0.216-0.13,0.41-0.278,0.78-0.263c0.364,0.788-0.365,1.668-0.89,2.204
			c-0.546,0.558-1.398,1.222-2.392,0.89c0.393-1.012,1.29-1.54,1.945-2.306"/>
		<path fill="#010101" d="M118.002,34.175c-0.62,0.515-1.251,1.081-1.946,1.573c-0.639,0.455-1.39,1.066-2.392,0.998
			c0.035-1.49,1.086-2.563,2.116-3.777c0.413-0.484,0.879-0.985,1.5-1.521c0.471-0.401,1.355-1.115,2.061-0.944
			c1.091,0.266,0.391,2.371-0.281,2.672"/>
		<g>
			<path fill="#020202" d="M106.873,37.141c0,1.203-1.035,2.183-2.313,2.183c-1.278,0-2.315-0.981-2.315-2.183
				c0-1.203,1.037-2.183,2.315-2.183C105.838,34.958,106.873,35.938,106.873,37.141"/>
			<path fill="#4F4F4F" d="M106.296,37.141c0,0.903-0.777,1.638-1.736,1.638s-1.737-0.734-1.737-1.638
				c0-0.905,0.778-1.64,1.737-1.64S106.296,36.238,106.296,37.141"/>
			<path fill="#F3F3F3" d="M105.968,37.141c0,0.735-0.63,1.326-1.408,1.326c-0.776,0-1.411-0.591-1.411-1.326
				c0-0.734,0.635-1.328,1.411-1.328C105.338,35.813,105.968,36.406,105.968,37.141"/>
			<path fill="#CBCBCA" d="M105.557,37.141c0,0.519-0.448,0.941-0.997,0.941s-0.999-0.423-0.999-0.941
				c0-0.521,0.45-0.943,0.999-0.943S105.557,36.621,105.557,37.141"/>
			<path fill="#979696" d="M104.933,37.141c0,0.196-0.167,0.352-0.373,0.352c-0.209,0-0.376-0.156-0.376-0.352
				c0-0.194,0.167-0.354,0.376-0.354C104.767,36.786,104.933,36.948,104.933,37.141"/>
			<path fill="#020202" d="M93.525,37.141c0,1.203-1.036,2.183-2.313,2.183c-1.278,0-2.315-0.981-2.315-2.183
				c0-1.203,1.037-2.183,2.315-2.183C92.489,34.958,93.525,35.938,93.525,37.141"/>
			<path fill="#4F4F4F" d="M92.988,37.141c0,0.928-0.796,1.678-1.779,1.678c-0.979,0-1.78-0.75-1.78-1.678
				c0-0.926,0.798-1.681,1.78-1.681C92.193,35.461,92.988,36.215,92.988,37.141"/>
			<path fill="#F3F3F3" d="M92.62,37.141c0,0.735-0.631,1.326-1.409,1.326c-0.777,0-1.408-0.591-1.408-1.326
				c0-0.734,0.631-1.328,1.408-1.328C91.989,35.813,92.62,36.406,92.62,37.141"/>
			<path fill="#CBCBCA" d="M92.207,37.141c0,0.519-0.447,0.941-0.996,0.941c-0.552,0-0.996-0.423-0.996-0.941
				c0-0.521,0.444-0.943,0.996-0.943C91.761,36.199,92.207,36.621,92.207,37.141"/>
			<path fill="#979696" d="M91.587,37.141c0,0.196-0.167,0.352-0.375,0.352c-0.207,0-0.374-0.156-0.374-0.352
				c0-0.194,0.167-0.354,0.374-0.354C91.42,36.786,91.587,36.948,91.587,37.141"/>
			<path fill="#E5E5E5" d="M104.716,36.949c0.104,0.098,0.104,0.256,0,0.354c-0.101,0.097-0.27,0.097-0.375,0l-2.757-2.598
				c-0.103-0.1-0.103-0.257,0-0.353c0.105-0.101,0.274-0.101,0.377,0L104.716,36.949z"/>
			<path fill="#FED3AB" d="M100.775,28.94l0.393-0.028c0,0,0.25-0.463,0.832-0.161c0.58,0.306,0.228,0.636-0.118,0.678
				c-0.35,0.041-0.401-0.037-0.401-0.037s0.37-0.396-0.014-0.437c-0.381-0.038-0.401,0.248-0.401,0.248l-0.571,0.015L100.775,28.94z
				"/>
			<path fill="#72164A" d="M98.545,26.4c0.119,0.014,0.277-0.249,0.436,2.242l1.986,0.199c0,0-0.513,0.624-0.413,1.031
				c0,0-2.059-0.429-2.364-0.77C97.887,28.759,97.402,26.296,98.545,26.4"/>
			<path fill="#020202" d="M100.722,29.406c0,0,0.37-0.211,0.511,0.013c0.143,0.224-0.159,0.355-0.159,0.355
				S100.705,29.556,100.722,29.406"/>
			<polygon fill="#FED3AB" points="98.395,35.369 98.719,35.521 98.466,36.003 98.144,35.856 			"/>
			<path fill="#E5E5E5" d="M98.144,35.856c0,0-0.086,0.145-0.1,0.244c0,0,0.087,0.171,0.337,0.137l0.105-0.273
				C98.486,35.965,98.38,35.992,98.144,35.856"/>
			<path fill="#B4B3B4" d="M98.075,36.022c0,0,0.209,0.112,0.366,0.035c0,0,0.447-0.125,0.678,0.016
				c0.236,0.141,0.201,0.361,0.201,0.361s-0.899,0.214-1.36-0.104C97.959,36.326,97.973,36.039,98.075,36.022"/>
			<polygon fill="#FED3AB" points="97.156,35.156 97.479,35.305 97.203,35.842 96.878,35.694 			"/>
			<path fill="#042A46" d="M95.045,30.184c0,0-0.803,0.251-0.159,0.644c0.643,0.39,3.414,0.606,4.453,0.37
				c0,0-0.717,1.116-0.712,1.897c0.004,0.783-0.404,2.375-0.404,2.375s0.397,0.167,0.535,0.358c0,0,1.665-4.134,1.247-4.902
				c-0.419-0.771-2.979-1.029-2.979-1.029C96.803,30.068,95.819,30.136,95.045,30.184"/>
			<path fill="#40597A" d="M94.706,29.804c0,0-0.572,0.575,0,1.057c0.568,0.485,3.001,0.667,4.066,0.593
				c0,0-0.903,0.991-1.027,1.763c-0.131,0.773-0.722,1.995-0.722,1.995s0.361,0.231,0.463,0.433c0,0,2.271-3.541,1.985-4.36
				c-0.281-0.821-2.763-1.465-2.763-1.465C96.46,29.953,95.478,29.872,94.706,29.804"/>
			<path fill="#FED3AB" d="M95.238,29.097c0,0-0.443,0.481-0.531,0.708c0,0,1.724,0.196,2.008,0.019
				C96.712,29.822,95.867,28.932,95.238,29.097"/>
			<polygon fill="#FED3AB" points="98.846,26.271 99.385,25.662 100.021,25.966 99.365,26.664 			"/>
			<path fill="#E5E5E5" d="M103.249,24.051c0,0-0.019,1.775-0.76,2.048c0,0-3.487-1.096-2.44-3.413
				C101.102,20.37,102.76,23.323,103.249,24.051"/>
			<polygon fill="#FFFFFF" points="101.924,23.277 99.856,24.438 100.036,24.988 102.482,23.463 			"/>
			<polygon fill="#FFFFFF" points="102.678,23.637 100.278,25.428 101.326,26.354 103.249,23.955 			"/>
			<path fill="#9AC73E" d="M98.763,25.591l2.668,1.502c0,0,1.22-0.715,1.197-1.055c0,0-1.96-0.604-2.309-2.065
				c-0.372-1.553,3.007,0.238,3.007,0.238s0.469-2.728-3.247-2.566C97.408,21.647,98.763,25.591,98.763,25.591"/>
			<polygon fill="#353434" points="98.687,25.339 98.581,25.573 101.476,27.204 101.553,27.095 			"/>
			<path fill="#9AC73E" d="M98.42,25.919c0,0-0.648-0.096-1.464,0.433c-0.823,0.533-0.311,1.091-1.492,1.162
				c-1.176,0.071-1.455,0.849-1.662,1.331c0,0,0.9,0.192,1.435,0.481c0.537,0.293,1.742,0.558,1.742,0.558s0.88-0.986,1.362-1.227
				c0.504-0.255,1.194-1.03,1.233-1.455C99.614,26.78,99.989,26.549,98.42,25.919"/>
			<path fill="#FED3AB" d="M99.644,29.417l0.391,0.067c0,0,0.359-0.391,0.843,0.038c0.482,0.434,0.054,0.668-0.29,0.629
				c-0.352-0.042-0.384-0.13-0.384-0.13s0.465-0.296,0.105-0.427c-0.363-0.126-0.455,0.142-0.455,0.142l-0.558-0.115L99.644,29.417z
				"/>
			<path fill="#9E2166" d="M98.158,26.434c0.112,0.038,0.33-0.177-0.17,2.273l1.868,0.66c0,0-0.664,0.484-0.671,0.903
				c0,0-1.88-0.903-2.087-1.305C96.892,28.564,97.079,26.063,98.158,26.434"/>
			<path fill="#E5E5E5" d="M96.905,35.639c0,0-0.086,0.143-0.101,0.246c0,0,0.089,0.172,0.339,0.137l0.104-0.271
				C97.247,35.752,97.142,35.776,96.905,35.639"/>
			<path fill="#B4B3B4" d="M96.804,35.884c0,0,0.204,0.134,0.361,0.073c0,0,0.462-0.073,0.674,0.089
				c0.213,0.166,0.155,0.384,0.155,0.384s-0.916,0.116-1.34-0.253C96.655,36.177,96.703,35.891,96.804,35.884"/>
			<path fill="#020202" d="M100.514,29.864c0,0.177-0.154,0.323-0.344,0.323s-0.343-0.146-0.343-0.323
				c0-0.178,0.153-0.324,0.343-0.324S100.514,29.686,100.514,29.864"/>
			<path fill="#FCF6B8" d="M102.905,29.637c0,0.421-0.162,0.761-0.36,0.761c-0.196,0-0.357-0.342-0.357-0.761
				c0-0.422,0.163-0.763,0.357-0.763C102.742,28.874,102.905,29.215,102.905,29.637"/>
			<rect x="83.635" y="32.06" fill="#828180" width="9.534" height="0.259"/>
			<rect x="84.016" y="26.849" fill="#979696" width="0.598" height="5.207"/>
			<polygon fill="#0EA94F" points="92.612,26.283 84.656,26.283 84.656,26.849 84.056,26.849 84.056,32.06 93.209,32.06 
				93.209,26.849 			"/>
			<g>
				<path fill="#FFFFFF" d="M86.111,28.649h1.609v-1.554h1.801v1.554h1.694v1.605h-1.694v1.555H87.72v-1.555h-1.609V28.649z"/>
			</g>
			<path id="path3220" fill="#159B49" d="M89.416,29.15c0.014,0.045,0.022,0.094,0.022,0.15c0,0.099-0.025,0.194-0.064,0.281
				c0.06-0.041,0.114-0.083,0.165-0.121c0.185-0.137,0.359-0.182,0.497-0.191c0.072-0.005,0.192-0.057,0.192-0.12L89.416,29.15
				L89.416,29.15z M89.39,29.3c0-0.349-0.335-0.441-0.636-0.489c-0.302-0.045-0.649-0.147-0.649-0.449
				c0-0.151,0.096-0.299,0.268-0.299c0.249,0,0.292,0.178,0.294,0.204c0.001,0.024-0.071,0.045-0.081,0.093
				c-0.013,0.062,0.017,0.12,0.056,0.17c0.036,0.045,0.089,0.131,0.14,0.125c0.056-0.011,0.076-0.098,0.092-0.156
				c0.017-0.06,0.043-0.11,0.019-0.165c-0.033-0.07-0.066-0.034-0.092-0.083c-0.012-0.027-0.067-0.313-0.401-0.313
				c-0.234,0-0.445,0.179-0.465,0.387c-0.03,0.296,0.093,0.407,0.353,0.522c0.407,0.181,0.826,0.172,0.826,0.427
				c0,0.245-0.092,0.377-0.243,0.474c-0.024,0.02-0.077,0.036-0.127,0.054v0.175c0.01-0.002,0.02-0.002,0.032-0.007
				C89.117,29.921,89.39,29.629,89.39,29.3z M88.993,29.15h-1.98c0,0.063,0.12,0.115,0.192,0.12c0.136,0.01,0.313,0.055,0.497,0.189
				c0.188,0.139,0.402,0.321,0.848,0.342v0.533c0.024,0.008,0.054,0.009,0.087,0.009c0.011,0,0.033,0,0.056-0.001v-0.31v-0.231
				v-0.025c0.238-0.05,0.371-0.24,0.371-0.496C89.063,29.224,89.039,29.183,88.993,29.15z M88.549,30.743
				c0.04,0.022,0.089,0.033,0.144,0.039v-0.207c-0.049,0.001-0.096,0.001-0.144-0.003V30.743z M89.025,30.914
				c-0.079-0.058-0.177-0.069-0.355-0.089c-0.21-0.025-0.266-0.152-0.273-0.28c-0.056-0.021-0.106-0.043-0.148-0.074
				c-0.011,0.044-0.016,0.093-0.016,0.14c0,0.198,0.227,0.282,0.388,0.304c0.167,0.021,0.322,0.029,0.346,0.035
				c0.022,0.012,0.035,0.02,0.046,0.03c0.007,0.012,0.033,0.021,0.047,0.013C89.076,30.985,89.063,30.941,89.025,30.914z
				 M88.456,30.302c0.015-0.012,0.028-0.022,0.046-0.034v-0.12c-0.042,0.022-0.075,0.043-0.104,0.07
				C88.398,30.251,88.417,30.281,88.456,30.302z M88.914,30.246c0,0.095-0.131,0.141-0.279,0.141c-0.149,0-0.286-0.057-0.286-0.168
				c0-0.137,0.06-0.185,0.152-0.209v-0.193c-0.202,0.015-0.364,0.188-0.364,0.336c0,0.106,0.018,0.279,0.336,0.361
				c0.333,0.093,0.716-0.104,0.716-0.305c0-0.098-0.054-0.142-0.121-0.163c-0.056-0.02-0.126-0.04-0.329,0.017v0.124
				c0.033-0.011,0.059-0.016,0.09-0.016C88.887,30.171,88.914,30.187,88.914,30.246z M87.825,31.348h1.588
				c0-0.021-0.082-0.058-0.154-0.065c-0.072-0.004-0.171-0.007-0.193-0.024c-0.03-0.025-0.078-0.042-0.142-0.057
				c-0.066-0.015-0.232-0.025-0.232-0.114v-0.118c-0.026-0.003-0.054-0.006-0.082-0.01c-0.019-0.003-0.041-0.007-0.063-0.014v0.141
				c0,0.087-0.168,0.099-0.234,0.113c-0.062,0.017-0.112,0.029-0.14,0.057c-0.023,0.019-0.122,0.021-0.194,0.025
				C87.91,31.288,87.825,31.324,87.825,31.348z"/>
			<path fill="#9AC73E" d="M100.641,29.367c0,0,0.497-0.822,0.912-0.788c0.413,0.033,0.516,0.579,0.516,0.579
				s0.174-0.163,0.413-0.185c0,0-0.292,0.748,0,1.376c0,0-0.19,0.046-0.382-0.196c0,0-0.389,0.488,0.21,1.356
				c0.595,0.871,0.867,2.576,0.867,2.576s2.666-1.094,3.811,1.284c0,0-1.964-1.329-3.674,0c-1.707,1.327-0.96,1.312-2.044,1.631
				c0,0,0.129-0.356,0.302-0.556c0,0-0.669,0.813-1.742,0.813c-1.074,0-5.123-0.064-5.123-0.064s-0.442-0.049-0.462-0.338
				l-6.813-0.08c0,0-1.675,0.612,0.545-2.016c0,0,0.598-0.322,0.103-0.966c0,0,0.206-0.403,1.263-0.097c0,0,0.375-1.016-0.545-1.209
				v-0.175h4.371l0.02,0.208c0,0,2.638-0.401,3.837-0.208c0,0-2.167,1.771-0.372,3.859c0,0,0.581,0.58,4.15-0.011
				c0,0,0.538-0.304,0.193-2.482c-0.348-2.173,0.66-2.06,0.66-2.06L100.641,29.367z"/>
			<path fill="#020202" d="M97.329,31.439c0.39,0.037,0.613,1.055-0.425,0.983c-1.037-0.063-2.993,0.006-2.993,0.006
				s-1.243-1.208-0.171-2.093C94.813,29.453,93.319,31.04,97.329,31.439"/>
		</g>
	</g>
</g>
</svg>
