<?xml version="1.0" encoding="utf-8"?>
<!-- Generator: Adobe Illustrator 13.0.0, SVG Export Plug-In . SVG Version: 6.00 Build 14948)  -->
<!DOCTYPE svg PUBLIC "-//W3C//DTD SVG 1.1//EN" "http://www.w3.org/Graphics/SVG/1.1/DTD/svg11.dtd">
<svg version="1.1" id="Layer_1" xmlns="http://www.w3.org/2000/svg" xmlns:xlink="http://www.w3.org/1999/xlink" x="0px" y="0px"
	 width="186.79px" height="160.275px" viewBox="0 0 186.79 160.275" enable-background="new 0 0 186.79 160.275"
	 xml:space="preserve">
<path fill="#F79145" d="M151.499,120.684c-0.02,0-0.037,0-0.056,0c0.138,0.564-0.003,1.136-0.199,1.523
	c-0.553,1.108-2.905,4.296-4.154,5.542c-1.246,1.247-2.909,3.187-4.155,4.017c-1.248,0.832-8.729,8.312-9.975,10.114
	c-1.248,1.799-3.188,3.325-5.126,3.877c-1.94,0.556-4.296,0.971-7.48,2.357c-3.188,1.384-15.101,3.046-17.595,4.155
	c-2.493,1.107-4.433,2.909-8.59,3.602c-4.155,0.691-13.299-6.373-21.472-8.313c-4.19-0.993-7.755-2.327-10.792-3.537
	c8.021,3.953,13.84,6.447,18.827,9.217c4.987,2.772,7.481,4.851,11.638,4.434c4.155-0.414,6.372-3.324,10.528-4.154
	c4.155-0.832,13.161-2.771,15.239-3.466c2.077-0.692,4.57-2.214,6.233-2.214s4.018-0.142,7.203-3.328
	c3.187-3.186,8.034-6.568,10.113-7.787c2.078-1.216,1.387-2.116,5.265-3.883c3.88-1.766,9.835-6.062,10.529-6.614
	C158.172,125.671,158.125,120.822,151.499,120.684"/>
<path fill="#FFDCCC" d="M151.244,122.208c0.122-0.243,0.224-0.557,0.25-0.896c0-0.002,0-0.002,0-0.006
	c-0.102-0.554-0.941-0.346-1.253,0c-0.312,0.347-1.247,1.87-2.631,3.742c-1.386,1.87-1.074,2.319-0.23,2.396
	C148.67,126.048,150.732,123.235,151.244,122.208"/>
<path fill="#FFDCCC" d="M152.372,129.755c-0.605-0.309-0.605-0.932-0.605-0.932s3.879-2.807,4.432-3.186
	c0.554-0.384,1.707,0.268,1.282,0.589C157.055,126.547,152.372,129.755,152.372,129.755"/>
<g opacity="0.49">
	<g>
		<defs>
			<rect id="SVGID_1_" x="-47.274" y="108.007" width="198.773" height="31.76"/>
		</defs>
		<clipPath id="SVGID_2_">
			<use xlink:href="#SVGID_1_"  overflow="visible"/>
		</clipPath>
		<path clip-path="url(#SVGID_2_)" fill="#F9C7AE" d="M128.217,130.715c-2.592,2.019-4.4,4.205-4.4,4.205s-3.88,0.726-7.62,1.095
			c-3.741,0.368-5.681,0.601-7.481,1.571c-1.802,0.968,0,0-3.602-0.267c-3.603-0.27-8.729-2.644-10.392-2.399
			c-1.661,0.243-1.938-0.659-1.938-1.768c0-0.464-0.072-1.146-0.158-1.783c-0.178,0.047-0.257,0.078-0.257,0.078
			s0.415,2.355,0.415,3.463c0,1.11,0.277,2.012,1.938,1.768c1.663-0.242,6.789,2.131,10.392,2.398
			c3.602,0.269,1.8,1.237,3.602,0.269c1.801-0.97,3.74-1.203,7.481-1.572c3.74-0.368,7.62-1.095,7.62-1.095s2.492-3.014,5.815-5.23
			c3.327-2.216,5.959-3.186,5.959-3.186s4.987-7.204,10.667-7.618c3.258-0.238,4.6,0.524,5.049,1.43
			c0.494-1.173,0.411-3.588-5.049-3.19c-5.68,0.417-10.667,7.621-10.667,7.621s-1.619,0.596-3.917,1.922
			C131.032,129.305,129.958,130.113,128.217,130.715"/>
		<path clip-path="url(#SVGID_2_)" fill="#F9C7AE" d="M38.994,113.854c10.71-1.777,13.476-3.324,19.156-3.88
			c5.681-0.553,13.576-0.139,23.967,2.909c10.389,3.049,8.45,2.356,17.315,4.85c8.867,2.494,11.223,0.554,21.197,0.969
			c8.888,0.371,11.393,3.711,11.835,6.099c0.055-0.317,0.079-0.628,0.079-0.931c0-2.354-1.938-6.51-11.914-6.928
			c-9.975-0.416-12.33,1.524-21.197-0.969c-8.865-2.494-6.927-1.799-17.315-4.848c-10.391-3.049-18.286-3.465-23.967-2.909
			c-5.68,0.553-8.445,2.103-19.156,3.877c-7.52,1.247-9.521,5.267-20.377,7.065c-10.855,1.802-65.892,4.849-65.892,4.849v1.761
			c0,0,55.036-3.049,65.892-4.85C29.473,119.117,31.475,115.101,38.994,113.854"/>
	</g>
</g>
<path fill="#FFDCCC" d="M121.114,119.699c0.977,2.877,0.762,4.898,0.658,6.075s-0.312,1.837,0.935,1.803
	c1.248-0.037,3.845,0.036,5.127,0c1.281-0.037,4.364-0.488,4.502-3.935c0.14-3.443-3.498-4.585-4.953-4.655
	C125.928,118.919,120.92,119.128,121.114,119.699"/>
<path fill="#DDA58C" d="M86.659,135.061c1.801,1.058,1.039-1.61,1.87,0c0.831,1.611,2.078,1.421,2.426,0.054
	c0.198-0.789,1.149-1.101,1.87-1.34c-0.089-2.193-0.456-4.086-0.456-4.086c-2.771,0.76-6.304,1.799-7.967,3.151
	C82.739,134.192,84.858,134.005,86.659,135.061"/>
<path fill="#23B169" d="M146.133,118.605c-26.612,27.43-70.442,28.123-97.902,1.551c-27.458-26.569-28.14-70.346-1.533-97.773
	c26.612-27.43,70.442-28.122,97.901-1.549C172.06,47.405,172.746,91.18,146.133,118.605"/>
<path fill="#FFFFFF" d="M129.678,10.01c-0.181-0.101-0.354-0.194-0.514-0.276l-0.471-0.273l0.281,0.144l0.05,0.029l0.013,0.009
	l0.722,0.391c0.013,0.005,0.028,0.01,0.094,0.048c0.08,0.049,0.164,0.102,0.245,0.148l-0.005,0.009
	C129.957,10.165,129.818,10.089,129.678,10.01 M127.15,8.694l-0.68-0.334c0.146,0.068,0.286,0.135,0.421,0.2
	c0.082,0.041,0.12,0.055,0.154,0.072c0.251,0.123,0.51,0.249,0.76,0.379C127.591,8.905,127.371,8.801,127.15,8.694 M125.773,8.031
	l-0.485-0.237l-0.324-0.136c-0.337-0.153-0.675-0.3-1.017-0.451c-0.088-0.04-0.172-0.081-0.257-0.12
	c0.285,0.115,0.582,0.252,0.705,0.306l-0.131-0.059c0.112,0.054,0.23,0.106,0.348,0.159l0.11,0.045
	c0.1,0.045,0.191,0.087,0.293,0.132l-0.031-0.015c0.227,0.1,0.441,0.198,0.648,0.296l0.068,0.027l0.77,0.382
	C126.242,8.251,126.011,8.14,125.773,8.031 M163.397,53.066c-0.082-0.346-0.167-0.692-0.253-1.037l0.288,0.975
	c0.002,0.017,0.002,0.032,0.002,0.05c-0.002,0.022-0.014,0.046-0.023,0.07L163.397,53.066 M162.706,50.598l-0.353-1.258
	c-0.225-0.691-0.513-1.479-0.811-2.274l-0.227-0.687l-0.672-1.701c0.761,1.745,1.028,2.576,1.709,4.663l0.505,1.712L162.706,50.598
	 M136.922,14.557c-0.869-0.621-1.75-1.222-2.642-1.802l-0.087-0.06c0.931,0.603,1.846,1.228,2.742,1.872
	C136.933,14.564,136.929,14.56,136.922,14.557 M133.59,12.31c-0.028-0.021-0.057-0.039-0.087-0.06v-0.005
	c-0.059-0.039-0.059-0.039-0.066-0.039l-0.011-0.018c0.184,0.122,0.338,0.219,0.504,0.323l0.264,0.184
	C133.995,12.567,133.792,12.437,133.59,12.31 M133.93,12.511l-0.013-0.004l0.02,0.012C133.935,12.516,133.932,12.515,133.93,12.511
	 M133.726,12.4c1.082,0.688,2.15,1.407,3.196,2.157C135.901,13.838,134.719,13.07,133.726,12.4 M165.43,64.521l0.008,0.074v-0.006
	L165.43,64.521 M165.543,66.033l0.001,0.042v0.011C165.543,66.068,165.543,66.051,165.543,66.033 M165.534,65.951v0.003
	c-0.005-0.08-0.012-0.161-0.015-0.238v-0.042c0.003,0.126,0.015,0.249,0.024,0.359L165.534,65.951 M165.49,65.359
	c-0.003-0.03-0.003-0.062-0.006-0.094c-0.008-0.105-0.013-0.213-0.019-0.322c0.008,0.158,0.021,0.322,0.036,0.483L165.49,65.359
	 M165.45,64.772c0.006,0.058,0.01,0.116,0.016,0.171C165.459,64.885,165.456,64.83,165.45,64.772 M164.958,60.693l-0.075-0.686
	l0.141,0.963v-0.005c0.031,0.199,0.051,0.403,0.072,0.604v0.049C165.054,61.308,165.011,60.998,164.958,60.693 M163.411,53.123
	c0.023-0.041,0.028-0.08,0.021-0.12c0.053,0.266,0.118,0.542,0.181,0.829L163.411,53.123 M50.689,18.631
	c-0.508,0.439-1,0.884-1.479,1.329C49.708,19.484,50.148,19.086,50.689,18.631 M70.028,16.987c0.065-0.093,0.133-0.183,0.195-0.275
	c0.101-0.161,0.189-0.325,0.292-0.484l-0.427-0.056l-0.677,0.285l-0.33,0.694c0.203-0.003,0.402-0.012,0.604-0.017L70.028,16.987
	 M68.924,16.101l0.05-0.035l0.151-0.266c-0.108,0.054-0.218,0.132-0.336,0.186c-0.063,0.029-0.063,0.029-0.222,0.065
	c-0.073,0.018-0.178,0.05-0.59,0.251c-0.096,0.049-0.199,0.094-0.297,0.139c0.031,0.065,0,0.15,0.079,0.194
	c0.025,0.014,0.159-0.005,0.225-0.02C68.402,16.499,68.731,16.25,68.924,16.101 M80.892,6.471l0.635-0.135l0.003-0.313l-0.633-0.022
	c-0.157,0.005-0.313,0.009-0.472,0.012l-0.493,0.365l-0.317,0.292l0.711,0.023L80.892,6.471 M132.103,11.426
	c-0.229-0.144-0.464-0.269-0.694-0.401l-0.124-0.039c0.144,0.085,0.287,0.17,0.425,0.254c0.303,0.183,0.599,0.365,0.896,0.55
	l0.065,0.016c-0.094-0.071-0.2-0.125-0.293-0.191l0.014,0.003C132.208,11.49,132.208,11.49,132.103,11.426 M128.948,9.594
	c-0.237-0.127-0.479-0.252-0.724-0.377c0.126,0.069,0.258,0.135,0.386,0.202c-0.135-0.07-0.273-0.14-0.409-0.211l-0.045-0.027
	c0.092,0.051,0.176,0.098,0.268,0.147l-0.087-0.042c-0.558-0.293-1.147-0.586-1.459-0.746l0.029,0.017
	c-0.444-0.222-0.869-0.421-1.211-0.58l2.998,1.484l0.275,0.144L128.948,9.594 M129.747,10.022c-0.068-0.033-0.131-0.07-0.198-0.105
	l-0.098-0.056l-0.413-0.218l0.728,0.391L129.747,10.022 M109.103,2.948l-0.088-0.022l0.093,0.025L109.103,2.948 M164.822,59.787
	c-0.365-2.328-0.844-4.618-1.438-6.863c-0.131-0.164-0.532-0.333-1.224-0.505c-0.899-0.224-2.238-0.438-3.97-0.65
	c0,0.009,0.137,1.033,0.067,1.272l-0.019,0.107l-0.027,0.075l-0.044-0.005c-0.076,0.001-0.163,0.038-0.217,0.081l-0.059-0.005
	l-0.04,0.025l-0.036,0.049l-0.091,0.084l-0.088-0.105l-0.077-0.125c-0.093-0.087-0.109-0.088-0.125-0.09
	c0,0-0.321-0.076-0.438-0.178l-0.056-0.006l-0.054-0.006l0.01,0.126c0.272,0.239,0.272,0.239,0.438,0.296
	c0.114,0.115,0.131,0.188,0.146,0.265l0.029,0.137c0.043,0.097,0.108,0.22,0.157,0.314c0.023,0.096,0.056,0.223,0.069,0.318
	l0.029,0.106l0.016,0.136c0.101,0.557,0.413,1.032,0.607,1.556c0.254,0.581,0.267,0.6,0.432,0.813
	c0.066,0.021,0.097,0.023,0.131,0.03l0.123-0.021c0.05-0.17-0.01-0.347,0.037-0.517l0.099,0.178c1.277,3.122,1.277,3.122,1.34,3.581
	c0.012,0.096,0.02,0.134,0.021,0.171c0.02,1.289,0.825,2.329,1.112,3.534c0.149,0.669-0.106,1.375,0.204,2.027
	c0.284,0.6,0.475,1.13,0.569,1.565l0.041,0.174l0.708,4.645c-0.027,0.757-0.059,1.443-0.108,2.122
	c0.007,0.337,0.135,0.874,0.223,1.021c0.075,0.012,0.177,0.013,0.254,0.005c0.143-0.3,0.143-0.647,0.298-0.943
	c0.175-0.058,0.263-0.036,0.35-0.012l0.021,0.002l0.021,0.12c0.043-0.112,0.095-0.264,0.136-0.375
	c0.074-0.407,0.184-0.859,0.568-1.077c0.024-0.123,0.051-0.292,0.071-0.415c0.048-0.301,0.34-1.395,0.343-1.397l0.139,0.117
	c0.016-0.83,0.034-1.3,0.034-1.306l0.062,0.056c0.004-0.336,0.004-0.673,0.009-1.009c-0.029-2.208-0.167-4.286-0.39-6.336
	l0.007,0.128c-0.043-0.341-0.083-0.68-0.138-1.02c-0.052-0.443-0.104-0.826-0.157-1.21c-0.022-0.121-0.041-0.24-0.066-0.361
	c0.044,0.504,0.044,0.504,0.202,1.972l-0.073-0.097l-0.026-0.018c-0.021-0.071-0.053-0.168-0.071-0.235l-0.038-0.041
	c-0.002,0.222-0.017,0.439-0.004,0.661c-0.172-0.275-0.259-0.988-0.222-1.146l0.005-0.123c0.037-0.08,0.037-0.079,0.045-0.078
	c0.025,0.072,0.063,0.164,0.116,0.218c0.03-0.146,0.038-0.184-0.049-0.501l-0.02-0.015l-0.067,0.02
	c-0.091-0.128-0.103-0.307-0.271-0.383c-0.041-0.063-0.058-0.067-0.069-0.073c-0.057-0.381-0.11-0.763-0.168-1.141
	c-0.354-1.411-1.05-2.732-1.078-4.221c0.102,0.031,0.318,0.104,0.809,2.083c0.32,1.289,0.614,1.879,0.725,2.099l0.041,0.043
	l0.018,0.012l0.02-0.116c0-0.065,0.008-0.06,0.008-0.056c0.045,0.129,0.045,0.129,0.098,0.39L164.822,59.787 M163.383,52.924
	c-2.414-9.169-6.672-17.597-12.362-24.856l1.657,2.204c2.098,2.913,2.098,2.913,5.561,9.112c1.632,3.22,1.632,3.22,4.114,9.96
	l1.075,3.659L163.383,52.924 M137.648,21.216c0.171,0.012,0.343,0.026,0.507,0.04l-0.127-0.045l-0.06,0.002l-0.017-0.007
	c-0.044-0.021-0.07-0.04-0.191-0.127l-0.122-0.149l-0.046-0.013l-0.065,0.003l-0.064-0.007l-0.034,0.042l-0.005,0.039l0.108,0.142
	l0.038,0.024L137.648,21.216 M125.808,9.707c-0.253-0.161-0.505-0.314-0.762-0.469l-0.026-0.011l-0.005,0.002l-0.01,0.016h-0.003
	l-0.119-0.012l0.09,0.053c0.214,0.133,0.429,0.268,0.64,0.402C125.674,9.695,125.745,9.704,125.808,9.707 M138.155,21.256
	c3.379,0.273,5.839,0.573,7.107,0.886c0.48,0.121,0.771,0.238,0.888,0.354l-0.337-0.343c-5.164-4.845-5.164-4.845-8.041-6.984
	l-3.846-2.662l-0.019-0.01c-0.197-0.124-0.879-0.555-1.332-0.833c0.28,0.173,0.308,0.189,0.628,0.401v0.006l0.263,0.183l0.039,0.04
	c0.526,0.465,1.271,0.647,1.661,1.281l0.027,0.033c-0.464-0.296-0.93-0.583-1.382-0.894l0.096-0.005
	c-0.197-0.125-0.386-0.25-0.576-0.375c-0.202-0.121-0.202-0.121-0.284-0.16c-0.174-0.114-0.357-0.22-0.535-0.325l-0.05,0.001
	c-0.224-0.131-0.224-0.131-0.323-0.173c-0.06-0.003-0.078-0.007-0.095-0.01c0.083,0.079,0.219,0.163,0.348,0.25
	c0.07,0.026,0.157,0.066,0.219,0.097c0.377,0.242,0.735,0.478,1.091,0.72c0.643,0.457,0.643,0.457,0.72,0.497
	c0.107,0.061,0.187,0.108,0.54,0.333c0.066,0.044,0.096,0.071,0.128,0.087c0.266,0.234,0.568,0.422,0.852,0.632
	c-0.071-0.029-0.161-0.069-0.23-0.101c-0.138-0.095-0.199-0.138-0.257-0.181c-0.062-0.041-0.146-0.094-0.209-0.136l-0.095,0.056
	c0.242,0.228,0.449,0.486,0.69,0.714v0.055c0.457,0.338,0.944,0.632,1.374,0.995l-0.016-0.014c-0.146-0.021-0.194-0.035-0.349-0.109
	l-0.051-0.006c-0.212-0.093-0.576-0.245-1.156-0.658c0.345,0.457,0.427,0.496,0.812,0.695c0.162,0.137,0.162,0.137,0.277,0.215
	c0.083,0.057,0.104,0.06,0.123,0.061c0.181,0.021,0.405,0.151,0.677,0.398c-0.019,0.063-0.104,0.053-0.186,0.041l0.102,0.096
	c-0.515-0.086-1.551-0.934-1.942-1.252c-0.129-0.063-0.181-0.074-0.237-0.078l-0.538-0.424c-0.895-0.72-1.961-1.158-2.886-1.83
	c0.383,0.144,1.697,0.795,1.709,0.798c0.194,0.048,0.306,0.061,0.414,0.076c0.223,0.091,0.425,0.224,0.654,0.297
	c0.057,0.008,0.072,0.01,0.086,0.011l0.043,0.008c-0.021-0.068-0.028-0.164-0.031-0.234c-1.233-1.198-3.319-2.092-3.719-2.259
	c-0.21-0.118-0.21-0.118-0.43-0.218c-0.268-0.14-0.301-0.144-0.446-0.168c-0.059,0.035-0.065,0.035-0.073,0.032
	c-0.238-0.118-0.483-0.232-0.718-0.36l-0.137-0.017c0.226,0.14,0.226,0.14,0.41,0.273c-0.059-0.001-0.076-0.004-0.097-0.004
	c-0.146-0.07-0.146-0.07-0.541-0.341c-0.064-0.042-0.093-0.062-0.124-0.081c-0.241-0.106-0.241-0.106-0.68-0.371l-0.144-0.015
	l0.098,0.096c-0.042-0.005-0.042-0.005-0.707-0.231c-0.146-0.068-0.214-0.106-0.276-0.147l0.114,0.005
	c-0.092-0.064-0.215-0.148-0.305-0.213c-0.781-0.41-1.259-0.496-1.262-0.496c0.171,0.103,0.346,0.208,0.514,0.311
	c-0.215-0.057-0.332-0.129-0.449-0.201c-0.062-0.039-0.143-0.096-0.193-0.142c-0.116-0.08-0.168-0.109-0.219-0.139
	c-0.116-0.011-0.237-0.022-0.361-0.037c0.494,0.29,0.494,0.29,0.638,0.396c0.099,0.064,0.16,0.1,0.217,0.133l0.121,0.068
	l-0.046,0.009c-0.438-0.293-0.473-0.31-0.762-0.45c-0.107-0.027-0.146-0.033-0.185-0.035l-0.425-0.255l-0.109-0.028l0.025,0.018
	l0.08,0.08l-0.103,0.052c0.129,0.112,0.28,0.203,0.415,0.313l-0.014,0.053c-0.081-0.026-0.217-0.063-0.452-0.237
	c-0.132-0.078-0.198-0.083-0.266-0.089l-0.063,0.098c0.161,0.206,0.468,0.361,0.905,0.464c0.141,0.081,0.257,0.163,0.383,0.24
	l-0.126-0.007c-0.179-0.087-0.384-0.102-0.575-0.158c-0.067-0.007-0.105-0.012-0.149-0.015c0.571,0.375,0.582,0.386,0.725,0.52
	c-0.511-0.203-0.989-0.485-1.488-0.711c-0.006,0.079,0.093,0.148,0.197,0.213c0.074,0.048,0.755,0.447,0.896,0.679
	c-0.153,0.041-0.157,0.041-0.624-0.302l0.076,0.107l-0.084,0.074c0.064,0.055,0.151,0.13,0.224,0.187
	c0.161,0.105,0.354,0.142,0.516,0.26c0.091,0.069,0.139,0.106,0.188,0.144l0.085,0.082c-0.309-0.075-1.127-0.577-1.161-0.597
	c0.035,0.116,0.186,0.228,0.338,0.339c-0.076,0.004-0.166,0.005-0.241,0.004c0.019,0.057,0.019,0.057,0.355,0.299
	c-0.062,0.031-0.151,0.059-0.219,0.071c0.031,0.057,0.072,0.136,0.104,0.194l-0.044,0.023c0.044,0.075,0.12,0.164,0.179,0.225
	l-0.082-0.006l0.057,0.101c0.085,0.044,0.137,0.047,0.19,0.053c-0.014-0.065,0-0.161,0.028-0.216l0.122,0.002l-0.018-0.113
	c0.056-0.04,0.118-0.108,0.149-0.167c0.354,0.029,0.423,0.08,0.606,0.253c-0.069-0.01-0.159-0.012-0.228-0.016l0.085,0.077
	l-0.114,0.026c0.099,0.229,0.657,0.747,0.722,0.806l-0.128,0.014c0.008,0.012,0.909,1.499,1.093,1.672l-0.127-0.108
	c-0.057,0.258-0.057,0.258-0.03,0.329c-0.059,0.033-0.129,0.099-0.17,0.153c0.055,0.063,0.129,0.15,0.183,0.213l0.117,0.036
	c0.139-0.023,0.196-0.02,0.265-0.016c0.18,0.211,0.18,0.211,0.25,0.28c-0.026,0.065-0.048,0.157-0.06,0.228l-0.115,0.024
	c0.045,0.188,0.029,0.21-0.067,0.314c0.057,0.118,0.057,0.118,0.183,0.322l-0.086,0.092c-0.089-0.04-0.203-0.095-0.292-0.136
	c-0.111-0.011-0.173-0.016-0.239-0.02l0.173,0.237c0.075,0.061,0.163,0.143,0.238,0.204l-0.03,0.123l-0.118,0.041
	c-0.052-0.003-0.059-0.003-0.059-0.003h-0.011h-0.004h-0.008h-0.009l-0.006-0.003h-0.005c-0.097,0.111-0.097,0.111-0.139,0.313
	h-0.114l-0.026,0.113c0.136,0.151,0.408,0.463-0.019,0.459c-0.037,0.06-0.077,0.152-0.082,0.218
	c0.292,0.287,0.292,0.287,0.324,0.379l-0.076,0.09c0.115,0.277,0.381,0.412,0.544,0.645c-0.001,0.087-0.043,0.084-0.078,0.082
	l0.031,0.11c0.079,0.128,0.149,0.228,0.22,0.326c0.1,0.007,0.207,0.013,0.308,0.018c0.327-0.064,0.439,0.286,0.444,0.288
	l-0.059,0.105c0.063,0.105,0.131,0.215,0.203,0.316l-0.099,0.067c0.132,0.313,0.132,0.313,0.721,0.384
	c0.152,0.23,0.152,0.23,0.216,0.357l-0.049,0.111c0.703,0.035,1.389,0.07,2.056,0.108c-0.022-0.129-0.04-0.259-0.077-0.385
	l0.099-0.055l0.109,0.04c0.012-0.165-0.061-0.266-0.135-0.367c0.452,0.06,0.927,0.776,0.933,0.782
	c1.176,0.105,2.267,0.171,3.291,0.241l0.021-0.111l0.111-0.021c-0.03-0.289-0.291-0.785-0.291-0.789
	c-0.062-0.075-0.113-0.129-0.155-0.18c-0.204-0.221-0.246-0.271-0.657-0.234c-0.307-0.336-0.768-0.503-1.027-0.888
	c-0.34-0.396-0.682-0.785-1.028-1.168c0-0.41-0.426-0.604-0.502-0.976l0.124-0.013c0.022-0.119,0.036-0.189-0.136-0.44
	c0.06-0.035,0.146-0.059,0.212-0.053c-0.12-0.248-0.12-0.248-0.263-0.419l0.012-0.113l0.116-0.013
	c-0.073-0.7-0.827-0.715-1.157-1.154l0.035-0.11c-0.16-0.21-0.378-0.417-0.462-0.497c0.063-0.029,0.166-0.042,0.235-0.021
	c0.062,0.009,0.066,0.009,0.066,0.009h0.006h0.002l0.009,0.003h0.002h0.004h0.006c0.132,0.079,0.341,0.211,0.618,0.397l-0.039-0.115
	c0.157-0.007,0.162-0.007,0.72,0.376c0.207,0.18,0.366,0.317,0.524,0.457c-0.072-0.006-0.146-0.013-0.222-0.02
	c0.751,0.66,0.828,0.729,0.854,0.981c-0.071-0.015-0.167-0.042-0.236-0.069l-0.086,0.081c0.909,1.525,0.909,1.525,1.812,2.409
	c0.113,0.119,0.158,0.168,0.206,0.218c0.006,0.008,1.513,1.149,2.214,1.414l0.049,0.002c0.01-0.076,0.017-0.176,0.014-0.253
	c0.165-0.037,0.318,0.09,0.483,0.055c-0.016-0.063-0.033-0.147-0.049-0.214c0.223-0.049,0.433-0.031,0.637-0.008l-0.024-0.117
	c0.087-0.016,0.097-0.012,0.097-0.012c0.186,0.122,0.322,0.29,0.521,0.388c0.127,0.014,0.243,0.024,0.368,0.037l0.178,0.156
	l0.062,0.103c-0.058,0.01-0.058,0.01-0.341,0.005c0,0.183,0,0.183,0.31,0.798c-0.307-0.029-0.498-0.292-0.774-0.387l-0.078,0.097
	c-0.129-0.005-0.129-0.005-0.349-0.069l-0.073,0.086l0.018,0.112c-0.069-0.02-0.166-0.052-0.227-0.09l-0.1,0.067
	c0.135,0.257,0.245,0.435,0.251,0.436L138.155,21.256 M131.289,20.805c-0.667-0.041-1.353-0.076-2.056-0.111l0.009,0.019
	c0.017,0.104,0.017,0.104,0.037,0.133c0.041,0.063,0.114,0.095,0.159,0.156l0.075,0.117c0.378,0.016,0.378,0.016,0.395,0.02
	l0.098,0.078c0.031,0.032,0.031,0.032,0.318,0.245l0.182-0.072c0.155,0.048,0.282,0.165,0.457,0.133c0,0,0.184-0.033,0.132-0.175
	l0.018-0.076c0.142,0.009,0.142,0.009,0.182-0.023l0.042-0.123c-0.003-0.068-0.057-0.115-0.057-0.183L131.289,20.805 M135.5,21.067
	c-1.017-0.08-2.107-0.146-3.248-0.213c0.174,0.23,0.465,0.332,0.639,0.561l0.059,0.077l0.011,0.171
	c0.032,0.034,0.267,0.337,0.483,0.461c0.404,0.225,0.404,0.225,0.526,0.373l0.112,0.16l0.107,0.156
	c0.294,0.377,0.592,0.572,0.78,0.67c0.045,0.019,0.156,0.074,0.261,0.246c0.081,0.126,0.087,0.278,0.158,0.405l0.05,0.083
	c0.082,0.116,0.186,0.218,0.267,0.332c0.272,0.018,0.543,0.035,0.808,0.051c-0.333-0.573-0.333-0.573-0.278-0.719
	c0.024-0.015,0.024-0.015,0.109-0.005l0.122,0.012c0.113,0.029,0.188,0.162,0.327,0.128c0.04-0.078-0.054-0.16,0.011-0.234
	c0.029-0.031,0.062-0.027,0.192-0.016c-0.099-0.163-0.214-0.324-0.329-0.486c0.144,0.009,0.282,0.017,0.424,0.028
	c-0.16-0.248-0.16-0.248-0.287-0.401c-0.067-0.003-0.133-0.009-0.204-0.014c-0.197,0.062-0.285-0.132-0.434-0.181
	c-0.03-0.092-0.059-0.18-0.088-0.27c-0.151-0.423-0.513-0.724-0.661-1.147l0.041-0.042l-0.021-0.146L135.5,21.067 M163.383,52.924
	c-2.414-9.169-6.672-17.597-12.362-24.856c-1.436-1.694-3.348-3.959-4.871-5.572c-0.116-0.116-0.407-0.234-0.888-0.354
	c-1.269-0.313-3.729-0.612-7.107-0.886c-0.164-0.013-0.336-0.027-0.507-0.04c0.114,0.045,0.114,0.045,0.124,0.046h0.011l0.007,0.002
	h0.001h0.006h0.01h0.004l0.158,0.113c-0.113,0.01-0.262,0.077-0.347,0.165c0.254,0.408,0.511,0.45,0.835,0.503
	c0.04-0.107,0.04-0.282-0.011-0.39c0.595,0.081,1.406,1.019,1.411,1.029c-0.113,0.236-0.113,0.236,0.107,0.545
	c0.038,0.14-0.017,0.137-0.076,0.131c-0.093-0.033-0.093-0.033-0.763-0.587l-0.094-0.007c-0.075-0.095-0.173-0.223-0.248-0.321
	c-0.066-0.004-0.129-0.009-0.189-0.015c0.621,1.518,0.884,2.146,1.589,2.816l0.064,0.165c-0.863-0.21-0.863-0.21-0.96-0.202
	c0.066,0.409,0.468,0.561,0.672,0.863l-0.078,0.036c-0.385-0.246-0.738-0.527-1.114-0.779c-0.085,0.04-0.085,0.04-0.474,0.793
	c-0.125-0.009-0.293-0.011-0.418-0.007c-0.459,0.526-0.944-0.304-1.102-0.578c-0.081-0.004-0.16-0.01-0.239-0.015
	c-0.008,0.058-0.021,0.13-0.036,0.19c-0.065-0.009-0.148-0.015-0.21-0.021c-0.17-0.032-0.249-0.038-0.328-0.044
	c-0.058,0.008-0.139,0.015-0.2,0.024c0.055,0.113,0.137,0.266,0.198,0.376c-0.018,0.13-0.099,0.125-0.183,0.121
	c-0.331-0.068-0.349-0.089-0.62-0.471l-0.141-0.019c-0.083-0.004-0.166-0.01-0.248-0.016c-0.06-0.099-0.118-0.195-0.175-0.293
	l-0.128-0.171c0.12-0.156,0.279-0.146,0.438-0.137c0.27,0.076,0.502,0.244,0.763,0.327l0.129-0.157
	c-0.216-0.464-0.7-1.307-0.704-1.311c-0.165-0.133-0.239-0.135-0.313-0.14c-0.114,0.037-0.26,0.092-0.373,0.136
	c0.014,0.054,0.037,0.131,0.052,0.183c-0.039,0.136-0.061,0.133-0.08,0.133c-0.111-0.061-0.348-0.183-0.348-0.641
	c-0.078-0.123-0.135-0.211-0.192-0.294c-0.879,0.117-0.664-1.118-1.354-1.306c-0.01,0.038-0.01,0.038,0.097,0.588
	c-0.097,0.057-0.233,0.13-0.337,0.18c0.049,0.101,0.138,0.228,0.222,0.313c0.033,0.06,0.055,0.087,0.073,0.115
	c-0.006,0.056-0.015,0.132-0.017,0.188l-0.162,0.131c0.063,0.22,0.063,0.22,1.196,1.519c0.033,0.057,0.063,0.112,0.094,0.169
	c0.043,0.11,0.107,0.264,0.156,0.375c0.173,0.232,0.393,0.422,0.572,0.645c0.097,0.162,0.158,0.274,0.217,0.387
	c-0.063-0.004-0.128-0.008-0.197-0.012c-0.123,0.025-0.299,0.05-0.433,0.058l-0.163-0.008c-0.237-0.054-0.301-0.071-0.782-0.07
	c-0.007,0.061-0.013,0.14-0.019,0.2c-0.107,0.052-0.24,0.155-0.317,0.248c0.06,0.352,0.06,0.352-0.115,0.527l-0.174-0.128
	c-0.074-0.011-0.127-0.014-0.175-0.015l-0.128-0.009c-0.058,0.009-0.13,0.015-0.19,0.018c-0.024,0.093,0.025,0.207,0.08,0.32
	l0.359,0.186c0.088,0.189,0.181,0.38,0.271,0.57c-0.368-0.024-0.436,0.095-0.814,0.779c-0.064,0.003-0.113,0-0.161,0
	c-0.118,0-0.27-0.004-0.387-0.017c0.063,0.353,0.213,0.71,0.358,1.073c-0.375-0.015-0.44-0.016-0.78,0.095
	c0.052,0.184,0.123,0.364,0.195,0.55c-0.185-0.007-0.373-0.017-0.56-0.022c-0.118-0.063-0.118-0.063-0.556-0.121
	c-0.183-0.105-0.202-0.167-0.227-0.226c-0.088-0.089-0.246-0.165-0.37-0.176c-0.029,0.202,0.035,0.388,0.099,0.568l0.184,0.079
	c0.047,0.129,0.112,0.3,0.156,0.431l0.145,0.184c0.03,0.08,0.06,0.156,0.084,0.233c-1.039,0.071-1.523-0.401-1.528-0.404
	c-0.786,0.301-0.786,0.301-0.847,0.399c0.019,0.059,0.043,0.138,0.055,0.194c0.173,0.137,0.223,0.14,0.276,0.14
	c0.368,0.417,0.718,0.406,0.863,0.4c0.118,0.004,0.172,0.006,0.225,0.007c0.4,0.285,0.773,0.594,1.158,0.888
	c0.165,0.375,0.277,0.704,0.381,1.04c0.735,0.857,1.972,2.299,1.21,3.112c0,0.058,0.009,0.138,0.012,0.195
	c-0.38,0.291-0.38,0.291-0.572,0.321c-0.056-0.003-0.113-0.004-0.173-0.009c-0.536-0.241-1.156-0.292-1.642-0.675
	c-0.646-0.052-1.152-0.071-1.666-0.087c-0.697-0.102-0.697-0.102-0.823-0.18c-0.189-0.095-0.218-0.097-0.249-0.1l-0.154,0.113
	c0.015,0.059,0.034,0.139,0.046,0.201c-0.331,0.157-0.625,0.148-0.919,0.138l-0.045,0.193c0.533,0.633,0.329,1.578,0.918,2.191
	c0.087,0.428,0.173,0.826,0.246,1.224c0,0.058,0.004,0.133,0.004,0.19c-0.609,0.614-0.293,1.121,0.012,1.611l0.129,0.159
	c0.071,0.171,0.082,0.244,0.094,0.313c0.011,0.07,0.026,0.14,0.04,0.209c-0.15,0.266-0.159,0.345,0.015,0.969
	c0.195,0.079,0.378,0.086,0.559,0.09c0.531-0.116,1.006,0.265,1.536,0.166c0.094,0.092,0.094,0.092,0.771,0.435
	c0.214,0.255,0.326,0.589,0.604,0.788c0.022-0.07,0.054-0.164,0.073-0.232l-0.187-0.062c2.362-1.44,4.273-2.117,4.282-2.121
	c-0.053-0.225-0.106-0.459-0.154-0.688c-0.554-0.855-0.554-0.855-0.387-1.781c0.021-0.119,0.047-0.283,0.063-0.4
	c0.128,0,0.285-0.004,0.407-0.008c0.073-0.095,0.146-0.241,0.176-0.358c0.104-0.054,0.253-0.096,0.372-0.105l0.048-0.186
	c0.433-0.036,0.963-0.086,0.963-0.086c0.063-0.215,0.005-0.417-0.059-0.619l-0.055-0.202c-0.323-0.793-0.316-1.188-0.316-1.192
	c0.313-0.193,0.313-0.193,0.976-0.049h0.007h0.013h0.005l0.012,0.001h0.013h0.009l0.007,0.002h0.01
	c0.676,0.353,0.676,0.353,0.806,0.38c0.227,0.014,0.298,0.015,0.372,0.02c0.055-0.006,0.133-0.018,0.193-0.027
	c0.021-0.588,0.021-0.588,0.087-0.795c0.222-0.025,0.272-0.022,0.319-0.018c0.135,0.013,0.451,0.042,0.624-0.592
	c1.083,0.305,1.314,1.518,2.179,2.056c0.288,0.18,0.288,0.18,0.485,0.516c1.411,0.996,4.026,2.85,4.318,4.428
	c-0.589,0.112-0.589,0.112-0.654,0.425c-0.538,0.136-1.055-0.056-1.582-0.084c0.029,0.073,0.076,0.175,0.102,0.253
	c0.529,0.307,0.829,0.898,1.429,1.119c0.276,0.017,0.55,0.035,0.826,0.05c-0.073-0.263-0.146-0.526-0.217-0.792
	c0.21-0.146,0.31-0.409,0.545-0.527c-0.033-0.276-0.073-0.554-0.117-0.829c0.078-0.085,0.213-0.169,0.32-0.198
	c0.036-0.101,0.047-0.258,0.02-0.364c-0.084-0.205-0.111-0.281-0.132-0.357c-0.249,0.006-0.336,0-0.426-0.006
	c-0.161-0.109-0.19-0.187-0.21-0.267c-0.014-0.056-0.028-0.131-0.04-0.185c0.144-0.109,0.316-0.098,0.49-0.087
	c0.416,0.195,0.501,0.313,0.646,0.494c0.032-0.43-0.256-0.748-0.382-1.124c-0.944-0.297-1.641-1.292-1.649-1.302
	c-0.549-0.037-0.847-0.558-1.343-0.7c-0.195-0.605-0.787-0.893-1.116-1.389c-0.065-0.024-0.113-0.028-0.155-0.03
	c-0.393-0.715-0.393-0.715-0.852-0.706c-0.104-0.17-0.172-0.342-0.235-0.513l0.058-0.188c0.065-0.166,0.052-0.198,0.042-0.229
	c-0.339-0.621-0.339-0.621-0.336-0.688c0.651-0.105,3.183,2.482,3.206,2.51c0.285,0.32,0.305,0.324,0.709,0.39
	c0.043,0.071,0.104,0.162,0.146,0.234c0.442,0.555,1.219,0.693,1.643,1.286c0.648,0.931,0.824,2.087,1.411,3.048
	c0.115,0.005,0.269,0.034,0.383,0.067c0.229,0.345,0.316,0.619,0.403,0.898c-0.106-0.009-0.204-0.017-0.308-0.021
	c-0.017-0.063-0.038-0.14-0.051-0.199c-0.056-0.02-0.132-0.044-0.188-0.061c-0.024,0.341,0.284,0.684,0.76,1.163
	c0.038-0.072,0.088-0.169,0.134-0.241c0.579,0.286,0.548,0.95,0.879,1.388c0.183,0.085,0.272,0.092,0.361,0.098
	c0.055,0,0.132-0.003,0.192-0.004c0.072-0.49,0.072-0.49,0.046-0.57c-0.028-0.101-0.048-0.172-0.071-0.242
	c-0.059-0.102-0.112-0.261-0.112-0.38l0.155-0.112c0.087,0.073,0.203,0.179,0.271,0.267c0.146,0.004,0.18,0.011,0.221,0.012
	c0.079-0.27,0.079-0.27-0.113-0.825c0.057,0.004,0.134,0.015,0.192,0.023l0.063-0.183c-0.308-0.45-0.329-0.457-0.566-0.525
	c0.146,0.369,0.146,0.369,0.199,0.625c-0.144-0.026-0.477-0.086-1.642-1.872c-0.066-0.2-0.09-0.268-0.116-0.335
	c0.009-0.059,0.015-0.139,0.021-0.197l0.156,0.112c0.297,0.297,0.297,0.297,0.484,0.338c0.119,0.005,0.156,0.009,0.192,0.01
	l0.111,0.008c0.021-0.228,0.021-0.228-0.226-0.489c0.007-0.064,0.007-0.148,0.007-0.214c0.51-0.303,0.787,0.286,1.196,0.366
	c0.263,0.437,0.263,0.437,0.335,0.499c0.084,0.094,0.172,0.25,0.211,0.371l-0.141,0.139c0.169,0.582,0.757,0.927,0.869,1.541
	c0.053,0.112,0.104,0.271,0.127,0.392c0.024,0.088,0.042,0.148,0.064,0.206c0.085,0.175,0.085,0.175,0.333,0.57l0.073,0.114
	l0.074,0.055l0.068,0.112l0.104,0.113l0.07,0.081c0.079,0.119,0.114,0.313,0.124,0.448l0.006,0.106l0.014,0.134
	c0.109,0.373,0.109,0.373,0.22,0.619l0.084,0.109l0.076,0.085c0.023-0.101,0.03-0.236,0.015-0.335l-0.033-0.267
	c-0.041-0.131-0.093-0.302-0.142-0.428c-0.016-0.06-0.036-0.135-0.053-0.192c0-0.119,0.027-0.119,0.059-0.113l0.058,0.025
	l0.084,0.09l0.064,0.104l0.078,0.09c0.078,0.101,0.186,0.233,0.261,0.337l0.09,0.137l0.071,0.108l0.07,0.06l0.043,0.006
	c0.097,0.016,0.223,0.062,0.282,0.131c0.133,0.035,0.153,0.04,0.173,0.042l0.029-0.051l0.032-0.071l-0.043-0.105l-0.019-0.108
	c-0.143-0.352-0.143-0.352-0.139-0.557l-0.008-0.105l0.036-0.099c0.116,0.001,0.263,0.063,0.347,0.139
	c0.059,0.096,0.145,0.218,0.216,0.305c0.078,0.098,0.176,0.224,0.258,0.316l0.067,0.108l0.068,0.083l0.052,0.036l0.08,0.061
	c0.208,0.022,0.409,0.048,0.607,0.067c-0.032-0.111-0.082-0.261-0.121-0.374l-0.037-0.132c-0.044-0.123-0.102-0.292-0.126-0.42
	l0.117,0.031l0.029-0.019l0.069,0.009c0.073,0.041,0.073,0.041,0.36,0.376c0.114,0.035,0.126,0.037,0.145,0.039l0.03-0.049
	l-0.018-0.098l0.018-0.079l0.046,0.036c0.043,0.086,0.1,0.203,0.159,0.276l0.041,0.102c0.122,0.383,0.122,0.383,0.177,0.696
	c0.085,0.663,0.255,1.037,0.314,1.179l0.043,0.109c0.145,0.279,0.145,0.279,0.174,0.625l-0.022,0.072l0.009,0.109
	c0.035,0.112,0.064,0.264,0.081,0.379v0.106c-0.024,0.632-0.024,0.632-0.067,0.704l-0.022,0.076l-0.017,0.104l0.017,0.108
	c1.754,0.323,3.094,0.537,3.992,0.761C162.851,52.591,163.252,52.76,163.383,52.924 M165.549,66.107l-0.104-1.335v-0.014
	c-0.007-0.077-0.007-0.157-0.015-0.237l-0.006-0.028c-0.108-1.225-0.251-2.245-0.251-2.251l-0.015-0.026
	c0.049,0.433,0.064,0.535,0.078,0.735c0.223,2.051,0.36,4.129,0.393,6.229l0.022,0.036v-0.453c-0.012-0.363-0.03-0.729-0.028-1.092
	l0.003,0.001c0.003,0.097,0.007,0.189,0.014,0.285C165.64,67.949,165.612,67.133,165.549,66.107 M165.026,60.973l-0.144-0.968
	c-0.411-2.104-0.938-4.922-1.454-7.002l-0.045-0.079c0.595,2.245,1.073,4.535,1.438,6.863c0.067,0.374,0.104,0.754,0.181,1.122
	l0.023,0.071V60.973 M122.088,20.689l-0.017-0.038l-0.199,0.088c-0.071,0.05-0.064,0.147-0.132,0.202l-0.114,0.032l-0.013,0.013
	l0.014,0.143c-0.022,0.089-0.103,0.151-0.106,0.25c0,0.075,0.053,0.137,0.079,0.207l0.18,0.082l0.106-0.074
	c0.009-0.018,0.009-0.018,0.018-0.101l0.017-0.091v-0.086l0.038-0.027c0.12,0.006,0.233,0.013,0.245-0.029l-0.025-0.067
	l-0.044-0.084l0.023-0.152l-0.004-0.04C122.134,20.836,122.111,20.751,122.088,20.689 M130.919,27.891
	c-0.05-0.115-0.105-0.23-0.186-0.359c-0.328-0.196-0.529-0.545-0.848-0.748l-0.114,0.063c0.066,0.088,0.066,0.088,0.006,0.402
	c-0.135,0.071-0.135,0.071-0.753-0.957c-0.138-0.007-0.278-0.015-0.421-0.021c-0.152-0.419-0.268-0.637-0.268-0.637
	c-0.181-0.219-0.481-0.281-0.678-0.478l-0.162-0.048c-0.123-0.242-0.444-0.295-0.541-0.557c-0.066-0.162-0.556-0.664-0.834-0.676
	c-0.479-0.02-0.899-0.173-0.657-0.548c-0.041-0.12-0.041-0.12-0.039-0.16c0.165-0.005,0.165-0.005,0.249-0.023
	c-0.025-0.054-0.05-0.109-0.1-0.202c-0.105-0.18,0.126-0.326,0.05-0.502c-0.112-0.215-0.223-0.426-0.337-0.64
	c-0.445-0.017-0.888-0.033-1.339-0.088c-0.01-0.136-0.01-0.136,0.059-0.192c0.01-0.152-0.146-0.24-0.146-0.384
	c0,0,0.141-0.264,0.15-0.321c-0.148-0.125-0.158-0.134-0.268-0.151l-0.133,0.006c-0.062,0-0.129-0.003-0.225,0
	c-0.048,0.022-0.131,0.06-0.585-0.012l-0.035,0.032c0.101,0.185,0.103,0.397,0.153,0.597c0.067,0.197,0.193,0.361,0.272,0.549
	c-0.263,0.022-0.475-0.149-0.724-0.183c-0.386-0.045,0.047,0.523,0.063,0.55c0.137,0.177,0.398,0.084,0.543,0.252v0.115
	c0.028,0.05,0.055,0.107,0.093,0.202c0.019,0.161,0.23,0.255,0.162,0.449c-0.39,0.097-0.39,0.097-0.179,0.461
	c0.1,0.004,0.196,0.007,0.323-0.004c0.027-0.032,0.062-0.084,0.518,0.278c0.096,0.004,0.197,0.006,0.292,0.01
	c-0.078-0.199-0.078-0.199-0.074-0.324c0.004,0.003,0.633,0.585,0.574,0.843c-0.361,0.03-0.178,0.216,0.031,0.433
	c0.246,0.01,0.488,0.018,0.734,0.028l-0.004-0.162c0.489,0.252,0.602,0.88,1.109,1.113c0.074,0.346,0.074,0.346,0.148,0.429
	c0.208,0.234,0.232,0.319,0.143,0.426l-0.445-0.023c-0.146-0.036-0.269-0.146-0.43-0.146l-0.099-0.005l-0.117-0.006
	c-0.021,0.029-0.021,0.029-0.047,0.171l-0.019,0.181c-0.084-0.016-0.168-0.016-0.259-0.022l0.032,0.173
	c0.292,0.166,0.869-0.01,0.895,0.462c-0.051-0.002-0.1-0.003-0.167,0.007c-0.097,0.119-0.097,0.119-0.085,0.264
	c-0.05,0.046-0.067,0.062-0.199,0.05l-0.017-0.002h-0.012h-0.011l-0.013-0.001h-0.017h-0.01h-0.012h-0.012
	c0.149,0.721,0.469,0.517,0.602,0.429c0.059-0.036,1.209,0.16,1.215,0.163c0.061,0.02,0.223,0.251,0.083,0.36
	c-0.225,0.167-0.502-0.017-0.723,0.135c-0.012,0.06,0,0.121-0.024,0.179c-0.119,0.006-0.119,0.006-0.42,0.067
	c0.142,0.354,0.142,0.354,0.157,0.536c-0.152,0.179-0.194,0.19-0.38,0.254c0.259,0.146,0.259,0.146,0.634,0.022l0.136-0.126
	l-0.018-0.131c0.145,0.008,0.256,0.103,0.389,0.143c0.154,0.006,0.307,0.014,0.462,0.021c-0.144-0.388-0.136-0.405-0.1-0.476
	c1.178,0.209,1.164,0.04,1.145-0.192l0.033-0.042c0.286,0.032,0.458,0.291,0.734,0.34l0.092,0.003
	c0.188-0.075,0.39,0.058,0.577-0.032c0.089-0.041,0.078-0.14,0.068-0.275c0.129-0.058,0.285,0.035,0.407-0.088
	c-0.055-0.272-0.313-0.402-0.447-0.622l-0.047-0.118c-0.039-0.088-0.039-0.088-0.02-0.157c0.084-0.025,0.17-0.01,0.257-0.021
	c0-0.001-0.039-0.192-0.087-0.35C130.727,27.884,130.825,27.889,130.919,27.891 M122.414,25.121h0.003l-0.071-0.003L122.414,25.121
	 M124.551,25.34c-0.057-0.239-0.295-0.314-0.421-0.489c-0.067-0.101-0.082-0.242-0.182-0.333c-0.023-0.024-0.069-0.071-0.196-0.131
	c-0.056-0.025-0.121,0.014-0.173-0.015c-0.065-0.034-0.111-0.097-0.182-0.118l-0.073-0.002c-0.108,0.002-0.295,0.098-0.313,0.111
	l-0.005,0.164l-0.121,0.077c-0.177-0.106-0.313-0.271-0.509-0.346c-0.103-0.034-0.242,0.018-0.344,0.029
	c0.121,0.274,0.171,0.568,0.313,0.833l-0.062-0.003l-0.039,0.006l-0.105,0.076c-0.061,0.017-0.121-0.018-0.183,0.003l-0.062,0.037
	c-0.057,0.041-0.137,0.101-0.22,0.05c-0.168-0.107-0.168-0.107-0.307-0.078c0.152,0.398,0.296,0.8,0.439,1.203
	c0.241,0.03,0.241,0.03,0.53,0.02c0.065,0.178,0.131,0.356,0.193,0.537c-0.128,0.009-0.258,0.006-0.381,0.027
	c-0.148,0.254,0.118,0.465,0.07,0.71c-0.138,0.071-0.197,0.104-0.057,0.348c0.1,0.175,0.419,0.281,0.419,0.281
	c0.142,0.043,0.23-0.105,0.365-0.107c0,0,0.185-0.002,0.376,0.122c0.144-0.01,0.271-0.201,0.283-0.225
	c0.004-0.009,0.004-0.009-0.034-0.201c-0.026-0.083,0.081-0.086,0.104-0.146c0.453,0.016,0.893,0.032,1.338,0.047
	c-0.035-0.081-0.062-0.166-0.093-0.246c-0.067-0.142-0.233-0.218-0.256-0.388c0.16-0.114,0.16-0.114,0.138-0.227
	c-0.031-0.131-0.124-0.437-0.409-1.026c-0.042-0.112-0.092-0.224-0.137-0.339C124.544,25.612,124.575,25.462,124.551,25.34
	 M155.366,105.435c0.039-0.064,0.078-0.128,0.113-0.195c1.414-2.467,1.391-2.589,1.341-2.92c-0.188,0.362-0.188,0.362-1.646,2.529
	c-0.5,0.036-0.37,0.618-0.684,0.811c-0.442-0.114-0.442-0.114-1.673,1.651c-0.534,0.772-0.703,1.779-1.487,2.396l-0.04-0.05
	c-0.509,0.576-0.961,1.198-1.447,1.788c-0.048,0.06-0.089,0.122-0.133,0.181c-0.204,0.294-0.373,0.612-0.585,0.901
	c-0.089,0.117-0.173,0.234-0.271,0.355c-0.238,0.339-0.513,0.655-0.743,1.011l0.037,0.051c0.073,0.011,0.149-0.002,0.223,0.011
	c-0.162,0.258-0.162,0.258-0.162,0.309l0.054,0.033v0.072c1.162-0.292,6.011-7.257,6.06-7.327c0.078-0.127,0.156-0.25,0.237-0.382
	c0.073-0.129,0.142-0.262,0.218-0.385c0.039-0.064,0.073-0.13,0.111-0.195C155.045,105.861,155.223,105.66,155.366,105.435
	 M164.531,78.246c0.029-0.302,0.064-0.604-0.194-0.819c-0.049,0.12-0.109,0.276-0.155,0.395c-0.125,0.033-0.3,0.081-0.423,0.117
	c-0.034-0.008-0.071-0.014-0.449,0.029c-0.075-0.085-0.174-0.205-0.246-0.298c-0.027-1.374-0.027-1.374-0.109-1.684
	c-0.004-2.948-1.918-5.514-1.698-8.508c-0.012-0.16-0.012-0.319-0.022-0.607c-0.002-0.079-1.105-8.896-4.679-13.778
	c-0.037-0.001-0.064-0.004-0.284,0.074c-0.07,0.092-0.17,0.22-0.244,0.313l-0.101-0.012c-1.834-0.8-3.352-2.29-5.445-2.536
	c0.177,0.89,0.426,1.766,0.526,2.671c-0.115,0.022-0.262,0.057-0.375,0.079c-0.084-0.003-0.167-0.01-0.469-0.019
	c-0.38-0.359-0.604-0.886-1.143-1.078c-0.451-0.031-0.916-0.06-1.402-0.149c-0.121-0.229-0.162-0.591-0.333-0.787
	c-0.826-0.974-2.173-0.974-3.149-1.676c-1.09-0.781-0.34-2.321-1.289-3.154c-0.018-0.126-0.025-0.293-0.032-0.42
	c0.2-0.103,0.427-0.34,0.511-0.547c-0.563-0.387-0.563-0.387-1.091-0.61c-0.875,0.227-0.875,0.227-2.409,0.309
	c-0.141,0.175-0.393,0.374-0.601,0.46c-0.891-0.781-0.891-0.781-2.553-0.49c-0.064,0.11-0.141,0.261-0.202,0.372
	c-0.556-0.027-1.12-0.049-1.762,0.235c-0.004,0.233-0.086,0.541-0.184,0.75c-0.496,0.112-1.034-0.031-1.507,0.24
	c-0.061-0.001-0.116-0.004-0.39-0.049c-0.122-0.026-0.297-0.064-0.42-0.09c-0.007-0.003-0.009-0.003-0.291,0
	c-0.931,0.015-1.138-0.16-1.504-0.487c-0.116-0.068-0.278-0.159-0.402-0.229c-0.344,0.611-0.06,1.305-0.251,1.935
	c-0.66,0.047-0.667,0.047-1.212-0.019c0.084,0.59,0.163,1.189,0.236,1.789c-0.473-0.016-0.947-0.032-1.424,0.181
	c-0.004,0.983-0.106,1.968-0.051,2.957c0.022,0.257,0.047,0.518,0.065,0.779c-0.393-0.015-0.787-0.026-1.177,0.166
	c-0.065,1.335-1.033,1.688-1.606,1.777c-0.378,0.06-2.078,4.249-2.087,4.289c-0.11-0.006-0.264-0.019-0.376-0.028l-0.374,0.075
	c-0.109,0.068-0.252,0.162-0.371,0.23c0.151,2.305-0.148,2.423-1.052,2.769c-0.044,0.112-0.098,0.264-0.138,0.377
	c0.006,0.274,0.009,0.546,0.23,0.856c1.616,0.302,1.616,0.302,1.779,0.613c-0.434,0.873-0.434,0.873-0.436,3.809
	c-0.001,0.156-0.004,0.313-0.01,0.471c0.009,0.358,0.009,0.358-0.839,1.21c0.038,0.562,0.255,1.088,0.349,1.638
	c-0.004,0.156-0.011,0.313-0.011,0.848c0,0.018,1.637,2.842,3.215,3.674c-0.077,0.676-0.273,2.48,2.201,2.654
	c1.666,3.258,1.771,3.454,3.302,3.246c0.141-0.211,0.279-0.526,0.349-0.772c0.506-0.207,1.044,0.035,1.551-0.097
	c0.085,0.002,0.157,0.006,0.239,0.008c0.342,0,0.342,0,1.189,0.022c0.32,0.48,0.32,0.48,2.454,0.48
	c0.654-1.327,1.208-1.202,2.427-0.934c0.055,0.002,0.109,0.006,0.236-0.021c0.015-0.012,1.03-1.071,1.904-0.353
	c0.136,1.801,0.136,1.801,0.867,2.123c0.954,0.048,1.882,0.098,2.785,0.148c-0.075,0.459-0.147,0.923-0.237,1.44
	c-0.36,0.917-0.36,0.917-1.328,4.208c-0.205,0.061-0.462,0.256-0.564,0.439c0.108,0.202,0.361,0.411,0.572,0.495
	c0.248,0.612-0.003,1.378,0.583,1.888c-0.2,1.898,0.84,3.832-0.156,5.71c-0.048,0.137-0.101,0.273-0.242,0.743
	c-0.036,0.238,0.024,0.578,0.131,0.796l-2.878,4.753c-1.801,1.238-1.427,5.325-1.411,5.358c-0.614,1.156-0.656,1.69-0.684,1.919
	c-0.351,0.616-0.71,1.227-1.129,1.925c-0.02,0.038-2.097,5.382-2.384,6.204c-0.049,0.054-0.091,0.109-0.222,0.247
	c-0.664,0.339-0.664,0.339-0.827,0.841c0.063,0.005,0.128,0.009-0.018,0.25c-0.082,0.093-0.19,0.216-0.271,0.311
	c0.02,0.119,0.043,0.28,0.064,0.397c0.294,0.025,0.58,0.042,1.123-0.004c0.229-0.096,0.544-0.192,0.789-0.253
	c0.343,0.027,0.685,0.057,1.262-0.095c3.208-3.035,7.24-5.017,10.428-8.076l7.311-8.961c0.105-0.198,0.206-0.396,0.47-0.888
	c0.102-0.214,0.227-0.505,0.303-0.729c0.393-0.792,0.783-1.593,1.156-2.486c0.162-1.464,1.039-2.7,1.326-4.125
	c0.027-0.072,0.056-0.144,0.112-0.298c1.194-2.751,3.227-5.021,4.407-7.776C164.04,81.863,164.04,81.863,164.531,78.246
	 M101.757,94.455c0-0.022-0.09-2.256-1.194-2.742c-0.352-0.002-0.705-0.006-1.055-0.01c-1.663-0.503-1.663-0.503-1.813-1.489
	c-1.048-0.67-1.048-0.67-1.787-0.451c-0.447-0.004-0.893-0.008-1.465-0.018c-1.428-0.576-1.428-0.576-1.839-0.404
	c0,0.115-0.007,0.271-0.007,0.388c-0.301,0.181-0.467,0.279-1.182-0.091c-0.011-0.098-0.018-0.227-0.024-0.321
	c0.167-0.102,0.377-0.24,0.54-0.35c-0.441-0.358-1.368-0.999-2.596-1.22c-0.074,0-0.152,0-0.501-0.129
	c-0.551-0.281-0.632-0.307-1.287-0.209c0.013,0.348,0.026,0.695,0.033,1.044c-0.306,0-0.618,0-0.93-0.002
	c-0.002-0.144-0.008-0.292,0.018-0.606c0.117-0.144,0.278-0.344,0.396-0.494c0.084-0.063,0.192-0.146,0.273-0.207
	c-0.05-0.091-0.127-0.211-0.183-0.298c0,0-0.608-0.189-1.254-0.442h-0.246c-0.068,0-0.139,0-0.493,0.059
	c0.047,0.743,0.064,1.088-0.871,0.94c-0.006-0.15-0.014-0.297,0.002-0.557l-0.02-0.332c0.388,0.015,0.5,0.019,0.947-0.184
	c0.256-1.268,0.034-1.778-0.051-1.97c-0.195,0.004-0.455,0.004-0.651-0.009c-0.021-0.404-0.039-0.811-0.152-1.402
	c-0.104-0.41-0.354-0.756-0.495-1.15c-1.16-0.278-1.266-0.595-1.37-0.897c-1.682-0.665-1.682-0.665-1.791-0.729
	c-0.569-0.28-1.115,0.09-1.678,0.062c-0.123,0.002-0.243,0.002-0.394,0c-2.704-0.526-2.699-1.617-2.696-2.081
	c-1.066-0.563-1.066-0.563-1.412-0.781c-0.006-0.079-0.006-0.156-0.302-0.269c-0.531-0.347-0.531-0.399-0.515-1.065
	c-0.07,0.001-0.146,0.002-0.386,0.042c-0.323,0.099-0.626,0.241-0.955,0.314c-0.264-0.248-0.264-0.248-0.321-0.928
	c0.098-0.032,0.236-0.069,0.332-0.099c0.019-0.091,0.04-0.214,0.054-0.309c-0.496-0.265-0.496-0.265-0.893-0.348l-0.473,0.409
	c-0.039,0.003-0.073,0.003-0.274-0.084c-0.175-0.067-0.423-0.119-0.614-0.128c-0.288,0.331-0.345,0.795-0.615,1.137
	c-0.104,0-0.248-0.004-0.357-0.004c-0.484-0.788-0.499-0.793-1.243-0.939c-0.356,0.006-0.711,0.01-1.183-0.041
	c-0.185-0.067-0.438-0.138-0.635-0.177c-0.006-0.232-0.015-0.464-0.29-0.691c-0.503-0.145-0.902-0.514-1.414-0.636
	c-0.081,0.055-0.19,0.127-0.268,0.186c-0.004,0.042-0.004,0.042-1.205,1.325c0.256,1.327,0.256,1.327,0.276,1.674
	c-0.072,0.069-0.169,0.156-0.235,0.221c-0.336-0.561-1.305-2.482,0.28-3.792l-0.098-0.237c-0.155,0.005-0.298,0.007-0.549,0.034
	c-0.584,0.195-0.583,0.257-0.522,0.986c-0.377,0.007-0.747,0.013-1.122,0.021c-1.324,0.922-1.324,0.922-2.037,0.925
	c0.022,0.45,0.044,0.897,0.026,1.405c-0.246,0.264-0.246,0.264-0.866,0.461c-0.006,0.944-1.328,1.474-0.818,2.582
	c0.089,0.014,0.216,0.038,0.306,0.052c0.06,0.938,1.234,1.967,0.205,2.815c-0.118,1.718-0.118,1.718-0.699,1.82
	c0.053,0.236,0.128,0.554,0.193,0.79c-0.149,0.114-0.336,0.276-0.474,0.399c-0.006,0.142-0.018,0.328-0.022,0.467
	c-0.646,0.231-0.664,0.534-0.543,1.341c-0.242,0.008-0.489,0.016-0.708,0.114c0.185,0.646,0.137,1.323,0.362,1.954
	c0.306,0.102,0.621-0.014,0.928,0.031c0.024,0.143,0.056,0.285,0.072,0.458c-0.044,0.089-0.102,0.201-0.144,0.288
	c-0.182,0.05-0.404,0.183-0.533,0.317c0.104,0.663-0.391,1.364,0.117,2.007c0.012,0.073,0.024,0.145,0.063,0.283
	c0.405,1.92,2.724,2.339,3.257,4.159c0.039,0.158,0.08,0.314,0.141,0.504c0.48,0.629,0.612,1.465,1.219,2.021
	c1.172,1.069,1.13,3.664,3.353,3.37c2.054-0.273,2.184,2.572,4.098,2.533c0.193,0.676,0.388,1.343,0.607,2.057
	c0.019,0.193,0.084,0.445,0.164,0.619l-0.009,0.093c0.023,0.063,0.04,0.126,0.143,0.364c0.046,0.08,0.103,0.195,0.143,0.279
	c0.009,0.034,0.023,0.066,0.023,0.335c0.021,0.198,0.09,0.457,0.169,0.637l-0.013,0.059c0.02,0.075,0.048,0.153,0.189,0.368
	c0.033,0.09,0.085,0.216,0.121,0.307l0.034,0.105c0.022,0.059,0.043,0.121,0.038,0.467c0.07,0.187,0.209,0.416,0.331,0.572
	c0.022,0.061,0.042,0.122,0.065,0.183c0.02,0.058,0.042,0.117,0.064,0.2c0.092,0.637-0.058,1.295,0.194,1.912
	c0.203,0.575,0.203,0.575,0.45,2.563c0.016,0.035,0.04,0.07,0.158,0.27c1.306,2.146,1.745,2.873,1.447,3.904
	c0.048,0.1,0.104,0.201,0.268,0.445c0.039,0.088,0.095,0.201,0.135,0.291c0.177,0.227,0.177,0.227,0.136,1.398
	c0.775,0.751,0.887,1.916,1.683,2.652c0.557,0.48,0.402,1.427,1.166,1.769c0.112-0.001,0.223-0.003,0.336-0.007l-0.771-1.191
	c0.141-0.004,0.281-0.008,0.425-0.008c0.087,0.133,0.176,0.268,0.27,0.418c-0.011,0.093-0.03,0.221-0.045,0.318
	c0.166,0.231,0.337,0.461,0.5,0.716c0.006,0.048,0.006,0.048,0.841,1.353c-0.181-0.103-0.414-0.248-0.588-0.366l-0.092-0.12
	c-0.067-0.078-0.157-0.177-0.225-0.249c0.019,0.019,0.033,0.041-0.099,0.066c0.096,0.124,0.195,0.247,0.388,0.387
	c0.527,0.349,0.527,0.349,0.929,0.827c-0.297-0.101-0.542-0.309-0.84-0.409c0.101,0.121,0.208,0.239,0.216,0.379
	c0.018,0.095,0.037,0.217,0.042,0.309c0.626,0.391,1.392,0.545,1.888,1.139c-0.171,0.037-0.393,0.165-0.515,0.298
	c0.021,0.017,0.04,0.035,0.271,0.23c0.148,0.111,0.356,0.257,0.514,0.362c0.018,0.017,0.033,0.035,0.2,0.297
	c0.374,0.204,0.688,0.497,1.048,0.712l-0.041,0.105l0.226,0.096c0.046,0,0.098,0,0.305,0.07c0.106,0.15,0.323,0.304,0.497,0.344
	l0.079,0.072l2.345,1.246c0.033,0.033,0.063,0.061,0.183,0.137c0.42,0.131,0.426,0.135,0.933,0.247c0.022,0,0.047,0,0.325,0.082
	c0.175-0.004,0.357-0.006,0.655-0.032c0.045-0.056,0.107-0.133,0.15-0.187c-0.353-0.183-0.417-0.214-0.917-0.262
	c-0.068-0.067-0.135-0.134-0.461-0.213c0-0.005-0.466-0.337-1.009-0.788c-0.033-0.03-0.059-0.063-0.245-0.214
	c-0.23-0.232-0.498-0.413-0.726-0.64c-0.03-0.035-0.061-0.068-0.225-0.201c-0.098-0.11-0.198-0.221-0.299-0.337
	c-0.057-0.073-0.13-0.174-0.194-0.248c0.151-0.002,0.297-0.004,0.392-0.074c-0.128-0.139-0.284-0.347-0.377-0.517
	c0.077-0.055,0.18-0.133,0.252-0.188c-0.077-0.199-0.18-0.471-0.252-0.675c0.057-0.073,0.117-0.185,0.167-0.265
	c-0.05-0.073-0.11-0.151-0.387-0.251c-0.093-0.02-0.217-0.042-0.312-0.061c-0.996-0.673-0.996-0.673-1.119-0.826
	c-0.023-0.038-0.049-0.078-0.096-0.334c0.062-0.072,0.142-0.176,0.2-0.252c0.216-0.002,0.428-0.005,0.644-0.008
	c-0.144-0.229-0.284-0.459-0.404-0.899c-0.038-0.307-0.172-0.595-0.138-0.916c0.1,0.011,0.234,0.024,0.333,0.031
	c0.014-0.093,0.03-0.215,0.047-0.311c-0.025-0.043-0.05-0.088-0.263-0.268H81.16H81.15l-0.005,0.002h-0.012h-0.005h-0.01h-0.01
	l-0.042,0.018c-0.087,0.05-0.193,0.113-0.281,0.16c-0.201-0.141-0.201-0.141-0.611-0.722c-0.077-0.138-0.145-0.278-0.221-0.419
	c0.074-0.003,0.141-0.003,0.253-0.003c0.197,0.076,0.45,0.196,0.63,0.305c0.26-0.002,0.512-0.008,0.771-0.01
	c-0.049-0.081-0.111-0.192-0.158-0.273c-0.017-0.048-0.04-0.096-0.129-0.332c0.034-0.359,0.034-0.359-0.341-0.853
	c-0.049-0.11-0.091-0.22-0.143-0.331c0.205,0,0.416-0.004,0.75-0.042c0.093-0.005,0.185-0.005,0.469-0.024
	c0.085-0.039,0.209-0.089,0.301-0.127c0.222,0,0.447-0.006,0.753,0.011c0.09,0.017,0.21,0.04,0.306,0.056
	c0.008-0.559,0.434-0.928,0.63-1.404l0.062-0.289c-0.051-0.155-0.096-0.308-0.138-0.464c-0.048,0-0.104,0-0.308-0.036
	c-0.025-0.099-0.061-0.202-0.129-0.438c-0.345-0.437-0.955-0.566-1.256-1.063c0.2-0.005,0.396-0.005,0.647-0.005
	c2.147,0.499,2.65,0.619,2.819-0.161c0.553-2.657,1.052-2.939,1.245-3.047c0.069,0.17,0.094,0.429,0.062,0.608
	c0.097,0.018,0.221,0.047,0.313,0.064c0.302-0.396,0.718-1.446,0.718-1.454c0.064-0.571,0.838-0.581,0.921-1.14
	c0.12-0.809-0.77-1.445-0.405-2.298c0.005-0.007,1.214-1.444,1.788-1.843c0.305,0,0.606,0.004,1.025-0.02
	c0.271-0.213,0.271-0.213,0.699-0.657c0.766,0.002,1.528,0.01,2.297-0.059c0.016-0.186,0.111-0.426,0.217-0.572
	c0.351-0.166,0.767-0.87,0.851-1.239c0.172-0.091,0.394-0.241,0.555-0.364c0.067-0.757,0.076-0.803,0.368-1.354
	c0.207-0.124,0.207-0.124,0.521-1.78c0-0.065,0-0.134,0.125-0.453c0.326-0.641,0.342-1.079,0.354-1.267
	c0-0.101,0.003-0.199-0.03-0.491c-0.018-0.093-0.04-0.216-0.059-0.308c0.008-0.15,0.011-0.302-0.036-0.639
	c0.007-0.408,0.01-0.816,0.263-1.278c0.202-0.061,0.202-0.061,1.456-1.67c0.459-0.043,0.534-0.115,0.846-0.455l1.498-2.075
	C101.733,94.866,101.733,94.866,101.757,94.455 M68.986,66.136l0.057-0.029c-0.116-0.118-0.337-0.048-0.418-0.232
	c-0.104-0.23,0.037-0.458,0.012-0.681c-0.804,0.2-0.83,0.212-1.271,0.224c-0.134,0.002-0.278,0.005-0.419,0.007
	c-0.219-0.045-0.394-0.21-0.619-0.228c-0.065,0-0.134,0-0.207,0c-0.186,0.068-0.246,0.297-0.441,0.36l-0.707,0.022
	c-0.301-0.002-0.389-0.345-0.649-0.403c-0.319-0.072-0.494-0.437-0.849-0.451l-1.421-0.057c-0.231,0.009-0.231,0.009-0.774,0.131
	c-0.011,0.475-0.025,0.95-0.029,1.426c0.389,0.504,0.648,0.78,0.78,0.816c0.126,0,0.261-0.003,0.43-0.006
	c0.357,0.017,0.357,0.017,0.653-0.381c0.137-0.184,0.648-0.249,0.648-0.249c0.243-0.002,0.456,0.127,0.686,0.123
	c0.239-0.002,0.457-0.128,0.692-0.123c0.733,0.014,1.487-0.164,1.582-0.209c0.177-0.082,0.246-0.082,0.419-0.005
	c0.171,0.073,0.904,0.164,1.049,0.167c0.148,0,0.284-0.003,0.426-0.005C68.77,66.331,68.866,66.209,68.986,66.136 M58.199,66.829
	l0.042-0.073c-0.046-0.15,0.06-0.333-0.081-0.469c-0.096-0.09-0.225-0.04-0.331-0.087c-0.128-0.052-0.207-0.174-0.333-0.232
	l-0.106-0.023c-0.371,0.011-0.734,0.02-1.094,0.029c0.071,0.137,0.112,0.289,0.188,0.428l0.099,0.12
	c0.073,0.072,0.095,0.066,0.298,0.019c0.18-0.043,0.511,0.234,0.514,0.236c0.065,0.062,0.065,0.128,0.062,0.29
	c-0.005,0.104,0.003,0.129,0.029,0.197c0.124-0.03,0.249,0.066,0.377-0.011C57.94,67.205,57.94,67.205,58.199,66.829 M57.118,64.118
	c0.956-0.022,1.934-0.046,2.923-0.065c-0.175-0.337-0.873-1.343-1.474-1.439c-0.126,0.004-0.255,0.007-0.414,0.009
	c-0.413,0.002-0.819,0.199-1.232,0.002c-0.288-0.132-0.349-0.458-0.565-0.658c-0.31-0.29-0.711-0.435-1.051-0.676
	c-0.399-0.265-0.399-0.265-0.453-0.452c-0.04-0.142-0.076-0.264-0.317-0.273c-0.271,0.021-0.541,0.045-0.816,0.063
	c-0.171,0.01-0.171,0.01-0.373,0.19c-0.163,0.153-0.321-0.022-0.481-0.035c-0.247,0.008-0.489,0.015-0.77,0.023
	c-0.658-0.019-0.658-0.019-0.754,0.074c-0.783,0.789,0.332,2.101,1.26,1.481c0.233-0.154,0.357-0.435,0.628-0.544
	c0.042-0.017,0.435-0.024,0.656,0.025c0.01,0,0.741,0.289,0.804,0.76c0.018,0.107,0.027,0.198,0.119,0.25
	c0.627,0.352,0.721,0.33,0.924,0.292c0.258-0.045,0.321,0.057,0.428,0.269C56.216,63.525,56.521,64.083,57.118,64.118
	 M113.876,14.207c-0.092-0.172-0.188-0.342-0.283-0.51c-0.091-0.081-0.149-0.193-0.268-0.252c-0.235-0.101-0.235-0.101-0.556-0.139
	c-0.211-0.518-0.211-0.518-0.395-0.794c-0.188-0.007-0.375-0.014-0.573-0.017c-0.208,0.006-0.208,0.006-0.669,0.459
	c-0.27-0.029-0.529-0.132-0.805-0.142c-0.472-0.015-0.598,0.105-0.679,0.182c-0.102,0.087-0.147,0.092-0.254,0.099
	c-0.164-0.004-0.331-0.007-0.492-0.011c-0.03-0.082-0.065-0.164-0.104-0.248c-0.034-0.081-0.07-0.162-0.102-0.239
	c-0.075-0.107-0.201-0.155-0.291-0.245l-0.227,0.054c0.035,0.082,0.068,0.158,0.104,0.238c-0.229-0.073-0.229-0.073-0.951-0.084
	c-0.084,0-0.718,0.134-0.197,0.669c0.255-0.007,0.478-0.196,0.741-0.098l0.536,0.313c0.092,0.087,0.07,0.211,0.123,0.313
	c-0.265-0.054-0.758-0.153-1.318-0.029c0.069,0.114,0.162,0.264,0.232,0.378c0.151-0.051,0.151-0.051,0.212-0.053
	c0.18,0.005,0.355,0.009,0.53,0.012l0.095,0.067c0.059,0.167,0.122,0.34,0.181,0.514l0.227,0.268
	c0.091,0.001,0.178,0.003,0.274,0.005c0.26-0.014,0.522-0.056,0.786-0.046c0.09,0,0.173,0.002,0.291,0.004
	c0.372-0.023,0.575,0.321,0.892,0.418c0.009,0.005,1.024,0.229,1.001-0.292c-0.015-0.21-0.015-0.21,0.151-0.377
	c0.104-0.096,0.27,0.08,0.344-0.064c0.135-0.261,0.135-0.261,0.268-0.313C112.895,14.169,112.895,14.169,113.876,14.207
	 M84.191,31.227l0.084-0.1c-0.02-0.105-0.048-0.256-0.067-0.364c-0.43-0.015-0.43-0.015-0.568-0.092
	c-0.003-0.002-0.522-0.305-0.645-0.507c-0.064-0.109-0.1-0.176-0.204-0.21c-0.243-0.087-0.507-0.03-0.753-0.087
	c-0.132-0.034-0.23-0.131-0.352-0.182c0.346-0.662,0.346-0.662,0.748-0.824c0.066-0.03,0.352-0.376,0.2-0.609
	c-0.052-0.08-0.052-0.08-0.085-0.168c-0.086,0.016-0.179-0.018-0.272-0.021c-0.037,0-0.402,0.095-0.503,0.2
	c-0.146,0.146-0.078,0.354-0.148,0.52c-0.166,0.391-0.166,0.391-0.356,0.547c-0.02,0.011-1.971,1.776-2.035,1.866
	c-0.059,0.074-0.177,0.244-0.245,0.526c-0.037,0.148,0.028,0.292,0.009,0.437c0.927-0.006,1.863-0.01,2.81-0.01
	c0.242,0.021,0.343,0.054,0.573,0.359c0.411,0.528,0.619,0.629,0.886,0.757c0.069-0.066,0.084-0.077,0.243-0.132
	c0.096-0.035,0.319-0.115,0.308-0.947C83.804,31.682,83.804,31.682,84.191,31.227 M76.699,30.102l0.025-0.027
	c-0.097-0.042-0.17-0.125-0.278-0.166c-0.058-0.023-0.161-0.018-0.195-0.014c-0.196,0.016-0.219,0.017-0.299-0.021
	c-0.282-0.129-0.346-0.28-0.366-0.33c-0.068-0.157-0.129-0.185-0.225-0.185c-0.085,0.002-0.175,0.033-0.263,0.015
	c-0.124,0.057-0.287,0.126-0.407,0.18c0.101,0.062,0.224,0.084,0.309,0.176c0.085,0.092,0.079,0.224,0.144,0.322l0.068,0.071
	c0.084,0.078,0.176,0.148,0.255,0.233c0.072,0.071,0.12,0.167,0.193,0.239c0.065,0.06,0.093,0.086,0.179,0.108
	C75.94,30.734,76.108,30.777,76.699,30.102 M101.055,1.904c-0.203-0.046-0.414-0.042-0.616-0.071
	c-0.06-0.012-0.134-0.013-0.197-0.015h-0.005h-0.003h-0.003l0.014,0.028c0.061,0.02,0.135,0.053,0.189,0.085
	c-0.124,0.001-0.143,0.001-0.304-0.037l-0.071,0.07h-0.006l0,0h-0.007h-0.007h-0.003h-0.005c0,0-0.005,0-0.06,0.078l0.055,0.087
	c-0.197-0.165-0.197-0.165-0.232-0.198c-0.041-0.021-0.091-0.037-0.19-0.105c-0.153-0.045-0.172-0.048-0.291-0.068
	c-0.013,0-0.021,0-0.079,0.001l-0.097,0.022l0.099,0.069c-0.064,0-0.142,0.002-0.202,0.012l-0.079-0.061h0.034l0.099-0.016
	c-0.18-0.034-0.18-0.034-0.349-0.021c-0.071,0-0.135,0-0.247-0.007c-0.061,0.001-0.138,0.013-0.194,0.034h-0.004h-0.009h-0.003
	h-0.004L98.23,1.8h-0.003h-0.005h-0.006V1.799h-0.004l-0.02,0.008l-0.102,0.005l0.025-0.094c0.149,0.003,0.302,0.004,0.452-0.018
	c0.122,0.001,0.24,0.004,0.392-0.022l0.098-0.012l-0.151-0.029h-0.078c0,0-0.006,0-0.064-0.004
	c-0.134-0.008-0.272-0.029-0.408-0.041l0.013,0.005c-0.031,0-0.062,0-0.152-0.005l-0.111-0.008h-0.108h-0.027l-0.071-0.003
	l-0.044,0.007l-0.17-0.003l-0.027-0.009l0.039-0.014c0.166,0.004,0.334,0.008,0.464,0.008c-0.059-0.008-0.141-0.014-0.202-0.014
	l-0.054-0.003c-0.059-0.003-0.137-0.006-0.194-0.006h-0.044c-0.104-0.002-0.203-0.003-0.31-0.003l-0.051,0.003l-0.035,0
	c0,0-0.013,0-0.11,0.032l-0.099-0.008c-0.033,0-0.064,0-0.142-0.015c-0.06,0-0.143,0-0.197,0.006c-0.006,0-0.016,0-0.092-0.002
	h-0.109L96.51,1.563h-0.015l-0.098,0.02v0.003L96.4,1.586l0.033,0.007v0.005v0.005l-0.047,0.033L96.38,1.634l0.006-0.008V1.618
	h-0.012h-0.011l-0.017-0.003l-0.006-0.001h-0.009l-0.005-0.006h-0.01l-0.005-0.003h-0.065l-0.016,0.007l-0.026,0.004l-0.031,0.019
	v0.004l0.037,0.021l0.015,0.003l0.006,0.004h0.04h0.036l0.01,0.003l0.003,0.009l0.023,0.013l0.008,0.028v0.009l-0.005,0.008
	l-0.011,0.012l-0.032,0.029l-0.047-0.01l-0.014-0.002l-0.058-0.014l-0.012-0.006h-0.009l-0.032-0.012l-0.089-0.028l-0.009-0.003
	L96.03,1.695l-0.003-0.003l-0.002-0.005l-0.017-0.008l0.006-0.016h-0.019L95.99,1.657l-0.007-0.002l-0.004-0.002h-0.063
	c-0.067-0.009-0.153-0.015-0.223-0.005l-0.031,0.036h0.016l0.008,0.003l-0.019,0.021v0.006L95.66,1.725l-0.022,0.027l-0.013,0.01
	l-0.038,0.032l-0.023,0.015l-0.039-0.001l-0.021-0.001L95.49,1.802l0.003-0.008l-0.008-0.008l0.008-0.011l-0.008-0.007V1.761v-0.01
	V1.725l-0.003-0.002V1.717l0.003-0.021l-0.003-0.002l-0.037-0.005l0.005-0.003l0.022-0.013l0.01-0.006l-0.01-0.007l-0.033-0.002
	h-0.048c-0.014,0.005-0.028,0.008-0.108,0.039l-0.091,0.039l-0.033,0.013L95.13,1.758l-0.026,0.007l-0.158,0.054l-0.04,0.013
	l-0.073-0.02c0.01-0.002,0.02-0.005,0.093-0.031l0.119-0.03l0.04-0.013l0.034-0.01l0.023-0.006l0.011-0.005l0.028-0.016l0.011-0.01
	l0.026-0.005l0.071-0.024l0.002-0.005l0.008-0.005l0.004-0.005l-0.021-0.009l-0.066,0.009l-0.098,0.01l-0.043,0.008l-0.031,0.002
	l-0.026,0.005h-0.009l-0.034,0.005l-0.029,0.005l-0.079,0.006L94.86,1.686h-0.079l-0.023,0.003l-0.031,0.002l-0.076,0.01h-0.009
	h-0.099l-0.023,0.001l-0.024,0.003l-0.052,0.012l-0.035,0.005L94.38,1.73l0.003,0.004l0.021,0.001h0.003h0.006h0.003h0.003
	l0.004,0.003l-0.004,0.01l-0.021,0.009L94.37,1.765l-0.02,0.01l-0.036,0.014l0.01,0.011l0.03-0.001h0.004h0.002h0.003h0.003h0.004
	h0.004v0.007l-0.02,0.019V1.83L94.34,1.852l-0.045,0.01l-0.07,0.002l-0.004-0.006h-0.003l-0.021-0.017l0.015-0.009l0.007-0.011
	l0.007-0.004l-0.031-0.011L94.18,1.802h-0.016l-0.002-0.018l0.013-0.018l0.019-0.009l0.024-0.008l0.029-0.011l0.011-0.005
	c0,0-0.011,0-0.102,0.005l-0.035,0.006l-0.032,0.004l-0.047,0.008h-0.025l-0.118,0.017c-0.062,0.011-0.129,0.027-0.187,0.045
	l-0.021,0.008l-0.034,0.011l-0.033,0.013c-0.104,0.03-0.217,0.065-0.319,0.097l-0.118-0.008l0.006-0.009l0.024-0.012L93.04,1.918
	l-0.158,0.031c-0.126,0.025-0.259,0.04-0.382,0.064c-0.06,0.016-0.142,0.032-0.192,0.045l-0.055,0.01L92.15,2.072l-0.032,0.001
	h-0.021L92.039,2.09L91.981,2.1L91.922,2.11l-0.024,0.003l-0.069,0.021l-0.06,0.01h-0.015l-0.031,0.003
	c-0.063,0.018-0.154,0.04-0.219,0.058l-0.054,0.017c-0.059,0.013-0.137,0.032-0.192,0.053l0.084,0.014l-0.021,0.016l-0.027,0.019
	h0.037c0.053-0.004,0.132-0.01,0.19-0.019l0.033-0.003l0.086-0.004c-0.061,0.022-0.136,0.054-0.197,0.077l-0.031,0.02L91.373,2.41
	l-0.036,0.02c-0.068,0.029-0.14,0.058-0.273,0.116c-0.062,0.023-0.149,0.048-0.207,0.068l-0.066,0.02L90.645,2.65h-0.022
	c-0.064-0.012-0.118,0-0.226,0.029l-0.112,0.023c-0.033,0-0.073,0-0.194-0.015c-0.072-0.015-0.14,0-0.249,0.022l-0.083,0.029
	c-0.022,0.008-0.048,0.017-0.106,0.042L89.548,2.81L89.5,2.82c-0.05,0-0.095,0.004-0.161,0.004L89.24,2.851
	c-0.126,0.026-0.257,0.012-0.382,0.03L88.802,2.89L88.75,2.896L88.697,2.91L88.629,2.93l-0.053,0.025l-0.059,0.022l-0.066,0.025
	l-0.055,0.012l-0.14,0.003c-0.354,0.109-0.371,0.138-0.427,0.251l0.089,0.038L87.84,3.365c0.086-0.003,0.18-0.003,0.274-0.003
	l0.009,0.049l0.026,0.005l-0.015,0.055l0.1,0.004c0.015,0,0.03,0,0.097-0.001l0.161-0.035l0.063-0.014
	c0.053-0.001,0.109-0.003,0.242-0.019l0.097-0.013c0,0,0.023,0,0.079,0.006L89,3.398c-0.065,0.034-0.126,0.07-0.22,0.124
	l-0.096,0.041l-0.056,0.016c-0.076,0.017-0.177,0.047-0.251,0.076h-0.033l-0.028,0.001L88.303,3.64h-0.04l0.003-0.02l-0.022-0.005
	h-0.062h-0.006h-0.002H88.17h-0.005h-0.008c0,0-0.002,0-0.088,0.01c-0.052,0.015-0.126,0.027-0.182,0.038h-0.042l-0.141-0.035
	l-0.051,0.004l-0.177,0.076c-0.055,0-0.115,0.004-0.177,0.005c-0.139,0.034-0.139,0.034-0.233,0.137l-0.013,0.027
	c0.082,0.022,0.107,0.03,0.216,0.149l0.008,0.015l-0.101,0.006l-0.073,0.025l-0.056,0.032l-0.022,0.032l0.045,0.03l-0.023,0.031
	l-0.018,0.028l-0.037,0.032l0.006,0.016l0.02,0.016l0.01,0.014l0.045,0.045l0.021,0.019l-0.002,0.03l0.106,0.032h0.019l0.043-0.001
	l0.065-0.024l0.036-0.033l0.133-0.128c0.005,0,0.019,0,0.08-0.002c0.059-0.002,0.136,0.016,0.195,0.031l0.015,0.015l0.022,0.008
	l0.012,0.016l0.045-0.007l0.086-0.066h0.146l0.006,0.023c0.048,0.016,0.133,0.026,0.191,0.019l0.065-0.031l0.056-0.014l0.055-0.018
	l0.049-0.01h0.002h0.003h0.006h0.003h0.005h0.002h0.006h0.003h0.003l0.047-0.008l0.065-0.032l0.14-0.043l0.074,0.065l0.016,0.015
	h0.104l0.101,0.005h0.041l0.072,0.064l-0.002,0.031l0.027,0.015l0.032,0.009c0.085,0,0.166,0,0.245,0l0.031,0.008l0.078,0.063
	l0.016,0.026l0.1,0.005l0.037-0.002h0.04v0.098l0.083,0.035c0.013,0,0.024,0,0.094,0.014l0.018,0.086
	c-0.066,0.077-0.143,0.155-0.227,0.309v0.036l0.011,0.034l0.028,0.009h0.062l0.028,0.028l0.043,0.016l0.025,0.029l-0.022,0.107
	L89.931,5.26l0.027,0.105L89.981,5.4l-0.008,0.054l0.003,0.039l-0.01,0.183l-0.013,0.166l0.022,0.026l0.048,0.116l-0.043,0.055
	c-0.095,0.082-0.106,0.093-0.086,0.274c-0.045,0.074-0.087,0.145-0.136,0.217c-0.166,0.112-0.166,0.112-0.216,0.21h0.237
	c-0.029,0.06-0.071,0.119-0.163,0.175c-0.063,0.008-0.145,0.031-0.194,0.059c-0.076,0.107-0.099,0.247-0.194,0.344h-0.191
	c-0.033,0.061-0.069,0.123-0.104,0.184l0.007,0.107c0.058,0.021,0.132,0.044,0.197,0.05c0.029,0,0.064,0,0.192,0.022l0.098,0.026
	c0.181-0.001,0.354-0.001,0.55-0.034c0.053-0.1,0.053-0.1,0.55-0.167c-0.044,0.209-0.108,0.471,0.286,0.482h0.008h0.004h0.006h0.009
	h0.009h0.002h0.013h0.02c0.117,0.067,0.196,0.175,0.301,0.26l-0.007,0.095L91.108,8.44c-0.07,0-0.143,0-0.255-0.003l-0.104-0.02
	h-0.225h-0.025c-0.22,0.011-0.351,0.019-0.449-0.168c-0.782-0.077-0.865-0.026-0.869,0.217l0.148,0.157
	c-0.192,0.217-0.582,0.14-0.72,0.457l0.058,0.088c0.456,0.047,0.456,0.047,0.628,0.31l0.116,0.024
	c0.381-0.264,0.381-0.264,0.81-0.255c0.041-0.122,0.086-0.242,0.114-0.359c-0.144,0.006-0.292-0.018-0.435-0.031L89.88,8.763
	c-0.062,0.001-0.144-0.009-0.202-0.022l0.102-0.102c0.07,0,0.146,0,0.293,0.008c0.153,0.114,0.153,0.114,0.47,0.165h0.322
	c0.059,0.005,0.137,0.033,0.185,0.068l0.014,0.107l-0.029,0.068c-0.134,0.057-0.21,0.19-0.321,0.269
	c-0.006,0.018-0.012,0.033-0.006,0.108c0.135,0.16,0.135,0.16,0.155,0.262c-0.038,0.104-0.067,0.21-0.1,0.316
	c-0.11,0-0.221,0-0.418-0.03c-0.157,0.051-0.274,0.203-0.458,0.191h-0.011c-0.045,0-0.093,0-0.18-0.025
	c-0.064-0.015-0.148-0.006-0.207,0.01c-0.065,0.178-0.13,0.357-0.282,0.524c-0.06-0.012-0.135-0.043-0.197-0.068
	c-0.66,0.334-0.66,0.334-0.679,0.402c-0.007,0.023-0.015,0.047-0.026,0.161c0.011,0.063,0.034,0.145,0.065,0.201
	c0.427,0.097,0.455,0.218,0.452,0.25c-0.006,0.313-0.49,0.211-0.483,0.536l0.051,0.106c0,0,0.063,0.198,0.114,0.434
	c0.254,0.087,0.453-0.135,0.693-0.123c0.046,0,0.091,0,0.201,0.023l0.051,0.088c-0.025,0.059-0.068,0.14-0.095,0.194
	c-0.048,0-0.09,0-0.183,0.017l-0.098,0.033c-0.337,0.85-0.337,0.85-0.253,0.984c0.394,0.001,0.643-0.426,1.057-0.353
	c-0.04,0.168-0.082,0.34-0.18,0.562c-0.152,0.142-0.385,0.136-0.539,0.264c-0.114,0.089,0.705,2.001,0.713,2.018
	c0.616,0.916,1.133,1.365,1.532,1.332c0.052,0,0.108,0,0.229-0.018c0.136-0.069,0.136-0.069,0.345-0.088l0.101,0.001
	c0.106,0.027,0.211,0.036,0.313,0.063c0.013,0.6,0.673,0.514,0.947,0.845c0.147,0.167,1.299,0.178,1.276-0.352
	c0-0.051,0.008-0.098,0.013-0.228c0.06-0.664,1.164-1.313,0.46-1.921c-0.009-0.002-0.443-0.42,0.256-0.467
	c0.055,0,0.103,0,0.226-0.014c0.128-0.023,0.128-0.023,0.327-0.018c0.245-0.419,0.245-0.419,0.628-0.69
	c0.003-0.22,0.006-0.438,0.084-0.709l0.071-0.073c-0.018-0.353-0.126-0.444-0.267-0.566l0.023-0.103
	c0.215-0.136,0.497-0.032,0.706-0.195c0.144-0.113,0.031-0.276,0.072-0.408c0.276,0.001,0.56,0.004,0.836,0.004
	c-0.036-0.271-0.036-0.294-0.012-0.45c0.152,0.003,0.307,0.003,0.464,0.054c-0.011,0.333-0.008,0.343,0.066,0.454
	c0.426-0.043,0.731-0.356,1.115-0.519h0.156c0.186,0.011,0.186,0.011,0.491-0.095l-0.016-0.108c0.126-0.242,0.383-0.365,0.533-0.577
	c0.156-0.06,0.156-0.06,0.293-0.37c0.066-0.019,0.164-0.05,0.228-0.085c-0.006-0.035-0.017-0.074,0.017-0.168
	c0.264-0.228,0.264-0.228,0.188-0.523v-0.02l0.042,0.003l0.113,0.013l0.03,0.013l0.034,0.018l0.027,0.005l0.073,0.046l0.034,0.01
	l0.072,0.064c0.146,0.05,0.164,0.057,0.326,0.045c0.303-0.021,0.558,0.194,0.857,0.191c0.388-0.003,0.41-0.552,0.807-0.54
	c0.275,0.011,0.507-0.216,0.788-0.167c0.405,0.063,0.246-0.553,0.57-0.649c0.188,0.004,0.378,0.007,0.601,0.011
	c0.116-0.062,0.116-0.062,0.278-0.313l-0.048-0.09l-0.131-0.053l-0.137,0.151l-0.036,0.126l-0.106-0.004
	c-0.025,0-0.049,0-0.106-0.006c-0.22-0.042-0.341-0.291-0.585-0.288c-0.035,0-0.07,0-0.171-0.003c-0.7-0.03-0.823-0.25-0.886-0.359
	c-0.031-0.067-0.057-0.136-0.084-0.2c0.794-0.127,0.794-0.127,0.935-0.26c0.342,0.132,0.397,0.621,0.816,0.662l0.073-0.072
	l0.028-0.178c0.19-0.087,0.412,0.029,0.605-0.078c-0.258-0.357-0.68-0.495-0.999-0.772c-0.275-0.243-0.7-0.305-0.863-0.697
	l0.098-0.037c0.436,0.249,0.436,0.249,0.467,0.249c0.035,0,0.068,0,0.18-0.017l0.103,0.015c-0.082-0.162-0.082-0.162-0.191-0.343
	c-0.018-0.028-0.044-0.057-0.088-0.174c-0.025-0.113-0.344-0.417-0.683-0.141c-0.104-0.001-0.206-0.003-0.314-0.076l0.152-0.138
	c-0.04-0.036-0.04-0.036-0.371-0.166l0.021-0.059c0.127,0.003,0.252,0.006,0.375,0.01c0.047,0.073,0.098,0.147,0.148,0.223
	c0.117,0.003,0.23,0.009,0.427-0.019l0.06-0.089h0.102c0.032,0,0.063,0,0.176,0.017c0.203,0.082,0.203,0.082,0.323,0.034
	c0.086-0.537-0.714-0.308-1.023-0.534l0.021-0.095c0.419,0.09,0.545,0.036,0.601,0.012l0.057-0.109l0.099,0.036l0.134,0.006
	c0.058,0.004,0.139-0.014,0.189-0.035c-0.307-0.288-0.78-0.327-1.037-0.686c0.03-0.029,0.03-0.029,0.249-0.036
	c-0.065-0.068-0.132-0.135-0.271-0.257c-0.209-0.101-0.209-0.101-0.305-0.177c0,0,0-0.004-0.072-0.063
	c-0.278-0.144-0.635-0.086-0.882-0.313l-0.037-0.038c0.06-0.071,0.06-0.071,0.264-0.102c0.046,0,0.093,0,0.152,0.001
	c0.095,0.001,0.169,0.002,0.38,0.128c0.011,0.009,0.022,0.019,0.07,0.088c0.066,0.118,0.077,0.134,0.402,0.337l0.057-0.03
	c-0.19-0.174-0.383-0.34-0.583-0.521l-0.026-0.093l-0.055-0.04c-0.168-0.089-0.168-0.089-0.489-0.097
	c-0.03-0.002-0.067-0.002-0.133-0.008l-0.102-0.004c-0.064-0.06-0.137-0.119-0.165-0.188l0.093,0.031l0.072,0.002l0.1-0.036
	c-0.138-0.084-0.614-0.226-0.773-0.14l0.039,0.098c-0.082-0.028-0.178-0.061-0.326-0.249l-0.011-0.081
	c-0.192-0.142-0.192-0.142-0.321-0.246l0.155,0.004l-0.096-0.064l-0.002-0.097c0.016,0,0.033,0-0.01-0.055
	c-0.252-0.125-0.259-0.148-0.294-0.268l0.101-0.024l-0.094-0.049l-0.014-0.096l-0.112-0.037c-0.111-0.005-0.227-0.008-0.344-0.011
	l-0.089-0.077c0.061,0.009,0.144,0.028,0.2,0.035l0.084-0.029l-0.172-0.102l0.068-0.046C101.202,1.941,101.121,1.923,101.055,1.904
	 M94.421,1.668c0.065-0.013,0.129-0.024,0.198-0.038l-0.177,0.014l-0.044-0.006l0.188-0.026l0.133-0.025l-0.17,0.007l-0.092,0.002
	l-0.265,0.019l0.229-0.025l-0.141,0.004l0.165-0.014l-0.014-0.003L94.307,1.58c-0.092,0.006-0.191,0.014-0.293,0.019l0.178-0.013
	l-0.156,0.007c-0.092,0.003-0.182,0.013-0.271,0.013l0.099-0.007l-0.369,0.017c-0.053,0.003-0.129,0.011-0.181,0.015l-0.041,0.002
	l0.117-0.014c-0.229,0.016-0.527,0.029-0.752,0.041L92.24,1.697l0.107-0.005c-0.228,0.03-0.443,0.097-0.674,0.094
	c0.081-0.015,0.165-0.024,0.238-0.041l-0.073-0.006c0.145-0.017,0.288-0.034,0.438-0.049l-0.15,0.007l0.126-0.01l-0.206,0.01
	C91.829,1.719,91.6,1.74,91.381,1.765l-0.067,0.002l0.121-0.018l-0.043,0.002c-0.195,0.016-0.385,0.04-0.58,0.057L90.765,1.81
	h-0.053L90.36,1.854l-0.058-0.002l-0.388,0.052l-0.02,0.007L89.85,1.924l-0.504,0.075C89.208,2.072,89.06,2.059,88.92,2.09
	l0.066,0.002l-0.054,0.042l0.535-0.089l0.313-0.047l0.201-0.019l-0.427,0.063l-0.529,0.089l-0.443,0.092
	c0.275,0.002,0.275,0.002,0.949-0.117l0.073,0.014c0.065-0.003,0.127-0.008,0.188-0.008l0.461-0.075l0.38-0.06
	c0.233-0.037,0.463-0.061,0.697-0.091l0.053,0.008l-0.115,0.006c-0.29,0.04-0.576,0.083-0.863,0.128l0.2-0.009l0.012,0.009
	l0.035,0.005l-0.305,0.06c-0.058,0.001-0.12,0.003-0.173,0.003l-0.177,0.01L89.773,2.14c-0.168,0.015-0.34,0.044-0.506,0.062
	l-0.102,0.003l-0.162,0.019c-0.121,0.026-0.245,0.053-0.363,0.081l0.036,0.015l-0.138,0.05l-0.305,0.092l0.112,0.031L88.17,2.51
	l-0.108-0.004c0.416-0.176,0.416-0.176,0.477-0.221l-0.067-0.003l-0.126-0.016L87.906,2.36l-0.252,0.078l-0.32,0.108l-0.357,0.156
	L86.896,2.77l0.161,0.026c-0.168,0.047-0.35,0.06-0.518,0.115c-0.141,0.046-0.283,0.091-0.419,0.139l0.34-0.189l-0.062-0.026
	l-0.284,0.029l-0.262,0.038l-0.418,0.084c-0.141,0.043-0.282,0.089-0.422,0.131l-0.293,0.099l0.046,0.032
	c0.081-0.004,0.163-0.004,0.241-0.009l0.278-0.029l-0.525,0.12l-0.344,0.142c0.156,0.03,0.156,0.03,1.081-0.21l-0.522,0.17
	l-0.581,0.152l-0.255,0.025l0.008-0.12l0.087-0.119c-0.083,0.007-0.167,0.014-0.247,0.023c-0.9,0.354-0.9,0.354-1.29,0.419
	l-0.514,0.162l-0.405,0.226l-0.029,0.1c0.162-0.035,0.381-0.073,0.541-0.13c0.009,0.006,0.009,0.006,0.724-0.029l0.023,0.063
	c0.121,0.013,0.242-0.041,0.367-0.058c0.073-0.002,0.142-0.005,0.165,0.024c-0.287,0.127-0.287,0.127-0.32,0.169
	c0.089,0.004,0.129,0.008,0.297-0.034c0.057-0.002,0.118-0.002,0.178-0.005c0.936-0.242,0.936-0.242,1.22-0.354l0.289-0.159
	l-0.443,0.107l0.411-0.212l0.316-0.048l0.518-0.193l0.331-0.166l0.156-0.003c0.394,0.017,0.715-0.231,1.082-0.322
	c0.066-0.002,0.134-0.002,0.238-0.002c0.017,0,0.208,0,0.394-0.175l-0.021-0.061h-0.064l-0.363,0.076L87.48,2.854l0.284-0.107
	c0.286-0.054,0.566-0.122,0.848-0.183l0.156-0.002L88.593,2.64c0.148,0.03,0.148,0.03,0.81-0.11l0.195-0.119l0.229-0.013
	l-0.18,0.083l0.194-0.012l0.364-0.059l0.303-0.123l0.018-0.042c0.073,0,0.148-0.003,0.22-0.003l0.136-0.001l0.312-0.072l0.29-0.039
	c0.419-0.08,0.834-0.14,1.251-0.22l0.169-0.008l0.218-0.035l0.131-0.049c-0.104,0.016-0.104,0.016-0.643,0.041l0.262-0.049
	l0.232-0.023h0.154c0.056-0.001,0.104-0.001,0.189-0.008c0.164-0.019,0.326-0.028,0.492-0.049C94.175,1.71,94.175,1.71,94.421,1.668
	 M86.629,2.72c0.191-0.051,0.375-0.101,0.564-0.151c0.049-0.064,0.049-0.064,0.103-0.088l0.343-0.087
	c0.098-0.024,0.208-0.049,0.308-0.07l0.168-0.054c-0.111,0.02-0.224,0.042-0.336,0.057c0.006,0,0.565-0.165,1.054-0.253
	c0.239-0.044,0.482-0.065,0.72-0.135C89.321,1.961,89.146,1.99,89.057,2l0.065,0.001c-0.404,0.065-0.408,0.065-0.462,0.065
	l-0.112,0.005c-0.284,0.037-0.562,0.098-0.838,0.149l-0.064-0.007l-0.151,0.022l-0.557,0.105l-0.333,0.058
	c-0.182,0.034-0.358,0.072-0.537,0.109l0.047,0.003c-0.191,0.042-0.377,0.087-0.565,0.128l-0.231,0.076l0.196-0.025l0.289-0.045
	l0.193-0.018c-0.417,0.12-0.417,0.12-0.698,0.161l-0.142,0.005l-0.358,0.072l-0.237,0.094l-0.5,0.161l0.029,0.063l0.337-0.045
	l0.002,0.052l0.386-0.102l0.09-0.002c0.044-0.008,0.075-0.014,0.404-0.119l0.453-0.127l-0.088,0.063
	c0.476-0.111,0.476-0.111,0.491-0.111l0.003,0.027C86.217,2.816,86.255,2.813,86.629,2.72 M82.421,3.796
	c0.245,0.002,0.744-0.232,0.91-0.31L82.925,3.55l-0.666,0.202L82.421,3.796 M82.32,5.023h0.011l0.461-0.278l-0.165-0.107
	l-0.214-0.09l-0.551,0.127l-0.696,0.135l-0.36,0.044l-0.208-0.073l-0.355,0.03l0.324-0.244l0.555-0.242l0.457-0.216
	c-0.095,0.002-0.196,0.008-0.292,0.013c-0.214,0.029-0.512,0.072-1.659,0.682L78.874,5.09l-0.315,0.212l-0.202,0.212l0.468-0.052
	c0.147-0.047,0.344-0.106,0.487-0.15c-0.071,0.073-0.138,0.151-0.206,0.227l0.002,0.022c0.037,0.011,0.098,0.021,0.406-0.018
	c0.171-0.007,0.349-0.014,0.52-0.019l0.378-0.082l0.349-0.135l-0.1,0.143c0.911-0.077,0.911-0.077,1.169-0.234
	C81.947,5.144,82.027,5.09,82.32,5.023 M76.31,5.68c0.059-0.003,0.123-0.008,0.183-0.011l0.301-0.165L76.31,5.68 M77.895,5.412
	l0.649-0.276l0.14-0.134l0.353-0.187l-0.244,0.042l-0.577,0.152l-0.464,0.18L77.39,5.422c0.065-0.003,0.132-0.008,0.2-0.01
	l-0.059,0.103L77.895,5.412 M80.125,4.422l0.57-0.18l0.363-0.141l0.295-0.159c-0.067,0.006-0.138,0.008-0.206,0.01l0.093-0.066
	l-0.312,0.051l-0.58,0.197l-0.225,0.147l-0.183,0.136L80.125,4.422 M82.518,3.592c0.133-0.045,0.274-0.09,0.412-0.135
	c-0.076,0.004-0.146,0.007-0.217,0.011c-0.066,0.003-0.13,0.008-0.195,0.008l-0.49,0.127c-0.116,0.037-0.234,0.075-0.343,0.114
	l0.28-0.028l0.259-0.049L82.518,3.592 M83.072,3.327l0.38-0.103l0.357-0.139l-0.119-0.015l0.377-0.132L83.68,3.023L83.259,3.15
	l-0.742,0.226l0.032,0.031l0.243-0.033L83.072,3.327z M85.351,2.6l0.311-0.055l0.603-0.129l0.114-0.031L86.297,2.39
	c-0.192,0.036-0.378,0.073-0.561,0.108l0.096-0.002L85.351,2.6 M81.679,3.552l0.444-0.122l0.514-0.156l0.27-0.093l0.505-0.142
	l0.164-0.064l0.23-0.073l-0.18,0.025l0.301-0.084l0.278-0.08l-0.171,0.026l-0.483,0.082l-0.439,0.106l0.126-0.017l-0.166,0.053
	l-0.554,0.144l-0.123,0.005l-0.478,0.139l0.132-0.022l-0.27,0.087l0.32-0.072l0.032,0.009l0.095,0.014L81.696,3.51L81.679,3.552
	 M80.957,3.662l0.292-0.063l0.302-0.114L81.348,3.51l-0.482,0.147L80.957,3.662z M79.188,4.522c0.084-0.033,0.539-0.214,0.571-0.29
	c-0.035,0.003-0.104,0.018-0.423,0.118l0.336-0.179l-0.16,0.01c-1.055,0.485-1.089,0.485-1.14,0.488l-0.015-0.016l0.006-0.011
	l0.64-0.299l-0.152,0.01l-0.524,0.192L77.789,4.76l0.306-0.174l0.821-0.317L79.1,4.144l-0.796,0.269
	c-0.333,0.132-0.656,0.301-0.985,0.451l-0.08,0.108l0.309-0.08l0.192-0.04l-0.308,0.152l-0.699,0.321l0.334-0.1l0.239-0.023
	l0.225-0.047l0.483-0.195c0.23-0.096,0.456-0.188,0.691-0.281C78.864,4.622,79.033,4.577,79.188,4.522 M76.417,5.169
	c0.209-0.081,0.203-0.118,0.203-0.12l-0.007-0.001c-0.121,0.012-0.219,0.091-0.342,0.104l-0.457,0.195
	C76.049,5.312,76.049,5.312,76.417,5.169 M79.481,3.997l0.327-0.077l0.695-0.239l0.302-0.115
	C80.335,3.696,80.004,3.796,79.481,3.997 M76.251,11.388l0.591-0.403l0.177-0.415c-0.768,0.045-0.768,0.045-0.826,0.064
	c-0.039,0.014-0.293,0.144-0.798,0.468l-0.116,0.364l0.396,0.046L76.251,11.388 M76.628,6.347c0.785-0.334,0.785-0.334,0.785-0.433
	L77.39,5.91c-0.084,0.003-0.175,0.007-0.265,0.01l-0.022-0.105c-0.438,0.042-0.438,0.042-0.534,0.083
	c-0.708,0.343-0.708,0.343-0.983,0.422c-0.342,0.172-0.675,0.349-1.003,0.529c-0.314,0.187-0.621,0.382-0.934,0.571l0.416-0.082
	l0.554-0.209l0.571-0.308l0.16,0.073l0.528-0.201L76.628,6.347 M72.556,7.791l0.772-0.377l0.399-0.283l0.299-0.253l0.128-0.164
	c0.795-0.252,0.795-0.252,1.284-0.623l0.242-0.156l-0.247,0.031l-0.495,0.225l-0.09,0.004l0.039-0.094l-0.363,0.094L74.096,6.42
	l-0.344,0.242c-0.876,0.407-0.876,0.407-0.966,0.401c0.03-0.026,0.067-0.068,0.286-0.226l-0.189,0.028l-0.504,0.243l-0.188,0.191
	l-0.143,0.145l0.047,0.092c-0.672,0.463-0.672,0.463-0.629,0.594c0.056-0.017,0.12-0.036,0.692-0.294L72.556,7.791 M72.592,6.791
	l0.721-0.323l0.21-0.136l-0.118-0.079c-0.152,0.055-0.356,0.114-0.493,0.19l-0.308,0.218c-0.022,0.02-0.103,0.071-0.49,0.311
	L72.592,6.791 M72.556,6.541l0.507-0.211L72.889,6.36l-0.395,0.149L72.556,6.541z M81.395,3.316
	c0.362-0.089,0.362-0.089,0.689-0.193l-0.161,0.022l-0.295,0.059l-0.688,0.158l0.102-0.011l0.146-0.01
	c0.063-0.006,0.123-0.012,0.187-0.019L81.395,3.316 M80.241,3.61l0.499-0.125l-0.078,0.006l-0.169,0.015L80.2,3.566l-0.484,0.12
	l-0.845,0.252L78.84,3.961l0.276-0.065l0.202-0.026l0.43-0.119l0.38-0.119L80.241,3.61 M79.487,3.717l0.04,0.004l0.646-0.177
	l0.224-0.07l-0.11,0.017l-0.488,0.134L79.487,3.717z M76.004,5.187l1.037-0.376l0.292-0.131l-0.101,0.008l-0.444,0.155l0.11-0.076
	l0.475-0.208c0.157-0.056,0.32-0.111,0.48-0.164l0.525-0.185l-0.117,0.011l-0.391,0.114l-0.227,0.056l-0.383,0.127
	c-0.289,0.125-0.289,0.125-1.039,0.383l0.023,0.03c-0.368,0.145-0.39,0.147-0.522,0.161c-0.06,0.006-0.117,0.012-0.174,0.017
	l0.281-0.134l0.677-0.265l0.177-0.092l-0.104,0.011l0.249-0.104l0.032-0.025l-0.422,0.11l-0.776,0.247l-0.566,0.18l-0.63,0.208
	l-0.595,0.22l0.114-0.001l-0.057,0.06l0.226-0.051l0.359-0.103l0.026,0.051l0.14-0.013c-0.205,0.067-0.314,0.103-0.459,0.128
	L74.06,5.552l-0.394,0.128L73.248,5.85L73.098,5.94c0.07-0.008,0.143-0.014,0.218-0.021l0.653-0.195l0.717-0.243l0.261-0.05
	c0.073-0.007,0.149-0.012,0.225-0.019c0.081-0.007,0.161-0.011,0.238-0.02L76.004,5.187 M77.47,4.314l0.052,0.02l0.492-0.159
	C77.848,4.21,77.817,4.218,77.8,4.213l0.062-0.021L77.47,4.314 M74.473,5.219l1.074-0.363L75.173,4.96l-0.667,0.219L74.473,5.219z
	 M78.056,4.099l0.705-0.198l0.13-0.061l-0.579,0.157l-0.126,0.018C78.122,4,76.154,4.593,76.135,4.601l-0.094,0.012l-0.445,0.129
	l-0.593,0.202l-0.257,0.108l0.568-0.183l-0.347,0.129l0.367-0.11l0.421-0.141l0.128-0.026l0.637-0.202l0.476-0.138l-0.608,0.203
	l0.263-0.071l0.405-0.108L78.056,4.099 M68.5,9.547l0.424-0.238l0.163-0.239l-0.031-0.248l0.487-0.403l0.768-0.413l0.277-0.246
	l0.97-0.521l0.526-0.321l0.146-0.174c-0.071,0.004-0.142,0.01-0.208,0.015c-0.258,0.124-0.518,0.246-0.77,0.37l-0.497,0.267
	l-0.607,0.358l-0.383,0.168l-0.051-0.015l0.217-0.159l0.514-0.271l0.396-0.221l0.572-0.341l-0.108-0.011l-0.468,0.24l-0.349,0.196
	c-0.062,0.007-0.121,0.01-0.18,0.017l-0.379,0.182L69.686,7.6l0.449-0.209l0.551-0.25l-0.073-0.011l0.084-0.099L70.51,7.067
	l-0.534,0.247l-0.023-0.036l0.365-0.158l0.632-0.299l0.078-0.059L70.869,6.78l-0.58,0.226l-0.345,0.123l-0.323,0.103l-0.554,0.219
	l-0.64,0.318L67.81,8.021l-0.384,0.19l0.099-0.014l-0.31,0.182l0.365-0.134l0.266-0.068L67.54,8.38l-0.412,0.144l-0.342,0.118
	l-0.45,0.206L66.12,9.05c0.073-0.005,0.141-0.015,0.209-0.025l0.339-0.072c0.072-0.01,0.143-0.016,0.201,0
	c-0.171,0.183-0.171,0.183-0.584,0.393L65.945,9.36c-0.112,0.011-0.225,0.024-0.334,0.033L64.93,9.68l-0.776,0.52l0.217-0.004
	c0.071-0.005,0.15-0.014,0.228-0.022l-0.711,0.506l-0.188,0.21c0.11-0.012,0.22-0.023,0.335-0.032l0.368-0.057l0.61-0.27
	l0.461-0.156l0.674-0.294l0.393-0.167l-0.18,0.175l0.243-0.064l-0.169,0.352l0.253,0.009l0.349-0.073l0.634-0.358l0.231-0.276
	l0.208-0.037L68.5,9.547 M65.425,10.746l0.557-0.359l-0.68,0.22l-0.91,0.391l0.109,0.091l0.568-0.243L65.425,10.746z M70.541,6.865
	l0.525-0.171l0.604-0.271l0.571-0.303l-0.018-0.027l-0.536,0.181l0.204-0.122l0.26-0.141l-0.047-0.019l-0.345,0.095
	c-0.172,0.067-0.341,0.134-0.506,0.201l-0.9,0.373l-1.385,0.591L67.07,8.093l-0.295,0.201l-1.138,0.619l0.792-0.368l0.155-0.025
	l0.573-0.254c0.94-0.447,2.408-1.057,2.419-1.061L70.541,6.865 M82.25,27.302l0.442-0.35l-0.35-0.34l0.354-0.343l0.199-0.72
	l-0.918-0.124l-0.082-0.42c-0.343,0.002-0.684,0.002-1.02,0.005l-0.908,0.428l-0.615,0.341l-0.4-0.166l0.318-0.508l0.997-0.301
	l1.161-0.251l0.59-0.415l-0.697-0.039l-0.6-0.325l-0.835-0.233l-0.405-0.485l-0.47-0.48l-0.103-0.434l0.396-0.081l0.23-0.317
	l-0.321-0.735L78.84,20.21l-0.369-1.375l-0.031-0.616l-1.018,0.812c-0.104,0.234-0.202,0.468-0.306,0.706l-0.832,0.273l-0.669,0.499
	l-0.66-0.025l0.061-0.456l-0.285-0.335l-0.727,0.162l0.568-0.789c0.176-0.343,0.352-0.685,0.527-1.021l0.253-0.535l-0.729-0.023
	l-0.355-0.381l-0.191-0.546l-0.525-0.569l-0.498,0.279l-0.729-0.019l-0.168-0.198c-0.277,0.005-0.553,0.012-0.822,0.018
	l-0.604,0.386l-0.081,0.551l-0.63,0.748l-0.231,0.502l-0.152,0.686c-0.154,0.003-0.306,0.008-0.452,0.011l-0.392,0.672l-0.522,0.38
	l0.223,0.297l0.313,0.479l-0.323,0.889c-0.182,0.339-0.366,0.686-0.546,1.034l-0.838,0.736l-0.932,0.585l-0.947,0.144l0.037,0.898
	c-0.197,0.391-0.385,0.787-0.577,1.183l-0.065,0.682l-0.401,0.562l-0.72,0.715l-0.949,0.148l-0.043-0.989l-0.182-0.842
	c0.118-0.244,0.244-0.483,0.366-0.723l0.359-1.002l0.559-0.833l-0.943-0.126l-0.725-0.018l-0.218-0.275l-0.736-0.254l-0.036-0.469
	l-0.403-0.492l-0.376-0.52l-1.186,0.351l0.149-0.503l0.489-1.145l-0.202-0.285l0.078-0.438l1.248-1.376l1.299-1.023l1.213-0.892
	l0.815-0.331l0.835-0.46l0.273-0.462l-0.458-0.173l-0.374-0.298l0.652,0.13l0.469,0.202L65.883,15l0.546-0.492l0.34,0.235
	l0.439-0.112l0.396-0.385l0.379-0.171l0.616-0.512l-0.354-0.048l-0.461-0.042l0.102-0.273l-0.242-0.289l0.358,0.016l0.395,0.194
	l0.24,0.171l0.618-0.204l0.759-0.467l0.064-0.35c0.141-0.005,0.281-0.01,0.427-0.014l-0.078,0.322l-0.58,0.373l-0.871,0.69
	c-0.269,0.281-0.541,0.571-0.809,0.863l-0.641,0.213l-0.233,0.388l0.464,0.019c-0.107,0.123-0.213,0.243,0.03,0.396
	c0.116-0.037,0.264-0.086,0.379-0.121l0.588-0.468l0.621,0.009L69.672,15l0.2,0.186c0.176-0.004,0.354-0.011,0.538-0.017
	l0.455-0.493l-0.425-0.117l0.284-0.602l-0.555-0.047l-0.032-0.456l-0.317-0.112c0.113-0.114,0.223-0.229,0.338-0.34l0.305,0.079
	l0.414-0.251l0.216-0.271c0.161-0.002,0.311-0.009,0.472-0.016l0.563-0.395l0.821-0.395l0.462-0.323l0.107-0.336l0.382-0.557
	l0.487-0.091l0.562-0.412l0.154-0.391l-0.163-0.198l-0.121-0.295c0.188-0.006,0.374-0.013,0.562-0.016l0.306-0.203l0.352,0.038
	l0.063,0.218l0.501-0.038l0.545-0.113l0.079-0.369l0.329-0.079l-0.107,0.417l0.381,0.039l-0.246,0.408l0.252,0.07l-0.114,0.314
	l0.212,0.153l-0.173,0.401l0.294,0.154l0.009,0.415l-0.343,0.51l-1.004,0.567l-0.931,0.578l-0.174,0.547l-0.962,0.142l-0.35-0.116
	c-0.162,0.006-0.319,0.008-0.479,0.011l-0.973,0.483c-0.136,0.166-0.272,0.334-0.413,0.505l0.616,0.117l0.611-0.05l0.366-0.287
	l0.379-0.167l0.309,0.09l0.55,0.207l0.218,0.702l-0.102,0.391l0.128,0.498c0.211-0.005,0.431-0.009,0.649-0.013l0.305,0.671
	l1.031,0.02l0.533,0.3l0.276-0.413l-0.655-0.833l-0.251-0.359l0.013-0.393l0.5,0.352l0.885,0.619l0.469,0.365
	c0.104-0.206,0.199-0.408,0.304-0.608l0.64-0.533l-0.427-0.319l0.314-0.803L79.47,13.47l-0.292-0.973l0.481-0.271l0.457-0.244
	l0.647,0.887l0.113,0.585l0.491,0.087l0.54-0.682l0.8-0.252l0.245-0.27c0.141-0.003,0.296-0.004,0.445-0.004l0.346-0.3l0.199-0.438
	c-0.286,0.002-0.573,0.004-0.862,0.007c0.048-0.076,0.089-0.155,0.137-0.232l-0.285-0.367l-0.317-0.054l-0.38-0.215
	c-0.135,0-0.271,0.003-0.403,0.006l0.1-0.306l0.056-0.272c-0.219,0.003-0.441,0.009-0.664,0.011l-0.243-0.021
	c0.117-0.158,0.23-0.308,0.355-0.461c0.149,0,0.301-0.003,0.455-0.003l0.405-0.215l-0.484-0.145l0.226-0.181l0.329-0.056
	l-0.082-0.298L81.94,8.676l0.421-0.278l-0.287-0.182l-0.528,0.03l0.144-0.215l-0.378-0.018l-0.11-0.044l0.546-0.218l-0.289-0.13
	l-0.694,0.147l0.07-0.36l0.197-0.202l-0.287-0.018l0.274-0.24l-0.262-0.164c-0.206,0.004-0.416,0.01-0.619,0.017l-0.347,0.196
	L79.416,7.05l-0.205-0.058l-0.432,0.245l-0.33,0.031l0.415-0.31l0.583-0.286l0.28-0.369l0.4-0.32
	c-0.166,0.006-0.33,0.008-0.493,0.013l-0.617,0.249l-0.366,0.03l-0.494,0.173l-0.602,0.34L77.19,7.158l-0.511,0.248L76.28,7.883
	l-0.32,0.055l0.266-0.405l0.717-0.535l0.523-0.348l0.815-0.358l0.798-0.294c-0.145,0.004-0.287,0.006-0.428,0.014l-0.565,0.076
	l-1.125,0.423l-1.276,0.617l-1.277,0.797l0.274,0.083l0.262,0.014l-0.32,0.306l-0.24-0.061l-0.529,0.133l-0.256,0.385
	c0.146-0.007,0.287-0.01,0.433-0.015l0.35-0.109l-0.037,0.243l0.29,0.205l-0.521,0.142l-0.478,0.366l-0.063,0.255l-1.278,0.747
	l-0.812,0.542l-0.796,0.441l-0.096-0.166l0.531-0.641l0.678-0.395l0.224-0.579l-0.995,0.476l0.54-0.803l-0.048-0.098l0.622-0.408
	l0.581-0.449l-0.154-0.04l0.537-0.361l0.294-0.384l-0.368-0.004l-0.449,0.235l-0.22,0.031l-0.807,0.394l-0.403,0.317l-0.443,0.253
	l-0.295,0.419l-0.078,0.272l-0.669,0.403l-0.228-0.089l-0.532,0.458l0.379-0.043l0.814-0.346c-0.224,0.163-0.439,0.327-0.653,0.493
	l-1.333,0.534l-0.881,0.747l0.078-0.389l0.781-0.518c-0.089,0.006-0.174,0.009-0.258,0.014l0.613-0.47
	c0.078-0.004,0.163-0.009,0.241-0.013l0.872-0.672l0.027-0.365l-0.813,0.478l-0.604,0.231l-0.235,0.495l-0.668,0.318l-0.629,0.405
	l-1.018,0.109l-0.017-0.286L65.406,11.1l0.208-0.391L64.9,11.034l-0.917,0.377l-0.599,0.48l-1.119,0.78l1.021-0.902l0.12-0.314
	l-0.643,0.209l-0.56-0.093l0.386-0.261l0.619-0.254l0.388-0.437l-0.273,0.054l0.217-0.397l0.474-0.332l-0.075-0.049l-0.172,0.047
	l-0.57,0.305l-0.25,0.099l1.084-0.652l-1.104,0.6l0.022-0.058l1.297-0.75l0.145-0.104l-0.954,0.504l-0.646,0.343l-0.23,0.106
	l-0.54,0.278l-0.714,0.401l1.031-0.586l0.374-0.192l0.364-0.185l0.509-0.273l0.058-0.041L63.1,10.01l-0.735,0.392l-0.096,0.051
	l-0.029,0.012c-1.909,1.118-4.371,2.749-6.215,3.965c-2.912,2.082-2.912,2.082-8.167,6.84l-0.9,0.896l0.157-0.156l-0.31,0.33
	L46.3,22.879l-0.146,0.195l-0.506,0.532l-0.237,0.322l-0.466,0.5l-0.112,0.18l0.006,0.057l-0.503,0.583l-0.469,0.607l-0.58,0.714
	l-0.514,0.679l0.059,0.051l-0.604,0.814l-0.448,0.751l-0.377,0.569l-0.151,0.409l-0.028,0.276l0.009,0.192l-0.279,0.449
	l-0.171,0.549l-0.148,0.476l-0.601,1.097c-0.18,0.295-0.366,0.594-0.546,0.89l0.202-0.543l0.307-0.715l0.266-0.462l0.11-0.42v-0.165
	l0.47-0.725l-0.135,0.028l0.141-0.343l0.039-0.163v-0.113l-0.164,0.113l-0.325,0.574l-0.13,0.335l-0.212,0.477l-0.262,0.772
	l-0.449,0.868l-0.57,1.116l-0.535,0.911l-0.722,1.259c-0.256,0.47-0.503,0.946-0.75,1.422l-0.281,0.36
	c-0.161,0.317-0.314,0.634-0.476,0.952l-0.343,0.979l-0.485,0.969l-0.301,0.763l-0.177,0.645l-0.422,0.989l-0.179,0.809
	l-0.045,0.643l-0.382,1.41l-0.006,0.556l-0.2,0.739l-0.082,0.837c0.102-0.013,0.197-0.028,0.295-0.041l0.045,0.563l0.211,0.444
	l0.048,0.736l-0.171,0.92l-0.096,0.919l-0.189,1.534l0.105,0.645l0.152,0.751l-0.023,0.555l-0.345,0.532l0.056,0.607l0.223,0.588
	l0.312,0.646l0.148,0.723l-0.137,0.631l0.028,0.515l0.312,0.313l0.261,0.662l0.186,0.562l-0.048,0.692l0.225-0.245l0.13-0.762
	l-0.057-0.854l-0.28-0.321l0.044-0.747l-0.273-0.596v-0.956l0.008-0.9l-0.184-0.656l0.078-0.892l-0.231-0.257l0.057-1.097
	l-0.107-0.911l0.25-1.219l0.259-0.074l0.274,0.345l0.062,0.644l-0.211,1.053l0.13,1.359l0.241,1.086l0.281,0.761l0.174,0.776
	l-0.054,0.905l0.388,0.533l0.236,0.842l0.167,0.902l0.458,1.236l0.135,1.099l0.278,0.5l-0.339,0.436l-0.132,0.71l0.611,1.024
	l0.536,0.85l0.691,0.372l0.736,0.796l0.894,0.663l1.031,0.836l0.86,0.376l0.563-0.088l0.173-0.488l0.644-0.146l0.732,0.561
	l0.833,0.974l0.473,0.816c0.227-0.009,0.458-0.019,0.688-0.028c0.09-0.003,0.18-0.008,0.271-0.01l0.399,0.22l0.46,0.871l0.891,0.38
	l0.017-0.592l0.501,0.337c1.587,2.797,1.587,2.797,1.495,3.364l0.326,0.459l0.361-0.244l0.53,0.327
	c1.099,1.25,1.099,1.25,1.591,1.181l1.388,0.828l0.75,0.387l-0.126-0.92l0.31-0.593l1.281,0.084l0.181,0.575l0.412-0.063
	l0.177-0.765l-0.511-0.69c-0.444,0.014-0.888,0.023-1.323,0.031l-0.857-0.035l-1.248-0.08l-0.601-0.506l-0.843-1.086l-0.008-0.888
	c-0.017-0.39-0.036-0.78-0.048-1.175l0.214-1.491c-0.009-0.335-0.014-0.669-0.017-1.007l-0.399-0.764l-0.772-0.518l-1.134,0.157
	l-0.789-0.213l-0.855,0.509l-0.561-0.51l0.52-0.62v-0.483c0.006-0.196,0.006-0.393,0.01-0.593l0.213-0.667l0.311-1.077
	c0.014-0.396,0.033-0.792,0.053-1.189l0.51-0.483l0.125-0.887l-0.348-0.334l-1.217,0.161l-0.756,0.198l-0.363,0.838l-0.362,1.251
	l-0.384,1.142l-0.62,0.144l-0.865,0.394l-0.882,0.222l-0.381-0.818l-0.689-0.555l-0.207-0.937l-0.414-1.212l-0.112-2.087
	l0.037-1.502l0.469-1.173l0.337-1.325l-0.144-1.345l0.809-1.326l0.53-0.081l0.634-0.695l0.669-0.809l0.725,0.135l0.498,0.253
	l0.495-0.297l0.258,0.707c0.223-0.009,0.45-0.019,0.682-0.026l0.544-0.08l-0.028-0.549l0.345-0.899l0.863-0.083l0.617-0.131
	l1.098,0.118l0.317,0.768c0.124-0.005,0.25-0.007,0.377-0.012l0.316-0.455l0.349-0.124l0.442,0.654l0.393,0.818
	c-0.045,0.32-0.089,0.64-0.129,0.961l0.226,0.551l0.059,0.62l0.337,0.445l0.141,0.674l0.449,0.326l-0.029,0.741l0.432,0.164
	l0.319-0.52l0.296-0.81l-0.158-0.956l-0.093-1.461l-0.402-1.275c0.079-0.558,0.164-1.115,0.34-1.94
	c0.112-0.266,0.275-0.622,0.397-0.886l0.688-1.222l0.809-0.394l1.051-0.944l0.973-0.716l0.882-0.396l0.27-0.692l0.713-0.441
	l-0.312-1.147l-0.285-0.515l0.313-0.627l-0.228-0.565l0.706-0.376l0.346,0.82l0.5-0.839l0.517-0.726L63.1,41.26l0.774-1.53
	c0.401-0.007,0.803-0.012,1.211-0.023l0.891-0.511l0.938-0.115l-0.087-0.598l0.259-1.235l0.863-0.937
	c0.24-0.005,0.484-0.008,0.724-0.013l0.369-0.538l0.95,0.036l1.004-0.54l0.729-0.729c1.643-0.058,1.643-0.058,2.18,0.262
	c-0.101,0.075-0.234,0.169-0.332,0.246c-0.41,0.002-0.821,0.008-1.318,0.074c-0.838,0.555-0.838,0.555-0.869,1.25l0.472,0.238
	l0.682-0.494l0.482-0.295l0.86-0.253l0.96-0.436l0.906-0.203l0.845-0.818l0.789-0.57l0.224-0.655l-0.955,0.234l-0.832,0.995
	l-1.061,0.055l-0.758-0.413l-0.712-0.699l-0.153-1.206l0.924-0.604l0.208-0.954l-1.088-0.08l-1.301,0.375l-1.543,0.798l-1.652,1.317
	l-1.22,0.768l0.602-0.71l0.823-0.759l0.506-0.372l-0.899-0.26c0.41-0.008,0.826-0.016,1.245-0.021l0.499-0.646l0.873-0.6
	l0.841-0.052l0.565-0.728l0.776-0.274c0.365-0.002,0.734-0.008,1.1-0.011l2.024-0.066l0.999,0.172l0.833-0.053l0.961-0.583
	l0.922-0.791l1.372-0.14L82.25,27.302"/>
<path fill="#FF9364" d="M38.994,112.094c10.71-1.774,13.476-3.324,19.156-3.877c5.681-0.556,13.576-0.14,23.967,2.909
	c10.389,3.049,8.45,2.354,17.315,4.848c8.867,2.493,11.223,0.553,21.197,0.969c9.976,0.418,11.914,4.573,11.914,6.928
	c0,2.356-1.386,5.264-8.729,5.958c-7.343,0.691-11.637,0.969-15.376,0.691c-3.74-0.275-8.451-1.247-11.775-1.247
	c-3.326,0-4.295,0.414-4.295,0.414s0.415,2.357,0.415,3.466s0.277,2.011,1.938,1.768c1.663-0.244,6.789,2.13,10.391,2.399
	c3.603,0.267,1.801,1.234,3.603,0.267c1.801-0.971,3.74-1.203,7.481-1.571c3.74-0.369,7.618-1.095,7.618-1.095
	s2.494-3.013,5.817-5.233c3.327-2.213,5.959-3.183,5.959-3.183s4.987-7.204,10.667-7.621c5.68-0.416,5.542,2.218,4.985,3.325
	c-0.553,1.108-2.905,4.296-4.154,5.542c-1.247,1.247-2.909,3.187-4.155,4.017c-1.248,0.832-8.729,8.312-9.975,10.114
	c-1.248,1.799-3.188,3.325-5.126,3.877c-1.94,0.556-4.296,0.971-7.48,2.357c-3.188,1.384-15.101,3.046-17.595,4.155
	c-2.494,1.107-4.433,2.909-8.59,3.602c-4.155,0.691-13.299-6.373-21.473-8.313c-8.172-1.938-13.991-5.181-18.099-6.247
	c-4.107-1.066-8.674-0.705-11.635,0c-2.959,0.706-23.369,6.108-36.715,8.048c-13.346,1.938-53.521,8.313-53.521,8.313V124.01
	c0,0,55.036-3.049,65.892-4.851C29.473,117.36,31.475,113.341,38.994,112.094"/>
</svg>
