<?xml version="1.0" encoding="utf-8"?>
<!-- Generator: Adobe Illustrator 13.0.0, SVG Export Plug-In . SVG Version: 6.00 Build 14948)  -->
<!DOCTYPE svg PUBLIC "-//W3C//DTD SVG 1.1//EN" "http://www.w3.org/Graphics/SVG/1.1/DTD/svg11.dtd">
<svg version="1.1" id="Layer_1" xmlns="http://www.w3.org/2000/svg" xmlns:xlink="http://www.w3.org/1999/xlink" x="0px" y="0px"
	 width="127.834px" height="129.246px" viewBox="6.834 0 127.834 129.246" enable-background="new 6.834 0 127.834 129.246"
	 xml:space="preserve">
<circle fill="#63BF75" cx="21.499" cy="15.019" r="14.047"/>
<g>
	<path fill="#FFFFFF" d="M20.761,13.103h1.891c1.261,0,1.729-0.846,1.729-1.674c0-1.369-1.206-1.837-2.395-1.837
		c-0.954,0-1.927,0.54-2.161,1.513l-1.639-0.396c0.45-1.908,2.125-2.845,3.799-2.845c2.035,0,4.177,1.008,4.195,3.565
		c0,0.99-0.234,1.818-1.152,2.431c1.134,0.666,1.639,1.98,1.621,3.223c-0.018,1.819-1.531,3.745-4.556,3.745
		c-2.701,0-3.979-1.566-4.267-3.295l1.692-0.306c0.162,1.008,0.99,1.909,2.575,1.909c1.999,0,2.845-1.188,2.845-2.232
		c0-0.9-0.648-2.143-2.287-2.143H20.76L20.761,13.103L20.761,13.103z"/>
</g>
<g>
	<path fill="#0EAB69" d="M14.785,32.067h94.514L14.67,126.698V41.083"/>
	<path fill="#FFE13F" d="M14.67,127.34v-10.813l94.628-94.632h1.796c4.978,0,9.019,4.043,9.019,9.019v1.8L25.481,127.34H14.785"/>
	<polygon fill="#5C84C3" points="25.481,127.339 67.392,85.436 109.299,127.339 	"/>
	<path fill="#FFFFFF" d="M109.299,127.339L66.747,84.79l10.814-10.813l42.551,42.551v1.795c0,4.977-4.041,9.018-9.019,9.018
		L109.299,127.339L109.299,127.339z"/>
	<polygon fill="#D2D2D2" points="120.11,116.527 78.204,74.618 120.11,32.713 	"/>
	<g>
		<path fill="#5EBD73" d="M101.213,97.053h-0.042c-0.941,0-1.436-0.712-1.538-1.479c-2.299-16.628-6.655-22.878-10.391-29.063
			c-6.197-10.271-16.406-21.644-16.406-32.932c0-14.223,11.63-26.744,28.31-26.744h0.086c16.683,0,28.317,12.524,28.317,26.744
			c0,11.29-10.211,22.661-16.411,32.931c-3.732,6.187-8.095,12.437-10.388,29.063C102.649,96.343,102.155,97.053,101.213,97.053z"/>
		<circle fill="#FFFFFF" cx="100.922" cy="34.04" r="17.27"/>
		<g>
			<path fill="#9AC73C" d="M105.388,30.658c0,0,0.536-0.94,0.982-0.903s0.555,0.662,0.555,0.662s0.188-0.184,0.442-0.211
				c0,0-0.309,0.855,0,1.573c0,0-0.203,0.053-0.405-0.222c0,0-0.419,0.553,0.224,1.546c0.64,0.994,0.936,2.945,0.936,2.945
				s2.871-1.247,4.103,1.465c0,0-2.115-1.516-3.957,0c-1.839,1.516-1.033,1.496-2.198,1.864c0,0,0.139-0.41,0.323-0.636
				c0,0-0.722,0.931-1.877,0.931c-1.159,0-5.519-0.073-5.519-0.073s-0.478-0.055-0.497-0.386l-7.341-0.092
				c0,0-1.803,0.7,0.588-2.298c0,0,0.646-0.368,0.11-1.104c0,0,0.221-0.46,1.361-0.112c0,0,0.406-1.158-0.59-1.38v-0.202h4.713
				l0.018,0.239c0,0,2.844-0.459,4.137-0.239c0,0-2.334,2.025-0.4,4.408c0,0,0.625,0.667,4.47-0.012c0,0,0.58-0.348,0.206-2.831
				c-0.372-2.484,0.713-2.355,0.713-2.355L105.388,30.658z"/>
			<path fill="#010101" d="M112.102,39.532c0,1.376-1.117,2.492-2.491,2.492c-1.377,0-2.494-1.115-2.494-2.492
				s1.117-2.492,2.494-2.492C110.984,37.041,112.102,38.156,112.102,39.532"/>
			<path fill="#4E4E4E" d="M111.479,39.532c0,1.032-0.838,1.869-1.868,1.869c-1.031,0-1.871-0.837-1.871-1.869
				s0.84-1.869,1.871-1.869C110.641,37.663,111.479,38.5,111.479,39.532"/>
			<path fill="#F2F2F2" d="M111.126,39.532c0,0.838-0.679,1.517-1.516,1.517c-0.838,0-1.519-0.679-1.519-1.517
				c0-0.837,0.681-1.517,1.519-1.517C110.447,38.016,111.126,38.695,111.126,39.532"/>
			<path fill="#CBCBCA" d="M110.682,39.532c0,0.593-0.479,1.074-1.071,1.074c-0.593,0-1.074-0.481-1.074-1.074
				c0-0.594,0.481-1.073,1.074-1.073C110.202,38.459,110.682,38.938,110.682,39.532"/>
			<path fill="#979797" d="M110.014,39.532c0,0.224-0.183,0.405-0.403,0.405c-0.224,0-0.406-0.181-0.406-0.405
				c0-0.223,0.183-0.403,0.406-0.403C109.831,39.129,110.014,39.309,110.014,39.532"/>
			<path fill="#010101" d="M97.723,39.532c0,1.376-1.116,2.492-2.491,2.492c-1.377,0-2.492-1.115-2.492-2.492
				s1.115-2.492,2.492-2.492C96.606,37.041,97.723,38.156,97.723,39.532"/>
			<path fill="#4E4E4E" d="M97.146,39.532c0,1.058-0.858,1.916-1.915,1.916c-1.059,0-1.917-0.858-1.917-1.916
				s0.858-1.916,1.917-1.916C96.288,37.616,97.146,38.475,97.146,39.532"/>
			<path fill="#F2F2F2" d="M96.746,39.532c0,0.838-0.679,1.517-1.515,1.517c-0.838,0-1.519-0.679-1.519-1.517
				c0-0.837,0.681-1.517,1.519-1.517C96.067,38.016,96.746,38.695,96.746,39.532"/>
			<path fill="#CBCBCA" d="M96.303,39.532c0,0.593-0.479,1.074-1.071,1.074c-0.594,0-1.075-0.481-1.075-1.074
				c0-0.594,0.481-1.073,1.075-1.073C95.823,38.459,96.303,38.938,96.303,39.532"/>
			<path fill="#979797" d="M95.634,39.532c0,0.224-0.181,0.405-0.402,0.405c-0.224,0-0.406-0.181-0.406-0.405
				c0-0.223,0.183-0.403,0.406-0.403C95.453,39.129,95.634,39.309,95.634,39.532"/>
			<path fill="#E5E5E5" d="M109.777,39.314c0.113,0.111,0.113,0.292,0,0.404c-0.112,0.111-0.292,0.111-0.404,0l-2.968-2.968
				c-0.109-0.111-0.109-0.291,0-0.404c0.113-0.11,0.294-0.11,0.406,0L109.777,39.314z"/>
			<path fill="#FED2AA" d="M105.531,30.167l0.426-0.033c0,0,0.267-0.531,0.896-0.184c0.625,0.346,0.244,0.724-0.127,0.772
				c-0.374,0.048-0.436-0.042-0.436-0.042s0.398-0.452-0.014-0.496c-0.41-0.043-0.432,0.279-0.432,0.279l-0.613,0.021
				L105.531,30.167z"/>
			<path fill="#72154A" d="M103.13,27.269c0.127,0.012,0.295-0.285,0.47,2.558l2.14,0.226c0,0-0.551,0.712-0.446,1.179
				c0,0-2.216-0.491-2.544-0.881C102.418,29.961,101.9,27.149,103.13,27.269"/>
			<path fill="#010101" d="M101.818,33.02c0.423,0.044,0.662,1.204-0.453,1.128c-1.117-0.078-3.226,0.003-3.226,0.003
				s-1.338-1.381-0.185-2.389C99.108,30.755,97.502,32.567,101.818,33.02"/>
			<path fill="#010101" d="M105.476,30.704c0,0,0.396-0.245,0.552,0.012c0.153,0.255-0.173,0.407-0.173,0.407
				S105.456,30.873,105.476,30.704"/>
			
				<rect x="102.816" y="37.566" transform="matrix(-0.8974 -0.4411 0.4411 -0.8974 178.7465 117.3043)" fill="#FED2AA" width="0.386" height="0.615"/>
			<path fill="#E5E5E5" d="M102.698,38.064c0,0-0.091,0.163-0.107,0.279c0,0,0.096,0.195,0.364,0.156l0.11-0.31
				C103.067,38.19,102.953,38.219,102.698,38.064"/>
			<path fill="#B3B3B3" d="M102.622,38.254c0,0,0.229,0.128,0.396,0.04c0,0,0.484-0.141,0.734,0.018
				c0.249,0.16,0.216,0.414,0.216,0.414s-0.97,0.246-1.468-0.121C102.497,38.603,102.515,38.274,102.622,38.254"/>
			
				<rect x="101.463" y="37.319" transform="matrix(-0.8984 -0.4391 0.4391 -0.8984 176.4505 116.1316)" fill="#FED2AA" width="0.387" height="0.679"/>
			<path fill="#042A46" d="M99.362,31.589c0,0-0.867,0.286-0.175,0.732c0.693,0.447,3.681,0.692,4.799,0.426
				c0,0-0.772,1.272-0.767,2.166c0.004,0.894-0.436,2.708-0.436,2.708s0.43,0.195,0.576,0.41c0,0,1.794-4.72,1.343-5.597
				c-0.448-0.878-3.206-1.173-3.206-1.173C101.255,31.458,100.192,31.533,99.362,31.589"/>
			<path fill="#3F5879" d="M98.996,31.153c0,0-0.612,0.659,0,1.21c0.611,0.551,3.232,0.758,4.378,0.676c0,0-0.966,1.132-1.105,2.015
				c-0.136,0.883-0.776,2.278-0.776,2.278s0.392,0.262,0.501,0.497c0,0,2.443-4.043,2.14-4.981
				c-0.303-0.939-2.977-1.673-2.977-1.673C100.886,31.327,99.825,31.231,98.996,31.153"/>
			<path fill="#FED2AA" d="M99.566,30.343c0,0-0.479,0.552-0.57,0.81c0,0,1.858,0.224,2.16,0.021
				C101.156,31.173,100.248,30.16,99.566,30.343"/>
			<polygon fill="#FED2AA" points="103.454,27.12 104.034,26.427 104.72,26.774 104.013,27.569 			"/>
			<path fill="#E5E5E5" d="M108.197,24.586c0,0-0.019,2.028-0.817,2.336c0,0-3.756-1.25-2.627-3.896
				C105.883,20.382,107.671,23.756,108.197,24.586"/>
			<polygon fill="#FFFFFF" points="106.769,23.698 104.541,25.028 104.739,25.658 107.37,23.913 			"/>
			<polygon fill="#FFFFFF" points="107.583,24.113 104.996,26.158 106.126,27.215 108.197,24.477 			"/>
			<path fill="#9AC73C" d="M103.365,26.344l2.875,1.715c0,0,1.315-0.815,1.285-1.201c0,0-2.109-0.69-2.486-2.358
				c-0.401-1.773,3.244,0.271,3.244,0.271s0.502-3.116-3.503-2.931C101.909,21.84,103.365,26.344,103.365,26.344"/>
			<polygon fill="#343434" points="103.281,26.054 103.171,26.319 106.284,28.184 106.37,28.059 			"/>
			<path fill="#9AC73C" d="M102.996,26.719c0,0-0.697-0.11-1.581,0.498c-0.882,0.607-0.333,1.242-1.601,1.324
				c-1.27,0.083-1.574,0.967-1.795,1.519c0,0,0.967,0.22,1.544,0.553c0.581,0.331,1.879,0.634,1.879,0.634s0.949-1.126,1.465-1.4
				c0.549-0.29,1.293-1.176,1.334-1.661C104.281,27.7,104.687,27.437,102.996,26.719"/>
			<path fill="#FED2AA" d="M104.311,30.714l0.422,0.076c0,0,0.391-0.448,0.911,0.045c0.522,0.493,0.057,0.762-0.317,0.717
				c-0.37-0.047-0.409-0.148-0.409-0.148s0.501-0.339,0.113-0.484c-0.387-0.144-0.489,0.162-0.489,0.162l-0.601-0.133
				L104.311,30.714z"/>
			<path fill="#9E2066" d="M102.713,27.308c0.12,0.044,0.357-0.201-0.185,2.595l2.013,0.754c0,0-0.711,0.552-0.726,1.031
				c0,0-2.023-1.031-2.244-1.491C101.352,29.737,101.553,26.885,102.713,27.308"/>
			<path fill="#E5E5E5" d="M101.362,37.819c0,0-0.091,0.164-0.107,0.278c0,0,0.097,0.196,0.364,0.158l0.112-0.31
				C101.731,37.946,101.617,37.974,101.362,37.819"/>
			<path fill="#B3B3B3" d="M101.255,38.097c0,0,0.216,0.154,0.391,0.085c0,0,0.497-0.084,0.728,0.102
				c0.229,0.187,0.165,0.435,0.165,0.435s-0.988,0.135-1.443-0.289C101.095,38.43,101.146,38.105,101.255,38.097"/>
			<path fill="#010101" d="M105.255,31.222c0,0.205-0.168,0.37-0.371,0.37c-0.207,0-0.369-0.166-0.369-0.37
				c0-0.204,0.162-0.37,0.369-0.37C105.09,30.851,105.255,31.018,105.255,31.222"/>
			<path fill="#FCF6B7" d="M107.829,30.964c0,0.48-0.176,0.87-0.392,0.87c-0.214,0-0.389-0.39-0.389-0.87
				c0-0.481,0.175-0.87,0.389-0.87C107.653,30.094,107.829,30.483,107.829,30.964"/>
			<rect x="87.069" y="33.728" fill="#818180" width="10.271" height="0.295"/>
			<rect x="87.482" y="27.78" fill="#979797" width="0.643" height="5.947"/>
			<polygon fill="#09A950" points="96.739,27.137 88.168,27.137 88.168,27.78 87.523,27.78 87.523,33.728 97.382,33.728 
				97.382,27.78 			"/>
			<g>
				<path fill="#FFFFFF" d="M89.736,29.832h1.734v-1.772h1.939v1.772h1.825v1.837H93.41v1.772h-1.939v-1.772h-1.734V29.832z"/>
			</g>
			<path id="path3220" fill="#129A48" d="M93.298,30.408c0.015,0.051,0.021,0.107,0.021,0.17c0,0.113-0.022,0.222-0.066,0.321
				c0.064-0.045,0.122-0.093,0.178-0.137c0.201-0.155,0.389-0.208,0.534-0.218c0.08-0.003,0.207-0.065,0.207-0.137H93.298
				L93.298,30.408z M93.269,30.579c0-0.397-0.361-0.503-0.686-0.555c-0.323-0.052-0.701-0.169-0.701-0.516
				c0-0.17,0.106-0.34,0.289-0.34c0.269,0,0.316,0.204,0.316,0.233c0.003,0.029-0.077,0.049-0.089,0.107
				c-0.012,0.071,0.02,0.14,0.063,0.195c0.038,0.05,0.096,0.151,0.15,0.143c0.061-0.009,0.082-0.113,0.099-0.18
				s0.046-0.124,0.019-0.187c-0.035-0.078-0.068-0.039-0.095-0.095c-0.017-0.033-0.077-0.358-0.438-0.358
				c-0.249,0-0.479,0.208-0.5,0.444c-0.034,0.337,0.1,0.464,0.381,0.596c0.436,0.206,0.89,0.197,0.89,0.487
				c0,0.281-0.097,0.432-0.264,0.542c-0.026,0.02-0.082,0.044-0.135,0.061v0.199c0.01-0.001,0.022-0.003,0.031-0.004
				C92.974,31.288,93.269,30.956,93.269,30.579z M92.84,30.408h-2.13c0,0.072,0.128,0.132,0.206,0.137
				c0.144,0.01,0.333,0.063,0.532,0.218c0.205,0.157,0.434,0.365,0.914,0.386v0.61c0.029,0.006,0.06,0.008,0.094,0.008
				c0.014,0,0.036-0.001,0.063-0.005v-0.35v-0.264v-0.03c0.257-0.056,0.397-0.275,0.397-0.566
				C92.916,30.492,92.893,30.447,92.84,30.408z M92.362,32.227c0.043,0.026,0.097,0.038,0.156,0.045v-0.239
				c-0.053,0.003-0.106,0.003-0.156-0.002V32.227z M92.876,32.419c-0.084-0.062-0.192-0.078-0.384-0.101
				c-0.226-0.029-0.286-0.17-0.292-0.321c-0.062-0.021-0.113-0.047-0.162-0.082c-0.009,0.05-0.017,0.104-0.017,0.158
				c0,0.227,0.245,0.324,0.418,0.348c0.18,0.026,0.347,0.032,0.371,0.042c0.024,0.01,0.039,0.021,0.048,0.033
				c0.01,0.011,0.039,0.026,0.056,0.016C92.931,32.501,92.916,32.452,92.876,32.419z M92.264,31.724
				c0.015-0.015,0.029-0.028,0.048-0.039v-0.139c-0.043,0.024-0.081,0.051-0.111,0.082C92.2,31.665,92.221,31.7,92.264,31.724z
				 M92.756,31.66c0,0.107-0.142,0.158-0.3,0.158c-0.161,0-0.307-0.062-0.307-0.19c0-0.157,0.064-0.214,0.162-0.239v-0.222
				c-0.216,0.017-0.393,0.216-0.393,0.385c0,0.123,0.021,0.317,0.361,0.415c0.357,0.104,0.772-0.123,0.772-0.35
				c0-0.109-0.058-0.162-0.131-0.186c-0.061-0.019-0.136-0.045-0.354,0.018v0.139c0.034-0.01,0.065-0.016,0.097-0.016
				C92.727,31.571,92.756,31.592,92.756,31.66z M91.583,32.919h1.713c0-0.028-0.092-0.069-0.169-0.076
				c-0.078-0.006-0.185-0.011-0.208-0.031c-0.031-0.028-0.084-0.046-0.151-0.063c-0.069-0.017-0.249-0.031-0.249-0.13v-0.137
				c-0.028-0.003-0.058-0.006-0.086-0.01c-0.022-0.004-0.046-0.007-0.07-0.013v0.16c0,0.099-0.18,0.113-0.25,0.13
				c-0.068,0.017-0.119,0.036-0.152,0.063c-0.024,0.021-0.128,0.025-0.207,0.031C91.674,32.851,91.583,32.892,91.583,32.919z"/>
		</g>
	</g>
</g>
</svg>
